<svg width="30" height="30" viewBox="0 0 30 30" fill="none" xmlns="http://www.w3.org/2000/svg">
<path fill-rule="evenodd" clip-rule="evenodd" d="M15.0039 10.2731C14.4927 9.30687 11.7889 4.48187 8.80019 4.48187C5.81144 4.48187 3.10644 9.30687 2.59519 10.2731C2.27269 10.8831 2.50519 11.6394 3.11519 11.9631C3.72269 12.2819 4.48144 12.0531 4.80519 11.4431C5.54269 10.0531 6.62269 8.57187 7.55019 7.71437V21.5056C7.55019 22.1969 8.10894 22.7556 8.80019 22.7556C9.49144 22.7556 10.0502 22.1969 10.0502 21.5056V7.71437C10.9777 8.57312 12.0577 10.0531 12.7939 11.4431C13.0189 11.8656 13.4527 12.1081 13.9002 12.1081C14.0977 12.1081 14.2989 12.0606 14.4839 11.9631C15.0939 11.6394 15.3264 10.8831 15.0039 10.2731Z" fill="#EDF2F2"/>
<path opacity="0.4" fill-rule="evenodd" clip-rule="evenodd" d="M26.8848 18.0406C26.2798 17.7168 25.5185 17.9493 25.1948 18.5581C24.4598 19.9456 23.3848 21.4231 22.4623 22.2818V8.49432C22.4623 7.80432 21.9035 7.24432 21.2123 7.24432C20.521 7.24432 19.9623 7.80432 19.9623 8.49432V22.2868C19.0348 21.4293 17.9548 19.9493 17.2173 18.5581C16.8935 17.9493 16.131 17.7156 15.5273 18.0406C14.9173 18.3631 14.6848 19.1181 15.0073 19.7293C15.5185 20.6956 18.2223 25.5181 21.2123 25.5181C24.1898 25.5181 26.8936 20.6956 27.4048 19.7293C27.7273 19.1181 27.4948 18.3631 26.8848 18.0406Z" fill="#EDF2F2"/>
</svg>
