<svg width="25" height="24" viewBox="0 0 25 24" fill="none" xmlns="http://www.w3.org/2000/svg">
<path opacity="0.4" fill-rule="evenodd" clip-rule="evenodd" d="M20.75 12.0009C20.75 11.4486 20.3023 11.0009 19.75 11.0009L4.75 11.0009C4.19772 11.0009 3.75 11.4486 3.75 12.0009C3.75 12.5532 4.19772 13.0009 4.75 13.0009L19.75 13.0009C20.3023 13.0009 20.75 12.5532 20.75 12.0009Z" fill="black"/>
<path d="M10.3261 5.09535C10.8123 4.83331 11.4188 5.01499 11.6809 5.50115C11.8583 5.83043 11.8322 6.215 11.6457 6.51032C11.5569 6.65095 11.4318 6.77134 11.2751 6.8559L11.2731 6.85694L11.2627 6.86262L11.2174 6.88757C11.1767 6.91013 11.1156 6.94435 11.0369 6.98931C10.8795 7.0793 10.6525 7.21199 10.3792 7.38008C9.83075 7.71743 9.10502 8.19177 8.38432 8.74475C7.65769 9.30227 6.9686 9.91519 6.47026 10.5251C5.95254 11.1587 5.75059 11.6553 5.75059 11.9986C5.75059 12.3427 5.95275 12.8398 6.47043 13.4737C6.96878 14.0839 7.65787 14.6971 8.38449 15.2549C9.10518 15.8081 9.83089 16.2826 10.3793 16.6201C10.6526 16.7882 10.8796 16.9209 11.037 17.011C11.1161 17.0562 11.1954 17.1012 11.2755 17.1446C11.7614 17.4068 11.9428 18.0132 11.6808 18.4992C11.4187 18.9853 10.8121 19.1669 10.326 18.9048C10.2313 18.8537 10.1377 18.8006 10.0442 18.7472C9.8708 18.648 9.62514 18.5043 9.33122 18.3234C8.74529 17.9629 7.9585 17.4492 7.16669 16.8414C6.3808 16.2381 5.5574 15.5176 4.92137 14.7388C4.30468 13.9837 3.75059 13.0366 3.75059 11.9986C3.75059 10.961 4.30489 10.0142 4.92154 9.25956C5.55757 8.48119 6.38098 7.76098 7.16685 7.158C7.95865 6.55048 8.74543 6.03695 9.33136 5.67654C9.62527 5.49576 9.87093 5.35211 10.0444 5.25297C10.1311 5.20337 10.2 5.16483 10.2479 5.13827L10.3038 5.10751L10.3193 5.09906L10.3238 5.09661L10.3261 5.09535Z" fill="black"/>
</svg>
