<svg width="25" height="24" viewBox="0 0 25 24" fill="none" xmlns="http://www.w3.org/2000/svg">
<path d="M10.5388 6.647C10.5388 8.65834 8.90831 10.2888 6.89697 10.2888C4.88564 10.2888 3.25513 8.65834 3.25513 6.647C3.25513 4.63567 4.88564 3.00516 6.89697 3.00516C8.90831 3.00516 10.5388 4.63567 10.5388 6.647Z" fill="black"/>
<path d="M21.245 17.3532C21.245 19.3646 19.6145 20.9951 17.6032 20.9951C15.5918 20.9951 13.9613 19.3646 13.9613 17.3532C13.9613 15.3419 15.5918 13.7114 17.6032 13.7114C19.6145 13.7114 21.245 15.3419 21.245 17.3532Z" fill="black"/>
<g opacity="0.4">
<path d="M21.245 6.647C21.245 8.65834 19.6145 10.2888 17.6032 10.2888C15.5918 10.2888 13.9613 8.65834 13.9613 6.647C13.9613 4.63567 15.5918 3.00516 17.6032 3.00516C19.6145 3.00516 21.245 4.63567 21.245 6.647Z" fill="black"/>
<path d="M10.5388 17.3532C10.5388 19.3646 8.90831 20.9951 6.89697 20.9951C4.88564 20.9951 3.25513 19.3646 3.25513 17.3532C3.25513 15.3419 4.88564 13.7114 6.89697 13.7114C8.90831 13.7114 10.5388 15.3419 10.5388 17.3532Z" fill="black"/>
</g>
</svg>
