<svg width="25" height="24" viewBox="0 0 25 24" fill="none" xmlns="http://www.w3.org/2000/svg">
<path opacity="0.4" fill-rule="evenodd" clip-rule="evenodd" d="M19.6766 4.57611C17.6956 2.59511 15.0586 1.50311 12.2526 1.50311C9.44664 1.50311 6.80964 2.59511 4.82864 4.57611C1.72664 7.67911 0.880636 12.4411 2.70564 16.3751C2.73864 16.5371 2.64964 17.1961 2.58564 17.6781C2.34364 19.4841 2.21964 20.8101 2.83264 21.4241C3.44464 22.0371 4.76964 21.9131 6.57564 21.6701C7.05764 21.6061 7.72464 21.5201 7.82864 21.5311C9.23464 22.1821 10.7376 22.4971 12.2296 22.4971C14.9676 22.4971 17.6696 21.4351 19.6766 19.4271C23.7696 15.3321 23.7706 8.67011 19.6766 4.57611Z" fill="black"/>
<path d="M15.1955 12.4162C15.1955 12.9692 15.6485 13.4162 16.2005 13.4162C16.7525 13.4162 17.2005 12.9692 17.2005 12.4162C17.2005 11.8632 16.7525 11.4162 16.2005 11.4162H16.1915C15.6385 11.4162 15.1955 11.8632 15.1955 12.4162Z" fill="black"/>
<path d="M11.1865 12.4162C11.1865 12.9692 11.6385 13.4162 12.1915 13.4162C12.7435 13.4162 13.1915 12.9692 13.1915 12.4162C13.1915 11.8632 12.7435 11.4162 12.1915 11.4162H12.1825C11.6305 11.4162 11.1865 11.8632 11.1865 12.4162Z" fill="black"/>
<path d="M7.17847 12.4162C7.17847 12.9692 7.63047 13.4162 8.18247 13.4162C8.73447 13.4162 9.18247 12.9692 9.18247 12.4162C9.18247 11.8632 8.73447 11.4162 8.18247 11.4162H8.17347C7.62047 11.4162 7.17847 11.8632 7.17847 12.4162Z" fill="black"/>
</svg>
