<svg width="25" height="25" viewBox="0 0 25 25" fill="none" xmlns="http://www.w3.org/2000/svg">
<path fill-rule="evenodd" clip-rule="evenodd" d="M9.61691 8.34336C9.71636 8.2111 9.90412 8.18434 10.0366 8.28355L15.2165 12.1639C15.3492 12.2634 15.3761 12.4516 15.2766 12.5842L10.4569 19.004C9.29688 20.554 7.54688 20.864 6.33688 20.864C5.58688 20.864 5.04688 20.744 4.98688 20.734C4.85688 20.704 4.73688 20.614 4.66688 20.494C4.59688 20.364 2.87688 17.304 4.79688 14.754L9.61691 8.34336Z" fill="black"/>
<path opacity="0.4" fill-rule="evenodd" clip-rule="evenodd" d="M17.2065 10.0142L16.5365 10.905C16.437 11.0372 16.2493 11.0639 16.1169 10.9647L10.9361 7.0837C10.8037 6.98452 10.7765 6.79689 10.8754 6.66427L11.5465 5.76424C12.2365 4.83424 13.3065 4.34424 14.3865 4.34424C15.1265 4.34424 15.8665 4.57424 16.5065 5.05424C17.2565 5.62424 17.7465 6.45424 17.8865 7.38424C18.0165 8.32424 17.7765 9.25424 17.2065 10.0142Z" fill="black"/>
<path opacity="0.4" fill-rule="evenodd" clip-rule="evenodd" d="M19.8584 19.3521H13.4814C13.0674 19.3521 12.7314 19.6881 12.7314 20.1021C12.7314 20.5161 13.0674 20.8521 13.4814 20.8521H19.8584C20.2724 20.8521 20.6084 20.5161 20.6084 20.1021C20.6084 19.6881 20.2724 19.3521 19.8584 19.3521Z" fill="black"/>
</svg>
