<svg width="25" height="25" viewBox="0 0 25 25" fill="none" xmlns="http://www.w3.org/2000/svg">
<path fill-rule="evenodd" clip-rule="evenodd" d="M8.34 12.5179C8.34 10.3579 10.09 8.60788 12.25 8.60788C13.01 8.60788 13.73 8.82788 14.33 9.21788L13.23 10.3179C12.93 10.1779 12.6 10.1079 12.25 10.1079C10.92 10.1079 9.84 11.1879 9.84 12.5179C9.84 12.8679 9.91 13.1979 10.05 13.4979L8.94 14.6079C8.56 14.0079 8.34 13.2879 8.34 12.5179ZM11.06 14.6179L14.35 11.3379L15.43 10.2479L18.73 6.95788L18.72 6.94788L20.42 5.24788C20.72 4.95788 20.72 4.47788 20.42 4.18788C20.13 3.89788 19.65 3.89788 19.36 4.18788L17.44 6.10788C15.94 5.25788 14.16 4.71788 12.25 4.71788C6.85 4.71788 2.5 8.98788 2.5 12.5179C2.5 14.3679 3.69 16.4179 5.6 17.9479L3.59 19.9579C3.29 20.2579 3.29 20.7279 3.59 21.0179C3.73 21.1679 3.93 21.2379 4.12 21.2379C4.31 21.2379 4.5 21.1679 4.65 21.0179L5.72 19.9579L6.85 18.8179H6.86L11.06 14.6179Z" fill="black"/>
<path opacity="0.4" fill-rule="evenodd" clip-rule="evenodd" d="M19.85 7.95769L16.08 11.7277C16.13 11.9877 16.16 12.2477 16.16 12.5177C16.16 14.6777 14.4 16.4277 12.25 16.4277C11.98 16.4277 11.72 16.3977 11.46 16.3477H11.45L8.27002 19.5277C9.48002 20.0177 10.83 20.3177 12.25 20.3177C17.65 20.3177 22 16.0577 22 12.5177C22 10.9977 21.19 9.34769 19.85 7.95769Z" fill="black"/>
</svg>
