<svg width="25" height="25" viewBox="0 0 25 25" fill="none" xmlns="http://www.w3.org/2000/svg">
<path opacity="0.4" fill-rule="evenodd" clip-rule="evenodd" d="M12.25 4.80212C6.84805 4.80212 2.49805 9.07012 2.49805 12.6041C2.49805 16.1381 6.84805 20.4061 12.25 20.4061C17.652 20.4061 22.002 16.1381 22.002 12.6041C22.002 9.07012 17.652 4.80212 12.25 4.80212Z" fill="black"/>
<path fill-rule="evenodd" clip-rule="evenodd" d="M12.2499 16.5163C10.0929 16.5163 8.33789 14.7613 8.33789 12.6043C8.33789 10.4473 10.0929 8.69226 12.2499 8.69226C14.4069 8.69226 16.1619 10.4473 16.1619 12.6043C16.1619 14.7613 14.4069 16.5163 12.2499 16.5163ZM9.83789 12.604C9.83789 11.274 10.9199 10.192 12.2499 10.192C13.5799 10.192 14.6619 11.274 14.6619 12.604C14.6619 13.934 13.5799 15.016 12.2499 15.016C10.9199 15.016 9.83789 13.934 9.83789 12.604Z" fill="black"/>
</svg>
