<svg width="25" height="24" viewBox="0 0 25 24" fill="none" xmlns="http://www.w3.org/2000/svg">
<path opacity="0.4" fill-rule="evenodd" clip-rule="evenodd" d="M12.25 2.25012C6.874 2.25012 2.5 6.62412 2.5 12.0001C2.5 17.3761 6.874 21.7501 12.25 21.7501C17.626 21.7501 22 17.3761 22 12.0001C22 6.62412 17.626 2.25012 12.25 2.25012Z" fill="black"/>
<path d="M16.4276 13.5173H16.4406C16.8486 13.5173 17.1836 13.1893 17.1906 12.7793C17.1966 12.3653 16.8666 12.0243 16.4526 12.0173L12.6606 11.9553V7.84631C12.6606 7.43231 12.3246 7.09631 11.9106 7.09631C11.4966 7.09631 11.1606 7.43231 11.1606 7.84631V12.6943C11.1606 13.1033 11.4886 13.4373 11.8986 13.4443L16.4276 13.5173Z" fill="black"/>
</svg>
