<svg width="30" height="30" viewBox="0 0 30 30" fill="none" xmlns="http://www.w3.org/2000/svg">
<path d="M27.5001 14.9999C27.5001 21.9034 21.9036 27.4999 15.0001 27.4999C8.09656 27.4999 2.50012 21.9034 2.50012 14.9999C2.50012 8.09638 8.09656 2.49994 15.0001 2.49994C21.9036 2.49994 27.5001 8.09638 27.5001 14.9999Z" fill="#EDF2F2" fill-opacity="0.4"/>
<path d="M10.0953 10.7716C10.0001 11.0013 10.0001 11.2925 10.0001 11.8749V18.1249C10.0001 18.7073 10.0001 18.9986 10.0953 19.2283C10.2221 19.5346 10.4655 19.7779 10.7718 19.9048C11.0015 19.9999 11.2927 19.9999 11.8751 19.9999C12.4575 19.9999 12.7487 19.9999 12.9785 19.9048C13.2847 19.7779 13.5281 19.5346 13.655 19.2283C13.7501 18.9986 13.7501 18.7073 13.7501 18.1249V11.8749C13.7501 11.2925 13.7501 11.0013 13.655 10.7716C13.5281 10.4653 13.2847 10.222 12.9785 10.0951C12.7487 9.99994 12.4575 9.99994 11.8751 9.99994C11.2927 9.99994 11.0015 9.99994 10.7718 10.0951C10.4655 10.222 10.2221 10.4653 10.0953 10.7716Z" fill="#EDF2F2"/>
<path d="M16.3452 10.7716C16.2501 11.0013 16.2501 11.2925 16.2501 11.8749V18.1249C16.2501 18.7073 16.2501 18.9986 16.3452 19.2283C16.4721 19.5346 16.7155 19.7779 17.0217 19.9048C17.2515 19.9999 17.5427 19.9999 18.1251 19.9999C18.7075 19.9999 18.9987 19.9999 19.2285 19.9048C19.5347 19.7779 19.7781 19.5346 19.905 19.2283C20.0001 18.9986 20.0001 18.7073 20.0001 18.1249V11.8749C20.0001 11.2925 20.0001 11.0013 19.905 10.7716C19.7781 10.4653 19.5347 10.222 19.2285 10.0951C18.9987 9.99994 18.7075 9.99994 18.1251 9.99994C17.5427 9.99994 17.2515 9.99994 17.0217 10.0951C16.7155 10.222 16.4721 10.4653 16.3452 10.7716Z" fill="#EDF2F2"/>
</svg>
