<svg width="25" height="25" viewBox="0 0 25 25" fill="none" xmlns="http://www.w3.org/2000/svg">
<path opacity="0.4" fill-rule="evenodd" clip-rule="evenodd" d="M12.25 2.78479C5.052 2.78479 2.5 5.33679 2.5 12.5348C2.5 19.7328 5.052 22.2848 12.25 22.2848C19.448 22.2848 22 19.7328 22 12.5348C22 5.33679 19.448 2.78479 12.25 2.78479Z" fill="black"/>
<path d="M11.5912 15.4376L16.3412 10.6916C16.6342 10.3986 16.6342 9.92363 16.3412 9.63063C16.0482 9.33863 15.5732 9.33763 15.2802 9.63063L11.0612 13.8466L9.2202 12.0036C8.9282 11.7126 8.4532 11.7106 8.1592 12.0036C7.8662 12.2966 7.8662 12.7716 8.1592 13.0646L10.5302 15.4376C10.6712 15.5786 10.8622 15.6576 11.0612 15.6576C11.2602 15.6576 11.4502 15.5786 11.5912 15.4376Z" fill="black"/>
</svg>
