<svg width="318" height="451" viewBox="0 0 318 451" fill="none" xmlns="http://www.w3.org/2000/svg">
<g opacity="0.8" filter="url(#filter0_f_260_408)">
<rect x="150" y="55" width="246" height="246" rx="123" fill="#3EC1D3"/>
<g clip-path="url(#clip0_260_408)">
<g opacity="0.2">
<path d="M226.226 62.8663C226.226 64.4626 226.86 65.9936 227.989 67.1224C229.118 68.2512 230.649 68.8853 232.245 68.8853C233.841 68.8853 235.372 68.2512 236.501 67.1224C237.63 65.9936 238.264 64.4626 238.264 62.8663H226.226ZM87.7882 63.2033C76.4754 63.2297 65.286 65.556 54.9002 70.041C54.1507 70.3235 53.4651 70.7527 52.8837 71.3036C52.3022 71.8544 51.8365 72.5158 51.5139 73.2489C51.1913 73.982 51.0183 74.7721 51.0049 75.573C50.9916 76.3738 51.1382 77.1693 51.4363 77.9127C51.7343 78.6562 52.1777 79.3327 52.7405 79.9026C53.3033 80.4725 53.9742 80.9243 54.7139 81.2316C55.4535 81.5389 56.2471 81.6955 57.0481 81.6922C57.849 81.6888 58.6412 81.5257 59.3783 81.2123C68.3427 77.313 78.0125 75.2971 87.7882 75.2896C97.5631 75.2896 107.242 77.312 116.198 81.2123C117.364 81.7261 118.663 81.8564 119.908 81.5846C121.153 81.3128 122.28 80.6528 123.126 79.6998C123.972 78.7467 124.494 77.5497 124.616 76.2812C124.738 75.0128 124.455 73.7382 123.806 72.6412C123.099 71.4347 121.992 70.5145 120.676 70.041C110.29 65.556 99.101 63.2297 87.7882 63.2033ZM214.236 64.7924C213.252 64.8641 212.301 65.1764 211.467 65.7019C210.632 66.2274 209.939 66.95 209.449 67.8061C208.96 68.6621 208.688 69.6255 208.657 70.6113C208.627 71.5972 208.84 72.5753 209.276 73.4598C209.935 74.8938 210.725 76.264 211.636 77.5527C212.08 78.2187 212.653 78.7892 213.321 79.231C213.989 79.6727 214.739 79.9767 215.526 80.1252C216.312 80.2736 217.121 80.2636 217.904 80.0957C218.687 79.9278 219.428 79.6053 220.085 79.1471C220.742 78.689 221.301 78.1044 221.729 77.4277C222.157 76.7509 222.445 75.9955 222.578 75.2058C222.71 74.416 222.684 73.6078 222.5 72.8284C222.316 72.0491 221.978 71.3142 221.507 70.6669C220.991 69.9371 220.54 69.1637 220.159 68.3556C219.66 67.2333 218.83 66.2904 217.78 65.6534C216.73 65.0165 215.51 64.716 214.284 64.7924H214.236ZM155.249 65.5146C154.416 65.577 153.605 65.8121 152.868 66.205C152.131 66.5979 151.483 67.14 150.967 67.7968C150.451 68.4535 150.077 69.2105 149.869 70.0197C149.661 70.8289 149.624 71.6724 149.76 72.4967C151.093 83.7459 154.697 94.6072 160.354 104.422C166.007 114.223 173.592 122.774 182.648 129.557C183.53 130.292 184.604 130.759 185.742 130.904C186.881 131.048 188.037 130.864 189.075 130.373C190.112 129.882 190.988 129.105 191.598 128.133C192.209 127.161 192.528 126.034 192.519 124.886C192.519 122.912 191.556 121.131 190.064 120.071C182.213 114.245 175.641 106.87 170.755 98.4026C165.865 89.9252 162.767 80.5344 161.654 70.8114C161.472 69.2745 160.705 67.8667 159.513 66.8803C158.32 65.894 156.793 65.4049 155.249 65.5146ZM195.312 69.0779C194.372 69.1375 193.459 69.4169 192.647 69.8935C191.834 70.3702 191.145 71.0309 190.635 71.8225C190.124 72.6141 189.806 73.5144 189.707 74.4511C189.608 75.3878 189.73 76.3347 190.064 77.2156C191.945 82.741 194.889 87.8447 198.731 92.2392C199.518 93.2077 200.587 93.9076 201.789 94.242C202.992 94.5764 204.268 94.5288 205.443 94.1057C206.617 93.6825 207.63 92.9049 208.343 91.8803C209.056 90.8558 209.432 89.635 209.421 88.387C209.421 86.8943 208.843 85.4978 207.928 84.4385C205.011 81.1601 202.784 77.3281 201.379 73.1709C200.958 71.9167 200.136 70.8362 199.039 70.0963C197.943 69.3565 196.633 68.9986 195.312 69.0779ZM175.425 69.415C174.535 69.4756 173.669 69.7335 172.89 70.1701C172.111 70.6067 171.44 71.211 170.923 71.9393C170.407 72.6676 170.059 73.5015 169.905 74.3808C169.751 75.2601 169.795 76.1626 170.032 77.023C171.461 83.2607 173.814 89.2497 177.014 94.7912C180.212 100.332 184.221 105.364 188.908 109.718C189.75 110.553 190.819 111.12 191.981 111.349C193.144 111.578 194.348 111.459 195.444 111.007C196.539 110.554 197.476 109.789 198.138 108.806C198.8 107.823 199.157 106.666 199.164 105.481C199.164 103.699 198.442 102.11 197.238 101.003C193.364 97.4461 190.052 93.3223 187.415 88.7722C184.791 84.2085 182.875 79.2728 181.733 74.1339C181.426 72.7293 180.625 71.4812 179.477 70.6157C178.329 69.7501 176.908 69.3242 175.473 69.415H175.425ZM330.957 78.275C329.513 78.275 328.116 78.8047 327.105 79.6714C318.031 86.4488 310.429 95.0005 304.762 104.807C299.106 114.621 295.502 125.483 294.169 136.732C293.952 138.315 294.373 139.92 295.339 141.194C296.305 142.467 297.737 143.304 299.321 143.521C300.905 143.738 302.51 143.318 303.783 142.351C305.056 141.385 305.893 139.953 306.111 138.369C307.216 128.666 310.296 119.292 315.163 110.826C320.062 102.353 326.651 94.9774 334.52 89.1574C335.551 88.4058 336.317 87.346 336.706 86.1311C337.096 84.9161 337.089 83.6088 336.687 82.3979C336.285 81.1869 335.509 80.135 334.471 79.394C333.432 78.6529 332.185 78.2611 330.909 78.275H330.957ZM87.7882 82.4642C81.3839 82.4642 75.0278 83.4754 68.9125 85.3534C68.1537 85.5747 67.4459 85.9433 66.8295 86.4382C66.2132 86.933 65.7003 87.5444 65.3203 88.2375C64.9402 88.9306 64.7003 89.6917 64.6144 90.4774C64.5285 91.2632 64.5982 92.0582 64.8195 92.817C65.0409 93.5758 65.4095 94.2836 65.9043 94.8999C66.3992 95.5163 67.0106 96.0291 67.7037 96.4092C68.3967 96.7893 69.1579 97.0291 69.9436 97.115C70.7294 97.2009 71.5243 97.1312 72.2831 96.9099C77.2998 95.3271 82.5278 94.5153 87.7882 94.5023C93.0849 94.5023 98.2854 95.3691 103.293 96.9099C104.826 97.3569 106.473 97.1768 107.873 96.4092C109.272 95.6416 110.31 94.3495 110.757 92.817C111.204 91.2845 111.024 89.6372 110.256 88.2375C109.489 86.8378 108.196 85.8004 106.664 85.3534C100.552 83.4524 94.1891 82.4786 87.7882 82.4642ZM337.602 97.6804C335.917 97.6804 334.424 98.3545 333.365 99.462C328.662 103.814 324.637 108.846 321.423 114.389C318.24 119.934 315.903 125.922 314.489 132.157C314.232 132.944 314.139 133.775 314.217 134.599C314.295 135.423 314.543 136.222 314.944 136.946C315.344 137.67 315.89 138.304 316.547 138.807C317.204 139.311 317.957 139.673 318.761 139.872C319.564 140.072 320.4 140.103 321.216 139.965C322.032 139.826 322.81 139.521 323.503 139.068C324.196 138.615 324.788 138.024 325.242 137.332C325.696 136.64 326.002 135.862 326.142 135.047C327.301 129.905 329.233 124.97 331.872 120.408C334.505 115.841 337.817 111.701 341.695 108.129C342.588 107.308 343.212 106.236 343.485 105.053C343.758 103.871 343.667 102.634 343.225 101.504C342.782 100.374 342.008 99.4046 341.005 98.7222C340.002 98.0399 338.815 97.6767 337.602 97.6804ZM87.7882 101.773C84.899 101.773 81.9617 102.062 79.1208 102.64C77.8877 102.831 76.7444 103.4 75.849 104.269C74.9537 105.139 74.3506 106.264 74.1232 107.491C73.8958 108.718 74.0554 109.985 74.5798 111.118C75.1041 112.25 75.9674 113.191 77.0502 113.811C78.3985 114.582 79.8912 114.774 81.2876 114.486C85.5772 113.611 89.9991 113.611 94.2887 114.486C95.0665 114.628 95.8647 114.615 96.6377 114.449C97.4108 114.283 98.1435 113.966 98.7941 113.517C99.4446 113.068 100 112.494 100.429 111.83C100.859 111.166 101.153 110.424 101.295 109.646C101.437 108.868 101.425 108.07 101.259 107.297C101.092 106.524 100.776 105.791 100.326 105.141C99.8769 104.49 99.3038 103.935 98.6396 103.505C97.9755 103.076 97.2334 102.782 96.4556 102.64C93.6016 102.07 90.6986 101.779 87.7882 101.773ZM347.859 114.726C345.932 114.726 344.295 115.545 343.188 116.941C339.347 121.336 336.403 126.44 334.52 131.965C334.199 132.72 334.035 133.532 334.039 134.353C334.043 135.173 334.215 135.984 334.544 136.736C334.873 137.487 335.352 138.164 335.952 138.723C336.552 139.283 337.26 139.714 338.032 139.991C338.805 140.267 339.626 140.382 340.445 140.329C341.263 140.277 342.063 140.057 342.793 139.684C343.524 139.312 344.171 138.793 344.694 138.161C345.218 137.529 345.606 136.797 345.836 136.01C347.223 131.855 349.434 128.022 352.337 124.742C353.106 123.876 353.609 122.806 353.785 121.662C353.961 120.517 353.804 119.346 353.331 118.288C352.858 117.231 352.09 116.333 351.12 115.701C350.149 115.069 349.017 114.731 347.859 114.726ZM87.7882 121.034C87.0177 121.034 86.1991 121.082 85.4287 121.179C84.6325 121.237 83.8559 121.452 83.1438 121.813C82.4318 122.174 81.7987 122.673 81.2814 123.281C80.7641 123.889 80.3729 124.594 80.1305 125.355C79.8882 126.115 79.7996 126.916 79.8698 127.712C79.9401 128.507 80.1678 129.28 80.5398 129.986C80.9117 130.693 81.4205 131.318 82.0364 131.826C82.6523 132.334 83.3631 132.714 84.1273 132.944C84.8916 133.175 85.6941 133.251 86.4881 133.169C87.3689 133.085 88.2556 133.085 89.1364 133.169C89.9269 133.235 90.7226 133.145 91.4783 132.904C92.234 132.663 92.9348 132.275 93.5406 131.763C94.1465 131.251 94.6456 130.625 95.0094 129.92C95.3732 129.215 95.5947 128.446 95.6611 127.655C95.7275 126.865 95.6375 126.069 95.3964 125.313C95.1552 124.558 94.7676 123.857 94.2556 123.251C93.7437 122.645 93.1174 122.146 92.4125 121.782C91.7077 121.418 90.9381 121.197 90.1476 121.131C89.3628 121.066 88.5756 121.034 87.7882 121.034ZM361.052 129.027C358.982 129.027 357.152 130.039 356.044 131.676C355.148 132.965 354.374 134.335 353.733 135.769C353.346 136.489 353.109 137.282 353.038 138.097C352.967 138.912 353.063 139.733 353.319 140.51C353.576 141.287 353.989 142.003 354.532 142.615C355.075 143.227 355.737 143.722 356.478 144.069C357.219 144.417 358.023 144.609 358.841 144.636C359.658 144.662 360.473 144.521 361.235 144.222C361.996 143.923 362.689 143.472 363.27 142.896C363.851 142.32 364.309 141.632 364.616 140.873C364.984 140.058 365.436 139.283 365.964 138.562C366.612 137.661 366.998 136.598 367.08 135.491C367.162 134.385 366.937 133.277 366.429 132.29C365.92 131.303 365.149 130.477 364.2 129.901C363.252 129.325 362.162 129.023 361.052 129.027ZM376.702 140.295C375.105 140.295 373.574 140.929 372.446 142.058C371.317 143.187 370.683 144.718 370.683 146.314C370.683 147.91 371.317 149.441 372.446 150.57C373.574 151.699 375.105 152.333 376.702 152.333C378.298 152.333 379.829 151.699 380.958 150.57C382.087 149.441 382.721 147.91 382.721 146.314C382.721 144.718 382.087 143.187 380.958 142.058C379.829 140.929 378.298 140.295 376.702 140.295ZM88.2215 140.295C87.4311 140.241 86.6378 140.344 85.887 140.597C85.1362 140.849 84.4425 141.248 83.8456 141.769C83.2486 142.29 82.7602 142.923 82.408 143.633C82.0559 144.342 81.847 145.114 81.7932 145.905C81.7395 146.695 81.8419 147.489 82.0948 148.239C82.3476 148.99 82.7458 149.684 83.2667 150.281C83.7876 150.878 84.421 151.366 85.1307 151.718C85.8404 152.071 86.6125 152.279 87.403 152.333C88.9993 152.442 90.5734 151.912 91.7789 150.86C92.9845 149.808 93.7227 148.32 93.8313 146.723C93.9398 145.127 93.4098 143.553 92.3578 142.347C91.3057 141.142 89.8179 140.404 88.2215 140.295ZM394.663 148.192C393.428 148.098 392.194 148.391 391.133 149.03C390.072 149.668 389.236 150.621 388.74 151.755C388.384 152.567 387.949 153.341 387.44 154.067C386.968 154.714 386.631 155.449 386.447 156.228C386.263 157.008 386.236 157.816 386.369 158.605C386.501 159.395 386.79 160.151 387.218 160.827C387.646 161.504 388.205 162.089 388.861 162.547C389.518 163.005 390.26 163.327 391.043 163.495C391.826 163.663 392.634 163.673 393.421 163.525C394.208 163.376 394.957 163.072 395.625 162.631C396.293 162.189 396.866 161.618 397.311 160.952C398.223 159.664 399.013 158.294 399.67 156.859C400.108 155.972 400.32 154.989 400.287 154C400.255 153.01 399.978 152.044 399.483 151.187C398.988 150.33 398.289 149.608 397.448 149.086C396.607 148.563 395.65 148.256 394.663 148.192ZM453.649 148.963C452.103 148.841 450.569 149.325 449.374 150.314C448.179 151.302 447.415 152.717 447.245 154.259C446.146 163.979 443.065 173.369 438.192 181.851C433.292 190.323 426.703 197.698 418.835 203.519C418.212 204.006 417.691 204.611 417.302 205.299C416.913 205.987 416.663 206.745 416.567 207.53C416.471 208.315 416.53 209.111 416.742 209.872C416.953 210.634 417.313 211.347 417.8 211.97C418.287 212.593 418.891 213.113 419.58 213.503C420.268 213.892 421.026 214.141 421.811 214.238C422.595 214.334 423.391 214.274 424.153 214.063C424.915 213.851 425.628 213.492 426.25 213.005C435.325 206.228 442.926 197.676 448.593 187.87C454.251 178.056 457.855 167.194 459.187 155.945C459.323 155.117 459.284 154.269 459.074 153.457C458.863 152.645 458.485 151.885 457.963 151.228C457.442 150.57 456.789 150.029 456.046 149.639C455.303 149.249 454.486 149.019 453.649 148.963ZM413.683 152.526C412.345 152.416 411.009 152.76 409.891 153.503C408.772 154.245 407.937 155.343 407.519 156.619C406.129 160.772 403.918 164.604 401.019 167.886C400.25 168.752 399.747 169.822 399.57 170.967C399.394 172.111 399.552 173.283 400.024 174.34C400.497 175.397 401.265 176.296 402.236 176.927C403.206 177.559 404.339 177.898 405.497 177.902C407.423 177.902 409.06 177.035 410.168 175.687C414.008 171.292 416.953 166.188 418.835 160.664C419.177 159.784 419.307 158.836 419.215 157.896C419.123 156.957 418.812 156.052 418.305 155.255C417.799 154.458 417.113 153.792 416.301 153.309C415.49 152.827 414.576 152.542 413.635 152.478L413.683 152.526ZM433.473 152.863C432.036 152.762 430.611 153.184 429.46 154.051C428.31 154.918 427.512 156.172 427.213 157.582C426.071 162.721 424.155 167.656 421.531 172.22C418.894 176.77 415.582 180.894 411.708 184.451C411.091 184.985 410.588 185.64 410.231 186.375C409.875 187.11 409.672 187.91 409.634 188.726C409.596 189.542 409.725 190.357 410.013 191.122C410.301 191.886 410.741 192.584 411.307 193.173C411.873 193.762 412.553 194.23 413.306 194.548C414.058 194.866 414.868 195.027 415.685 195.022C416.502 195.016 417.309 194.845 418.058 194.518C418.806 194.19 419.48 193.714 420.039 193.118C424.722 188.779 428.731 183.764 431.932 178.239C435.12 172.68 437.457 166.674 438.866 160.423C439.096 159.565 439.133 158.668 438.975 157.795C438.816 156.922 438.467 156.094 437.952 155.372C437.436 154.649 436.768 154.05 435.993 153.616C435.219 153.182 434.359 152.925 433.473 152.863ZM85.525 159.508C83.9287 159.495 82.3926 160.117 81.2548 161.237C80.117 162.357 79.4706 163.882 79.4578 165.479C79.4451 167.075 80.067 168.611 81.1867 169.749C82.3065 170.887 83.8324 171.533 85.4287 171.546C86.9981 171.696 88.5782 171.696 90.1476 171.546C90.9381 171.476 91.7071 171.252 92.4107 170.885C93.1143 170.518 93.7389 170.017 94.2486 169.408C94.7583 168.8 95.1433 168.098 95.3815 167.341C95.6197 166.584 95.7065 165.788 95.637 164.997C95.5674 164.207 95.3429 163.438 94.9761 162.734C94.6094 162.031 94.1076 161.406 93.4995 160.896C92.8914 160.387 92.1889 160.002 91.432 159.763C90.6751 159.525 89.8787 159.438 89.0883 159.508C88.2078 159.598 87.3204 159.598 86.4399 159.508C86.1194 159.482 85.7974 159.482 85.4769 159.508H85.525ZM-10.8758 161.771C-12.135 161.781 -13.3593 162.186 -14.3764 162.928C-15.3936 163.67 -16.1522 164.713 -16.5456 165.909C-16.9391 167.106 -16.9474 168.395 -16.5695 169.596C-16.1916 170.797 -15.4465 171.85 -14.4391 172.605C-6.58822 178.431 -0.0163422 185.806 4.86998 194.274C9.74664 202.753 12.828 212.145 13.9226 221.865C14.1461 223.449 14.9895 224.879 16.2673 225.84C17.5451 226.802 19.1526 227.217 20.7362 226.993C22.3197 226.77 23.7497 225.926 24.7114 224.649C25.6731 223.371 26.0879 221.763 25.8644 220.18C24.5328 208.93 20.9287 198.069 15.2709 188.255C9.6041 178.448 2.00256 169.897 -7.07178 163.119C-8.15762 162.231 -9.5214 161.754 -10.924 161.771H-10.8758ZM80.1801 178.143C78.6739 178.134 77.219 178.69 76.1028 179.701C74.9866 180.713 74.2902 182.106 74.1511 183.606C74.012 185.106 74.4403 186.603 75.3515 187.803C76.2626 189.002 77.5904 189.816 79.0726 190.085C84.7955 191.216 90.6846 191.216 96.4074 190.085C97.1884 189.945 97.9343 189.654 98.6025 189.226C99.2708 188.799 99.8483 188.244 100.302 187.594C100.756 186.943 101.077 186.21 101.248 185.435C101.418 184.66 101.434 183.859 101.295 183.078C101.156 182.297 100.864 181.552 100.437 180.883C100.009 180.215 99.4546 179.637 98.804 179.184C98.1534 178.73 97.4198 178.409 96.6451 178.238C95.8704 178.068 95.0697 178.052 94.2887 178.191C89.9991 179.065 85.5772 179.065 81.2876 178.191C80.9222 178.125 80.5515 178.093 80.1801 178.095V178.143ZM-17.569 181.225C-18.7783 181.231 -19.9577 181.601 -20.9536 182.287C-21.9495 182.973 -22.7157 183.943 -23.1522 185.071C-23.5888 186.198 -23.6755 187.432 -23.4011 188.609C-23.1267 189.787 -22.5038 190.855 -21.6138 191.674C-17.7616 195.237 -14.4391 199.378 -11.7907 203.904C-9.1674 208.468 -7.25162 213.404 -6.10873 218.543C-5.84711 219.725 -5.23517 220.8 -4.35283 221.629C-3.47047 222.458 -2.35872 223.001 -1.16273 223.188C0.0332603 223.376 1.25791 223.198 2.3513 222.678C3.44469 222.159 4.35602 221.321 4.96629 220.276C5.78487 218.831 5.92933 217.194 5.59227 215.653C4.16362 209.416 1.81024 203.427 -1.38982 197.885C-4.5877 192.344 -8.5966 187.313 -13.2834 182.958C-13.8483 182.401 -14.5177 181.961 -15.2531 181.663C-15.9886 181.366 -16.7757 181.217 -17.569 181.225ZM69.8274 195.526C68.4286 195.669 67.1239 196.297 66.1398 197.301C65.1557 198.305 64.5543 199.622 64.4399 201.024C64.3255 202.425 64.7053 203.823 65.5135 204.973C66.3217 206.124 67.5072 206.955 68.8643 207.323C74.9921 209.228 81.3712 210.202 87.7882 210.212C94.1924 210.212 100.549 209.249 106.664 207.323C107.423 207.102 108.13 206.733 108.747 206.238C109.363 205.743 109.876 205.132 110.256 204.439C110.636 203.746 110.876 202.985 110.962 202.199C111.048 201.413 110.978 200.618 110.757 199.859C110.535 199.101 110.167 198.393 109.672 197.777C109.177 197.16 108.566 196.647 107.873 196.267C107.18 195.887 106.418 195.647 105.633 195.561C104.847 195.476 104.052 195.545 103.293 195.767C98.2764 197.349 93.0485 198.16 87.7882 198.174C82.5117 198.165 77.2672 197.353 72.235 195.767C71.457 195.524 70.6379 195.442 69.8274 195.526ZM-27.7773 198.174C-28.9354 198.178 -30.0678 198.517 -31.0385 199.149C-32.0091 199.781 -32.7769 200.679 -33.2496 201.736C-33.7224 202.794 -33.88 203.965 -33.7037 205.11C-33.5273 206.254 -33.0245 207.324 -32.2554 208.19C-29.3525 211.47 -27.1415 215.302 -25.7549 219.457C-25.3825 220.547 -24.7054 221.507 -23.8038 222.223C-22.9023 222.94 -21.8142 223.383 -20.6686 223.499C-19.523 223.616 -18.368 223.401 -17.3407 222.881C-16.3133 222.361 -15.4567 221.557 -14.8724 220.565C-13.9094 218.928 -13.8131 217.05 -14.3909 215.413C-16.2878 209.884 -19.2487 204.78 -23.1065 200.389C-23.6716 199.696 -24.384 199.138 -25.192 198.755C-25.9999 198.372 -26.8831 198.173 -27.7773 198.174ZM56.73 210.983C55.3437 211.045 54.0217 211.585 52.9878 212.511C51.9538 213.437 51.2715 214.691 51.0562 216.062C50.841 217.433 51.106 218.836 51.8065 220.034C52.507 221.232 53.5999 222.151 54.9002 222.635C65.286 227.12 76.4754 229.447 87.7882 229.473C99.1137 229.467 110.32 227.157 120.724 222.684C121.458 222.386 122.126 221.948 122.69 221.392C123.254 220.837 123.703 220.176 124.011 219.447C124.32 218.719 124.482 217.936 124.488 217.145C124.494 216.353 124.344 215.568 124.047 214.835C123.75 214.101 123.311 213.434 122.756 212.87C122.2 212.306 121.539 211.857 120.811 211.548C120.082 211.24 119.299 211.078 118.508 211.071C117.716 211.065 116.932 211.215 116.198 211.512C107.233 215.41 97.5637 217.426 87.7882 217.435C78.0127 217.426 68.3431 215.41 59.3783 211.512C58.5427 211.156 57.6377 210.991 56.73 211.031V210.983ZM-40.971 212.427C-42.0929 212.418 -43.1949 212.723 -44.1528 213.307C-45.1107 213.891 -45.8863 214.731 -46.3921 215.733C-46.8978 216.734 -47.1136 217.857 -47.015 218.975C-46.9165 220.092 -46.5075 221.16 -45.8344 222.058C-45.3288 222.768 -44.8934 223.526 -44.5342 224.321C-44.1991 225.039 -43.7259 225.683 -43.1416 226.218C-42.5573 226.753 -41.8734 227.167 -41.1289 227.438C-40.3844 227.708 -39.594 227.83 -38.8026 227.795C-38.0113 227.76 -37.2346 227.569 -36.5169 227.234C-35.7992 226.899 -35.1545 226.426 -34.6197 225.841C-34.0849 225.257 -33.6704 224.573 -33.3998 223.829C-33.1293 223.084 -33.0081 222.294 -33.0431 221.502C-33.078 220.711 -33.2685 219.934 -33.6037 219.217C-34.2765 217.78 -35.0826 216.41 -36.0113 215.124C-36.56 214.312 -37.2986 213.646 -38.1629 213.185C-39.0272 212.723 -39.9911 212.48 -40.971 212.475V212.427ZM521.159 223.791C519.562 223.791 518.031 224.425 516.902 225.554C515.774 226.683 515.139 228.214 515.139 229.81C515.139 231.407 515.774 232.937 516.902 234.066C518.031 235.195 519.562 235.829 521.159 235.829V223.791ZM-56.6686 223.791V235.829C-55.0723 235.829 -53.5413 235.195 -52.4125 234.066C-51.2837 232.937 -50.6496 231.407 -50.6496 229.81C-50.6496 228.214 -51.2837 226.683 -52.4125 225.554C-53.5413 224.425 -55.0723 223.791 -56.6686 223.791V223.791ZM376.702 230.147C365.392 230.158 354.203 232.468 343.814 236.937C343.064 237.219 342.379 237.648 341.797 238.199C341.216 238.75 340.75 239.412 340.427 240.145C340.105 240.878 339.932 241.668 339.919 242.469C339.905 243.27 340.052 244.065 340.35 244.808C340.648 245.552 341.091 246.228 341.654 246.798C342.217 247.368 342.888 247.82 343.627 248.127C344.367 248.435 345.161 248.591 345.962 248.588C346.763 248.585 347.555 248.421 348.292 248.108C357.256 244.209 366.926 242.193 376.702 242.185C386.477 242.185 396.155 244.256 405.112 248.156C405.848 248.45 406.636 248.596 407.429 248.586C408.222 248.576 409.005 248.409 409.734 248.096C410.463 247.783 411.123 247.33 411.677 246.762C412.23 246.194 412.666 245.522 412.96 244.786C413.254 244.049 413.401 243.261 413.39 242.468C413.38 241.675 413.214 240.892 412.901 240.163C412.588 239.434 412.134 238.774 411.566 238.221C410.998 237.667 410.326 237.231 409.59 236.937C399.197 232.485 388.008 230.191 376.702 230.195V230.147ZM503.15 231.688C502.166 231.76 501.215 232.072 500.38 232.598C499.546 233.123 498.853 233.846 498.363 234.702C497.873 235.558 497.601 236.521 497.571 237.507C497.541 238.493 497.753 239.471 498.19 240.356C498.846 241.791 499.636 243.161 500.549 244.448C500.994 245.114 501.567 245.685 502.235 246.127C502.903 246.568 503.652 246.872 504.439 247.021C505.226 247.169 506.035 247.159 506.818 246.991C507.6 246.824 508.342 246.501 508.999 246.043C509.656 245.585 510.214 245 510.642 244.323C511.07 243.647 511.359 242.891 511.491 242.102C511.624 241.312 511.597 240.504 511.413 239.724C511.23 238.945 510.892 238.21 510.421 237.563C509.895 236.839 509.443 236.065 509.072 235.251C508.571 234.121 507.733 233.172 506.673 232.535C505.614 231.897 504.383 231.602 503.15 231.688ZM444.163 232.459C443.33 232.521 442.519 232.756 441.782 233.149C441.044 233.542 440.397 234.084 439.881 234.741C439.364 235.397 438.99 236.154 438.783 236.964C438.575 237.773 438.538 238.616 438.674 239.441C439.992 250.686 443.579 261.547 449.219 271.366C454.892 281.154 462.493 289.689 471.562 296.453C472.82 297.436 474.417 297.88 476.001 297.685C477.586 297.491 479.029 296.676 480.012 295.418C480.996 294.16 481.439 292.563 481.245 290.978C481.051 289.393 480.235 287.95 478.977 286.967C471.109 281.146 464.52 273.771 459.62 265.298C454.753 256.832 451.672 247.458 450.567 237.755C450.385 236.218 449.619 234.811 448.426 233.824C447.233 232.838 445.707 232.349 444.163 232.459ZM484.178 235.974C483.236 236.038 482.322 236.323 481.511 236.805C480.699 237.288 480.013 237.954 479.507 238.751C479.001 239.548 478.689 240.453 478.597 241.392C478.505 242.332 478.635 243.28 478.977 244.16C480.86 249.684 483.804 254.788 487.645 259.183C488.142 259.829 488.766 260.368 489.478 260.766C490.19 261.164 490.976 261.413 491.787 261.498C492.598 261.583 493.418 261.502 494.198 261.26C494.977 261.019 495.699 260.621 496.319 260.092C496.94 259.562 497.447 258.913 497.809 258.181C498.17 257.45 498.38 256.653 498.424 255.839C498.469 255.024 498.347 254.209 498.067 253.443C497.786 252.677 497.353 251.976 496.793 251.382C493.894 248.1 491.683 244.268 490.293 240.115C489.879 238.843 489.052 237.746 487.945 236.996C486.838 236.246 485.512 235.886 484.178 235.974ZM464.339 236.359C463.454 236.421 462.593 236.678 461.819 237.112C461.044 237.546 460.376 238.145 459.86 238.868C459.345 239.59 458.996 240.418 458.838 241.291C458.679 242.164 458.716 243.061 458.946 243.919C460.355 250.17 462.692 256.176 465.88 261.735C469.093 267.279 473.119 272.31 477.822 276.662C478.666 277.499 479.74 278.068 480.907 278.295C482.074 278.523 483.282 278.4 484.379 277.941C485.477 277.483 486.413 276.71 487.072 275.719C487.73 274.729 488.08 273.566 488.078 272.377C488.078 270.643 487.356 269.006 486.152 267.947C478.347 260.768 472.92 251.377 470.599 241.03C470.29 239.616 469.482 238.362 468.324 237.495C467.165 236.628 465.734 236.208 464.291 236.311L464.339 236.359ZM42.0435 245.219C40.599 245.219 39.2507 245.7 38.1913 246.567C29.117 253.345 21.5155 261.896 15.8487 271.703C10.1921 281.517 6.58804 292.378 5.2552 303.628C5.14454 304.412 5.1894 305.21 5.38723 305.977C5.58506 306.743 5.93197 307.464 6.40817 308.096C6.88437 308.729 7.48053 309.262 8.1626 309.664C8.84467 310.066 9.5993 310.33 10.3834 310.441C11.1675 310.552 11.9657 310.507 12.7325 310.309C13.4993 310.111 14.2196 309.764 14.8523 309.288C15.485 308.812 16.0177 308.216 16.42 307.534C16.8223 306.852 17.0863 306.097 17.197 305.313C18.2943 295.593 21.3754 286.202 26.2496 277.722C31.1488 269.249 37.7376 261.873 45.6068 256.053C46.6142 255.298 47.3593 254.245 47.7372 253.044C48.1151 251.843 48.1068 250.553 47.7134 249.357C47.3199 248.161 46.5613 247.118 45.5442 246.376C44.527 245.634 43.3027 245.229 42.0435 245.219ZM376.702 249.408C370.297 249.408 363.941 250.371 357.826 252.297C357.067 252.519 356.359 252.887 355.743 253.382C355.127 253.877 354.614 254.488 354.234 255.181C353.854 255.874 353.614 256.636 353.528 257.421C353.442 258.207 353.512 259.002 353.733 259.761C353.954 260.52 354.323 261.227 354.818 261.844C355.313 262.46 355.924 262.973 356.617 263.353C357.31 263.733 358.071 263.973 358.857 264.059C359.643 264.145 360.438 264.075 361.197 263.854C366.213 262.271 371.441 261.459 376.702 261.446C381.998 261.446 387.199 262.313 392.207 263.854C393.366 264.224 394.609 264.233 395.774 263.882C396.939 263.531 397.97 262.835 398.731 261.886C399.492 260.937 399.948 259.78 400.038 258.566C400.129 257.353 399.849 256.141 399.237 255.09C398.435 253.711 397.119 252.707 395.577 252.297C389.465 250.397 383.103 249.423 376.702 249.408ZM48.6885 264.624C47.0514 264.624 45.5105 265.298 44.4511 266.406C39.7472 270.757 35.722 275.789 32.5094 281.333C29.3248 286.877 26.9876 292.866 25.5755 299.101C25.3857 299.87 25.3492 300.668 25.468 301.45C25.5867 302.233 25.8584 302.984 26.2676 303.661C26.6767 304.339 27.2152 304.929 27.8525 305.398C28.4897 305.867 29.2131 306.207 29.9814 306.396C30.7497 306.586 31.5478 306.623 32.3302 306.504C33.1126 306.385 33.864 306.113 34.5414 305.704C35.2188 305.295 35.809 304.757 36.2783 304.119C36.7476 303.482 37.0867 302.759 37.2765 301.99C38.4186 296.852 40.3344 291.916 42.9584 287.352C45.5921 282.785 48.9042 278.645 52.7815 275.073C53.6746 274.252 54.2985 273.18 54.5715 271.997C54.8445 270.815 54.7537 269.578 54.3111 268.448C53.8686 267.318 53.0949 266.348 52.0915 265.666C51.0881 264.984 49.9019 264.621 48.6885 264.624ZM376.702 268.669C373.813 268.669 370.875 268.958 368.034 269.536C366.801 269.727 365.658 270.296 364.763 271.165C363.867 272.034 363.264 273.16 363.037 274.387C362.809 275.614 362.969 276.881 363.493 278.013C364.018 279.146 364.881 280.087 365.964 280.707C367.312 281.478 368.805 281.67 370.201 281.381C374.491 280.507 378.913 280.507 383.202 281.381C383.98 281.527 384.779 281.518 385.553 281.354C386.327 281.191 387.062 280.877 387.715 280.43C388.367 279.983 388.926 279.411 389.358 278.748C389.79 278.085 390.087 277.344 390.233 276.566C390.378 275.788 390.369 274.989 390.206 274.215C390.042 273.441 389.728 272.706 389.281 272.054C388.834 271.401 388.262 270.842 387.6 270.41C386.937 269.978 386.195 269.681 385.417 269.536C382.547 268.962 379.628 268.672 376.702 268.669ZM58.945 281.67C57.067 281.67 55.3817 282.489 54.3223 283.837C50.4763 288.246 47.5317 293.367 45.6549 298.909C45.3335 299.664 45.1699 300.476 45.174 301.297C45.178 302.117 45.3498 302.928 45.6787 303.68C46.0076 304.431 46.4867 305.108 47.0866 305.667C47.6864 306.227 48.3944 306.658 49.167 306.934C49.9395 307.211 50.7604 307.326 51.5791 307.273C52.3979 307.221 53.1972 307.001 53.9281 306.628C54.6589 306.255 55.3058 305.737 55.829 305.105C56.3523 304.473 56.7408 303.741 56.9707 302.953C58.3551 298.783 60.566 294.934 63.4713 291.638C64.2431 290.769 64.7467 289.695 64.9214 288.546C65.0961 287.396 64.9343 286.221 64.4556 285.162C63.977 284.103 63.2019 283.205 62.224 282.577C61.2461 281.949 60.1073 281.617 58.945 281.622V281.67ZM376.702 287.882C375.931 287.882 375.113 287.882 374.342 288.026C373.546 288.084 372.769 288.3 372.057 288.661C371.345 289.022 370.712 289.521 370.195 290.129C369.678 290.737 369.286 291.442 369.044 292.202C368.802 292.963 368.713 293.764 368.783 294.559C368.854 295.354 369.081 296.128 369.453 296.834C369.825 297.54 370.334 298.166 370.95 298.673C371.566 299.181 372.277 299.561 373.041 299.792C373.805 300.023 374.608 300.099 375.402 300.016C376.282 299.929 377.169 299.929 378.05 300.016C378.84 300.083 379.636 299.993 380.392 299.751C381.148 299.51 381.848 299.123 382.454 298.611C383.06 298.099 383.559 297.473 383.923 296.768C384.287 296.063 384.508 295.293 384.575 294.503C384.641 293.712 384.551 292.917 384.31 292.161C384.069 291.405 383.681 290.704 383.169 290.099C382.657 289.493 382.031 288.994 381.326 288.63C380.621 288.266 379.852 288.045 379.061 287.978C378.277 287.91 377.489 287.878 376.702 287.882ZM72.1387 295.923C70.0681 295.923 68.2865 296.983 67.1309 298.572C66.2361 299.862 65.4624 301.232 64.8195 302.665C64.432 303.385 64.1954 304.177 64.1243 304.992C64.0532 305.808 64.149 306.629 64.406 307.405C64.6629 308.182 65.0755 308.899 65.6186 309.511C66.1617 310.123 66.8239 310.617 67.5647 310.965C68.3054 311.312 69.1093 311.505 69.9271 311.531C70.7449 311.558 71.5595 311.417 72.3211 311.118C73.0827 310.819 73.7753 310.367 74.3566 309.792C74.9379 309.216 75.3957 308.527 75.702 307.769C76.0728 306.955 76.5245 306.181 77.0502 305.457C77.6984 304.556 78.0848 303.494 78.1669 302.387C78.2489 301.28 78.0233 300.172 77.5151 299.186C77.0068 298.199 76.2356 297.372 75.2868 296.797C74.338 296.221 73.2485 295.919 72.1387 295.923ZM87.7882 307.239C86.1918 307.239 84.6609 307.873 83.5321 309.002C82.4033 310.131 81.7691 311.662 81.7691 313.258C81.7691 314.854 82.4033 316.385 83.5321 317.514C84.6609 318.643 86.1918 319.277 87.7882 319.277C89.3845 319.277 90.9155 318.643 92.0443 317.514C93.1731 316.385 93.8072 314.854 93.8072 313.258C93.8072 311.662 93.1731 310.131 92.0443 309.002C90.9155 307.873 89.3845 307.239 87.7882 307.239ZM377.135 307.239C375.539 307.13 373.965 307.661 372.759 308.713C371.554 309.765 370.815 311.252 370.707 312.849C370.598 314.445 371.128 316.019 372.18 317.225C373.232 318.43 374.72 319.169 376.316 319.277C377.107 319.331 377.9 319.228 378.651 318.976C379.402 318.723 380.096 318.324 380.693 317.804C381.289 317.283 381.778 316.649 382.13 315.94C382.482 315.23 382.691 314.458 382.745 313.667C382.799 312.877 382.696 312.084 382.443 311.333C382.19 310.582 381.792 309.888 381.271 309.291C380.75 308.694 380.117 308.206 379.407 307.854C378.698 307.502 377.926 307.293 377.135 307.239ZM105.749 315.136C104.522 315.053 103.299 315.35 102.248 315.988C101.196 316.626 100.367 317.573 99.8744 318.699C99.5033 319.513 99.0516 320.287 98.5261 321.011C98.0547 321.658 97.7171 322.393 97.5333 323.172C97.3494 323.951 97.3229 324.76 97.4553 325.549C97.5877 326.339 97.8764 327.095 98.3044 327.771C98.7324 328.448 99.2911 329.033 99.9479 329.491C100.605 329.949 101.346 330.271 102.129 330.439C102.912 330.607 103.721 330.617 104.508 330.469C105.294 330.32 106.044 330.016 106.712 329.575C107.38 329.133 107.953 328.562 108.397 327.896C109.322 326.607 110.128 325.238 110.805 323.803C111.244 322.912 111.455 321.926 111.42 320.933C111.385 319.94 111.105 318.971 110.604 318.112C110.103 317.254 109.398 316.533 108.551 316.014C107.704 315.494 106.741 315.193 105.749 315.136ZM164.735 315.858C163.19 315.75 161.662 316.247 160.476 317.245C159.29 318.242 158.538 319.662 158.379 321.203C157.267 330.926 154.17 340.318 149.279 348.794C144.392 357.262 137.82 364.637 129.97 370.463C129.347 370.95 128.826 371.555 128.437 372.243C128.048 372.931 127.798 373.689 127.702 374.474C127.606 375.259 127.665 376.055 127.876 376.816C128.088 377.578 128.447 378.291 128.934 378.914C129.421 379.537 130.026 380.057 130.714 380.447C131.402 380.836 132.161 381.085 132.945 381.182C133.73 381.278 134.526 381.218 135.288 381.007C136.049 380.795 136.762 380.436 137.385 379.949C146.459 373.172 154.061 364.62 159.728 354.813C165.384 344.999 168.988 334.138 170.321 322.889C170.465 322.053 170.431 321.197 170.221 320.376C170.011 319.554 169.629 318.787 169.102 318.123C168.575 317.459 167.913 316.915 167.161 316.524C166.408 316.134 165.582 315.907 164.735 315.858ZM124.769 319.422C123.425 319.315 122.084 319.666 120.965 320.417C119.846 321.169 119.015 322.278 118.606 323.563C117.217 327.717 115.006 331.548 112.105 334.83C111.545 335.424 111.112 336.125 110.832 336.891C110.552 337.657 110.43 338.472 110.474 339.287C110.519 340.101 110.728 340.898 111.09 341.629C111.452 342.36 111.958 343.01 112.579 343.54C113.2 344.069 113.922 344.466 114.701 344.708C115.48 344.95 116.3 345.031 117.111 344.946C117.923 344.861 118.708 344.612 119.42 344.214C120.133 343.816 120.756 343.277 121.254 342.631C125.099 338.239 128.043 333.134 129.921 327.607C130.263 326.728 130.394 325.78 130.302 324.84C130.21 323.901 129.898 322.996 129.392 322.199C128.886 321.402 128.199 320.736 127.388 320.253C126.576 319.771 125.663 319.486 124.721 319.422H124.769ZM144.608 319.807C143.171 319.706 141.745 320.128 140.595 320.995C139.445 321.862 138.647 323.116 138.348 324.526C137.176 329.67 135.227 334.606 132.57 339.164C129.947 343.711 126.652 347.834 122.795 351.395C121.905 352.213 121.282 353.281 121.008 354.459C120.733 355.637 120.82 356.87 121.256 357.998C121.693 359.125 122.459 360.095 123.455 360.781C124.451 361.468 125.63 361.838 126.84 361.844C128.525 361.844 130.018 361.17 131.125 360.11C135.811 355.755 139.82 350.724 143.019 345.183C146.245 339.597 148.556 333.626 150.001 327.367C150.23 326.509 150.267 325.612 150.109 324.739C149.951 323.865 149.602 323.038 149.086 322.315C148.571 321.593 147.902 320.993 147.128 320.56C146.354 320.126 145.493 319.869 144.608 319.807ZM374.439 326.404C373.648 326.397 372.864 326.547 372.132 326.843C371.399 327.14 370.732 327.578 370.168 328.133C369.605 328.687 369.156 329.347 368.848 330.075C368.54 330.803 368.378 331.584 368.371 332.375C368.365 333.165 368.514 333.949 368.811 334.682C369.108 335.414 369.546 336.081 370.1 336.645C370.655 337.208 371.315 337.657 372.043 337.965C372.77 338.273 373.552 338.435 374.342 338.442C375.912 338.591 377.492 338.591 379.061 338.442C379.852 338.372 380.621 338.148 381.324 337.781C382.028 337.414 382.652 336.912 383.162 336.304C383.672 335.696 384.057 334.994 384.295 334.237C384.533 333.48 384.62 332.683 384.551 331.893C384.481 331.103 384.256 330.334 383.89 329.63C383.523 328.926 383.021 328.302 382.413 327.792C381.805 327.282 381.102 326.897 380.346 326.659C379.589 326.421 378.792 326.334 378.002 326.404C377.121 326.494 376.234 326.494 375.353 326.404C375.033 326.378 374.711 326.378 374.39 326.404H374.439ZM278.038 328.667C276.766 328.663 275.526 329.062 274.495 329.807C273.465 330.552 272.696 331.604 272.301 332.813C271.905 334.021 271.902 335.324 272.293 336.534C272.683 337.745 273.447 338.8 274.474 339.549C282.308 345.38 288.863 352.755 293.735 361.218C298.632 369.678 301.746 379.052 302.884 388.761C302.946 389.582 303.176 390.382 303.56 391.11C303.943 391.839 304.473 392.481 305.114 392.997C305.756 393.514 306.497 393.892 307.291 394.111C308.085 394.329 308.915 394.382 309.731 394.266C310.546 394.151 311.329 393.869 312.031 393.439C312.733 393.009 313.34 392.439 313.813 391.765C314.286 391.091 314.616 390.327 314.782 389.52C314.948 388.714 314.946 387.882 314.778 387.075C313.446 375.826 309.842 364.964 304.184 355.151C298.512 345.362 290.911 336.827 281.842 330.063C280.763 329.158 279.398 328.663 277.99 328.667H278.038ZM369.094 345.039C367.587 345.03 366.133 345.586 365.016 346.597C363.9 347.609 363.204 349.002 363.065 350.502C362.926 352.001 363.354 353.499 364.265 354.698C365.176 355.898 366.504 356.712 367.986 356.98C373.709 358.111 379.598 358.111 385.321 356.98C386.117 356.861 386.88 356.583 387.566 356.163C388.253 355.743 388.848 355.19 389.317 354.537C389.786 353.883 390.119 353.142 390.296 352.357C390.474 351.573 390.492 350.76 390.351 349.968C390.209 349.177 389.91 348.421 389.472 347.747C389.033 347.072 388.464 346.493 387.797 346.042C387.131 345.591 386.381 345.279 385.592 345.123C384.802 344.967 383.99 344.971 383.202 345.135C378.913 346.009 374.491 346.009 370.201 345.135C369.837 345.052 369.467 345.004 369.094 344.99V345.039ZM271.345 348.12C270.131 348.117 268.945 348.48 267.942 349.162C266.938 349.845 266.165 350.814 265.722 351.944C265.279 353.074 265.189 354.311 265.462 355.493C265.735 356.676 266.359 357.748 267.252 358.569C271.104 362.133 274.474 366.274 277.075 370.8C279.72 375.376 281.652 380.328 282.805 385.486C283.066 386.668 283.678 387.744 284.561 388.573C285.443 389.402 286.555 389.945 287.751 390.132C288.947 390.319 290.171 390.142 291.265 389.622C292.358 389.103 293.27 388.265 293.88 387.22C294.698 385.775 294.843 384.138 294.506 382.645C293.082 376.391 290.728 370.386 287.524 364.829C284.325 359.288 280.316 354.257 275.63 349.902C275.065 349.345 274.396 348.905 273.66 348.607C272.925 348.31 272.138 348.161 271.345 348.168V348.12ZM358.741 362.422C357.342 362.564 356.037 363.192 355.053 364.197C354.069 365.201 353.468 366.518 353.353 367.92C353.239 369.321 353.619 370.718 354.427 371.869C355.235 373.02 356.421 373.851 357.778 374.219C363.905 376.125 370.285 377.098 376.702 377.108C383.106 377.108 389.462 376.145 395.529 374.219C397.062 373.772 398.354 372.734 399.121 371.335C399.889 369.935 400.069 368.288 399.622 366.755C399.175 365.223 398.138 363.931 396.738 363.163C395.338 362.395 393.691 362.215 392.159 362.662C387.142 364.244 381.914 365.056 376.654 365.07C371.405 365.07 366.156 364.251 361.149 362.662C360.371 362.42 359.551 362.338 358.741 362.422ZM261.136 365.118C259.978 365.122 258.846 365.461 257.875 366.093C256.904 366.724 256.137 367.623 255.664 368.68C255.191 369.738 255.034 370.909 255.21 372.053C255.386 373.198 255.889 374.268 256.658 375.134C259.559 378.415 261.77 382.247 263.159 386.401C263.531 387.491 264.208 388.451 265.11 389.167C266.011 389.884 267.099 390.327 268.245 390.443C269.391 390.56 270.546 390.345 271.573 389.825C272.6 389.305 273.457 388.501 274.041 387.509C275.004 385.92 275.1 384.042 274.523 382.405C272.635 376.857 269.673 371.736 265.807 367.333C265.242 366.64 264.53 366.082 263.722 365.699C262.914 365.315 262.03 365.117 261.136 365.118ZM345.644 377.927C344.257 377.989 342.935 378.529 341.901 379.455C340.867 380.38 340.185 381.635 339.97 383.006C339.755 384.377 340.02 385.78 340.72 386.978C341.421 388.176 342.513 389.095 343.814 389.579C354.203 394.048 365.392 396.358 376.702 396.369C388.027 396.364 399.234 394.054 409.638 389.579C410.371 389.282 411.039 388.843 411.603 388.288C412.167 387.733 412.616 387.072 412.925 386.343C413.233 385.614 413.395 384.832 413.401 384.04C413.407 383.249 413.258 382.464 412.96 381.731C412.663 380.997 412.224 380.329 411.669 379.765C411.114 379.201 410.453 378.752 409.724 378.444C408.995 378.135 408.213 377.973 407.421 377.967C406.63 377.961 405.845 378.111 405.112 378.408C396.147 382.307 386.477 384.323 376.702 384.331C366.975 384.331 357.248 382.308 348.34 378.408C347.49 378.044 346.567 377.879 345.644 377.927ZM247.943 379.419C246.837 379.423 245.754 379.732 244.812 380.311C243.87 380.891 243.106 381.718 242.603 382.703C242.101 383.688 241.88 384.793 241.963 385.895C242.047 386.998 242.433 388.056 243.079 388.953C243.586 389.68 244.022 390.454 244.379 391.265C244.826 392.286 245.548 393.164 246.465 393.799C247.382 394.434 248.457 394.803 249.57 394.862C250.684 394.922 251.792 394.672 252.772 394.138C253.751 393.605 254.563 392.81 255.117 391.843C256.128 390.013 256.128 387.894 255.31 386.161C254.632 384.742 253.826 383.388 252.902 382.116C252.359 381.295 251.623 380.62 250.758 380.15C249.894 379.68 248.927 379.429 247.943 379.419ZM231.86 390.687C230.331 390.797 228.902 391.486 227.865 392.614C226.827 393.741 226.258 395.222 226.274 396.754H238.312C238.321 395.922 238.157 395.097 237.831 394.331C237.505 393.565 237.023 392.875 236.417 392.305C235.81 391.735 235.092 391.297 234.308 391.018C233.524 390.74 232.69 390.627 231.86 390.687Z" fill="white"/>
<path d="M33.6169 62.8663C33.6169 64.4626 34.251 65.9936 35.3798 67.1224C36.5086 68.2512 38.0396 68.8853 39.6359 68.8853C41.2323 68.8853 42.7632 68.2512 43.892 67.1224C45.0208 65.9936 45.6549 64.4626 45.6549 62.8663H33.6169ZM418.835 62.8663C418.835 64.4626 419.469 65.9936 420.598 67.1224C421.727 68.2512 423.258 68.8853 424.854 68.8853C426.45 68.8853 427.981 68.2512 429.11 67.1224C430.239 65.9936 430.873 64.4626 430.873 62.8663H418.835ZM280.975 63.2033C266.204 63.0805 251.671 66.9217 238.89 74.3265C226.277 81.648 215.803 92.1474 208.511 104.778C201.22 117.409 197.367 131.73 197.335 146.314C197.321 159.271 200.341 172.051 206.152 183.631C211.963 195.212 220.405 205.272 230.8 213.005C231.423 213.492 232.136 213.851 232.898 214.063C233.659 214.274 234.455 214.334 235.24 214.238C236.025 214.141 236.783 213.892 237.471 213.503C238.159 213.113 238.764 212.593 239.251 211.97C239.738 211.347 240.097 210.634 240.309 209.872C240.52 209.111 240.58 208.315 240.484 207.53C240.388 206.745 240.138 205.987 239.749 205.299C239.36 204.611 238.839 204.006 238.216 203.519C229.26 196.913 221.983 188.293 216.973 178.356C211.962 168.419 209.359 157.443 209.373 146.314C209.399 133.851 212.689 121.612 218.915 110.815C225.141 100.019 234.087 91.0408 244.861 84.7756C254.492 79.2043 265.299 75.9787 276.409 75.3596C287.518 74.7406 298.617 76.7456 308.807 81.2123C309.973 81.7261 311.272 81.8564 312.517 81.5846C313.763 81.3128 314.889 80.6528 315.735 79.6998C316.581 78.7467 317.103 77.5497 317.225 76.2812C317.347 75.0128 317.064 73.7382 316.415 72.6412C315.705 71.4374 314.599 70.5181 313.285 70.041C303.093 65.6395 292.125 63.315 281.023 63.2033H280.975ZM-9.09418 63.2033C-20.2153 63.3238 -31.2004 65.6649 -41.4043 70.0891C-42.2287 70.3089 -42.9968 70.7014 -43.6579 71.2406C-44.319 71.7798 -44.8579 72.4534 -45.239 73.2167C-45.62 73.98 -45.8344 74.8156 -45.868 75.6681C-45.9015 76.5205 -45.7535 77.3704 -45.4337 78.1613C-45.1139 78.9522 -44.6296 79.666 -44.013 80.2556C-43.3964 80.8451 -42.6614 81.2968 -41.857 81.5808C-41.0525 81.8647 -40.1969 81.9744 -39.3468 81.9026C-38.4967 81.8308 -37.6716 81.5791 -36.9262 81.1641C-26.7422 76.7054 -15.6522 74.7047 -4.55211 75.3237C6.54795 75.9426 17.3468 79.164 26.9719 84.7274C37.7549 90.9866 46.7098 99.9617 52.9447 110.759C59.1797 121.556 62.477 133.798 62.5082 146.266C62.5219 157.395 59.9184 168.371 54.9081 178.308C49.8977 188.245 42.6208 196.865 33.665 203.471C33.0422 203.958 32.5213 204.563 32.1322 205.251C31.7431 205.939 31.4933 206.697 31.3972 207.482C31.3011 208.267 31.3604 209.063 31.5719 209.824C31.7834 210.586 32.1429 211.299 32.6298 211.922C33.1167 212.544 33.7215 213.065 34.4097 213.454C35.0979 213.844 35.856 214.093 36.6407 214.189C37.4254 214.286 38.2214 214.226 38.9832 214.015C39.745 213.803 40.4576 213.444 41.0805 212.957C51.4762 205.223 59.9174 195.164 65.7286 183.583C71.5398 172.003 74.5596 159.223 74.5463 146.266C74.4891 131.706 70.6236 117.415 63.3336 104.812C56.0437 92.2086 45.583 81.732 32.9909 74.4228C20.2193 66.9843 5.68542 63.1097 -9.09418 63.2033ZM406.845 64.7924C405.861 64.8641 404.91 65.1764 404.076 65.7019C403.241 66.2274 402.548 66.95 402.058 67.8061C401.569 68.6621 401.297 69.6255 401.266 70.6113C401.236 71.5972 401.449 72.5753 401.885 73.4598C404.055 78.2272 407.657 82.1995 412.19 84.8237C416.036 87.0331 420.394 88.1957 424.83 88.1957C429.266 88.1957 433.624 87.0331 437.47 84.8237C442.021 82.2073 445.64 78.2342 447.823 73.4598C448.499 72.0103 448.573 70.3513 448.026 68.8477C447.48 67.3442 446.359 66.1193 444.909 65.4424C443.46 64.7656 441.801 64.6922 440.297 65.2386C438.794 65.7849 437.569 66.9061 436.892 68.3556C435.821 70.6447 434.12 72.581 431.988 73.9375C429.856 75.294 427.381 76.0145 424.854 76.0145C422.327 76.0145 419.852 75.294 417.72 73.9375C415.588 72.581 413.887 70.6447 412.816 68.3556C412.312 67.217 411.466 66.2628 410.397 65.6246C409.328 64.9864 408.087 64.6956 406.845 64.7924ZM347.859 65.4665C347.016 65.5217 346.195 65.7534 345.449 66.1465C344.702 66.5396 344.046 67.0853 343.524 67.7482C343.002 68.4112 342.625 69.1765 342.418 69.9946C342.21 70.8126 342.177 71.6651 342.321 72.4967C343.808 85.3686 348.288 97.7133 355.404 108.542C362.52 119.37 372.073 128.382 383.299 134.854C395.934 142.121 410.254 145.945 424.83 145.945C439.406 145.945 453.726 142.121 466.361 134.854C477.587 128.382 487.14 119.37 494.256 108.542C501.372 97.7133 505.852 85.3686 507.339 72.4967C507.507 71.6906 507.509 70.8585 507.343 70.0519C507.177 69.2453 506.847 68.4814 506.374 67.8073C505.901 67.1333 505.294 66.5635 504.592 66.1332C503.89 65.7029 503.107 65.4213 502.292 65.3058C501.476 65.1902 500.646 65.2432 499.852 65.4615C499.058 65.6798 498.317 66.0587 497.675 66.5748C497.033 67.0908 496.504 67.7331 496.121 68.4618C495.737 69.1905 495.507 69.9902 495.445 70.8114C494.205 81.8711 490.382 92.4843 484.285 101.794C478.187 111.104 469.985 118.849 460.342 124.405C449.537 130.615 437.293 133.883 424.83 133.883C412.367 133.883 400.123 130.615 389.318 124.405C379.684 118.844 371.491 111.096 365.402 101.786C359.313 92.477 355.497 81.8667 354.263 70.8114C354.081 69.2745 353.314 67.8667 352.122 66.8803C350.929 65.894 349.402 65.4049 347.859 65.5146V65.4665ZM387.873 69.0298C386.931 69.094 386.018 69.3789 385.206 69.8614C384.395 70.3439 383.708 71.0104 383.202 71.8072C382.696 72.604 382.384 73.5088 382.292 74.4483C382.2 75.3878 382.331 76.3358 382.673 77.2156C386.147 87.4203 393.216 96.0122 402.56 101.388C409.335 105.283 417.014 107.333 424.83 107.333C432.646 107.333 440.325 105.283 447.1 101.388C456.462 95.9887 463.533 87.3598 466.987 77.1193C467.324 76.3606 467.501 75.5403 467.506 74.71C467.511 73.8797 467.344 73.0574 467.015 72.2948C466.687 71.5322 466.204 70.8458 465.598 70.2787C464.991 69.7116 464.274 69.2761 463.491 68.9996C462.708 68.723 461.877 68.6115 461.049 68.6719C460.221 68.7324 459.414 68.9635 458.68 69.3507C457.945 69.738 457.299 70.273 456.781 70.9221C456.263 71.5713 455.886 72.3205 455.671 73.1227C453.153 80.6474 447.962 86.9868 441.081 90.939C436.137 93.7824 430.533 95.2787 424.83 95.2787C419.126 95.2787 413.523 93.7824 408.579 90.939C401.698 86.9868 396.507 80.6474 393.988 73.1227C393.574 71.8512 392.748 70.7538 391.641 70.004C390.533 69.2541 389.208 68.8944 387.873 68.9816V69.0298ZM368.034 69.415C367.149 69.4771 366.288 69.7343 365.514 70.168C364.74 70.6017 364.071 71.2012 363.556 71.9237C363.04 72.6462 362.691 73.4737 362.533 74.3469C362.375 75.2202 362.412 76.1176 362.641 76.9749C364.577 85.5617 368.272 93.6539 373.493 100.74C378.715 107.827 385.349 113.753 392.977 118.145C402.678 123.712 413.669 126.642 424.854 126.642C436.039 126.642 447.03 123.712 456.731 118.145C464.359 113.753 470.993 107.827 476.215 100.74C481.436 93.6539 485.131 85.5617 487.067 76.9749C487.45 75.4232 487.201 73.7829 486.375 72.4149C485.548 71.0468 484.212 70.0629 482.661 69.6798C481.109 69.2967 479.469 69.5457 478.101 70.3719C476.733 71.1982 475.749 72.5341 475.366 74.0857C473.816 81.0931 470.823 87.7007 466.579 93.4874C462.334 99.2742 456.93 104.113 450.712 107.696C442.838 112.225 433.913 114.609 424.83 114.609C415.746 114.609 406.822 112.225 398.948 107.696C392.735 104.118 387.334 99.2869 383.09 93.5088C378.846 87.7308 375.85 81.1325 374.294 74.1339C373.986 72.7293 373.186 71.4812 372.038 70.6157C370.89 69.7501 369.469 69.3242 368.034 69.415ZM518.751 78.275C517.479 78.2714 516.239 78.6707 515.208 79.4155C514.178 80.1603 513.409 81.2125 513.014 82.421C512.618 83.6295 512.615 84.9324 513.006 86.1426C513.396 87.3528 514.16 88.4082 515.188 89.1574C517.258 90.6983 519.281 92.3355 521.159 94.1171V78.7565C520.436 78.4195 519.618 78.2268 518.751 78.2268V78.275ZM138.348 78.275C136.903 78.275 135.555 78.7565 134.496 79.6714C124.107 87.4 115.669 97.4519 109.859 109.023C104.048 120.595 101.024 133.365 101.03 146.314C101.057 160.894 104.903 175.212 112.186 187.842C119.468 200.472 129.933 210.974 142.537 218.302C153.744 224.79 166.316 228.562 179.244 229.315C192.172 230.068 205.096 227.78 216.981 222.635C217.714 222.338 218.382 221.9 218.946 221.344C219.51 220.789 219.959 220.128 220.267 219.399C220.576 218.67 220.738 217.888 220.744 217.096C220.75 216.305 220.6 215.52 220.303 214.787C220.006 214.053 219.567 213.385 219.012 212.821C218.457 212.257 217.796 211.808 217.067 211.5C216.338 211.191 215.556 211.029 214.764 211.023C213.973 211.017 213.188 211.167 212.454 211.464C202.267 215.916 191.175 217.908 180.075 217.281C168.974 216.654 158.178 213.424 148.556 207.853C137.782 201.587 128.837 192.61 122.611 181.813C116.384 171.016 113.094 158.777 113.068 146.314C113.062 135.194 115.669 124.227 120.679 114.299C125.689 104.371 132.962 95.7589 141.911 89.1574C142.942 88.4058 143.708 87.346 144.097 86.1311C144.487 84.9161 144.48 83.6088 144.078 82.3979C143.676 81.1869 142.9 80.135 141.861 79.394C140.823 78.6529 139.576 78.2611 138.3 78.275H138.348ZM-56.6686 78.8047V94.1652C-49.4458 100.815 -43.6831 108.892 -39.7459 117.886C-35.8086 126.879 -33.7826 136.593 -33.7963 146.41C-33.7963 166.394 -42.3192 185.317 -56.6686 198.656V214.161C-45.8904 206.449 -37.1027 196.282 -31.0322 184.501C-24.9617 172.72 -21.7827 159.663 -21.7582 146.41C-21.7449 133.454 -24.7647 120.674 -30.5759 109.093C-36.3871 97.5126 -44.8283 87.4531 -55.224 79.7196C-55.6626 79.3644 -56.1488 79.0726 -56.6686 78.8528V78.8047ZM280.253 82.5124C269.094 82.5078 258.131 85.4478 248.472 91.0353C238.794 96.6626 230.758 104.727 225.165 114.426C219.572 124.124 216.618 135.119 216.595 146.314C216.586 155.114 218.399 163.82 221.922 171.883C225.444 179.947 230.598 187.194 237.06 193.166C237.902 194.001 238.971 194.568 240.134 194.797C241.296 195.026 242.501 194.907 243.596 194.455C244.691 194.002 245.629 193.236 246.29 192.253C246.952 191.27 247.309 190.114 247.317 188.929C247.317 187.147 246.594 185.558 245.391 184.499C240.098 179.648 235.874 173.747 232.989 167.172C230.104 160.598 228.62 153.494 228.634 146.314C228.655 137.235 231.053 128.319 235.59 120.454C240.126 112.589 246.643 106.049 254.491 101.484C260.696 97.8836 267.584 95.6169 274.714 94.8292C281.845 94.0415 289.061 94.7502 295.902 96.9099C297.435 97.3569 299.082 97.1768 300.482 96.4092C301.881 95.6416 302.919 94.3495 303.366 92.817C303.813 91.2845 303.633 89.6372 302.865 88.2375C302.098 86.8378 300.805 85.8004 299.273 85.3534C293.114 83.4381 286.702 82.4641 280.253 82.4642V82.5124ZM-8.37189 82.5124C-14.8212 82.5122 -21.2336 83.4863 -27.392 85.4015C-28.1508 85.6229 -28.8586 85.9915 -29.475 86.4863C-30.0914 86.9812 -30.6042 87.5926 -30.9843 88.2857C-31.3643 88.9787 -31.6042 89.7398 -31.6901 90.5256C-31.776 91.3113 -31.7063 92.1063 -31.485 92.8651C-31.2637 93.6239 -30.895 94.3317 -30.4002 94.9481C-29.9053 95.5645 -29.2939 96.0773 -28.6009 96.4574C-27.9078 96.8374 -27.1467 97.0773 -26.3609 97.1632C-25.5752 97.2491 -24.7802 97.1794 -24.0214 96.9581C-17.1836 94.7912 -9.96899 94.0745 -2.83855 94.8539C4.2919 95.6333 11.1814 97.8915 17.3896 101.484C25.245 106.053 31.766 112.601 36.3029 120.475C40.8398 128.349 43.2341 137.275 43.2473 146.362C43.2539 153.534 41.7674 160.628 38.8825 167.194C35.9975 173.76 31.7773 179.653 26.4903 184.499C25.8725 185.033 25.37 185.688 25.0134 186.423C24.6567 187.158 24.4534 187.958 24.4159 188.774C24.3783 189.59 24.5073 190.405 24.7949 191.17C25.0825 191.935 25.5228 192.633 26.0889 193.222C26.655 193.811 27.3351 194.278 28.0877 194.596C28.8403 194.914 29.6497 195.075 30.4667 195.07C31.2836 195.064 32.0909 194.893 32.8395 194.566C33.588 194.239 34.2621 193.762 34.8207 193.166C41.2826 187.194 46.4371 179.947 49.9593 171.883C53.4815 163.82 55.295 155.114 55.2854 146.314C55.2582 135.114 52.2963 124.116 46.6948 114.417C41.0934 104.718 33.048 96.6565 23.3605 91.0353C13.7342 85.4473 2.80683 82.4912 -8.32374 82.4642L-8.37189 82.5124ZM512.058 97.7285C510.848 97.7345 509.669 98.1047 508.673 98.7907C507.677 99.4767 506.911 100.447 506.475 101.575C506.038 102.702 505.951 103.936 506.226 105.113C506.5 106.291 507.123 107.359 508.013 108.178C513.793 113.504 518.288 120.073 521.159 127.39V104.47C519.644 102.731 518.036 101.076 516.343 99.5101C515.782 98.9443 515.115 98.4955 514.379 98.1897C513.643 97.8838 512.854 97.7271 512.058 97.7285ZM144.993 97.7285C143.356 97.7285 141.815 98.4026 140.756 99.5101C134.3 105.477 129.149 112.716 125.627 120.771C122.105 128.826 120.288 137.523 120.291 146.314C120.305 157.518 123.255 168.522 128.849 178.23C134.442 187.938 142.482 196.01 152.168 201.641C159.781 206.053 168.227 208.836 176.972 209.814C185.716 210.792 194.569 209.944 202.968 207.323C204.131 207.023 205.178 206.382 205.973 205.482C206.769 204.582 207.277 203.465 207.432 202.274C207.588 201.083 207.383 199.872 206.845 198.799C206.307 197.725 205.46 196.837 204.413 196.248C203.687 195.839 202.885 195.585 202.056 195.502C201.227 195.419 200.39 195.509 199.598 195.767C192.757 197.926 185.54 198.635 178.41 197.847C171.279 197.06 164.391 194.793 158.187 191.192C150.331 186.623 143.81 180.075 139.273 172.201C134.737 164.327 132.342 155.402 132.329 146.314C132.322 139.143 133.809 132.048 136.694 125.482C139.579 118.917 143.799 113.023 149.086 108.178C149.979 107.356 150.603 106.284 150.876 105.102C151.149 103.919 151.058 102.682 150.616 101.552C150.173 100.422 149.399 99.4527 148.396 98.7704C147.393 98.088 146.206 97.7248 144.993 97.7285ZM281.264 101.773C273.158 101.611 265.164 103.676 258.151 107.744C251.392 111.669 245.778 117.294 241.867 124.06C237.956 130.827 235.884 138.499 235.856 146.314C235.856 157.582 239.997 167.886 246.883 175.687C247.381 176.333 248.005 176.872 248.717 177.27C249.429 177.668 250.214 177.917 251.026 178.002C251.837 178.087 252.657 178.006 253.436 177.764C254.215 177.523 254.937 177.125 255.558 176.596C256.179 176.066 256.685 175.417 257.047 174.685C257.409 173.954 257.619 173.157 257.663 172.343C257.707 171.528 257.586 170.713 257.305 169.947C257.025 169.181 256.592 168.48 256.032 167.886C250.749 161.943 247.836 154.266 247.846 146.314C247.846 134.758 254.106 123.971 264.122 118.193C271 114.2 279.108 112.88 286.898 114.486C287.676 114.628 288.474 114.615 289.247 114.449C290.02 114.283 290.753 113.966 291.403 113.517C292.054 113.068 292.609 112.494 293.038 111.83C293.468 111.166 293.762 110.424 293.904 109.646C294.046 108.868 294.034 108.07 293.868 107.297C293.702 106.524 293.385 105.791 292.935 105.141C292.486 104.49 291.913 103.935 291.249 103.505C290.585 103.076 289.842 102.782 289.065 102.64C286.495 102.12 283.885 101.83 281.264 101.773ZM-9.43124 101.773C-12.0315 101.821 -14.6317 102.11 -17.1838 102.64C-17.9615 102.782 -18.7037 103.076 -19.3678 103.505C-20.0319 103.935 -20.6051 104.49 -21.0544 105.141C-21.5038 105.791 -21.8206 106.524 -21.9868 107.297C-22.153 108.07 -22.1653 108.868 -22.0231 109.646C-21.8808 110.424 -21.5867 111.166 -21.1576 111.83C-20.7285 112.494 -20.1728 113.068 -19.5222 113.517C-18.8717 113.966 -18.1389 114.283 -17.3659 114.449C-16.5929 114.615 -15.7947 114.628 -15.0169 114.486C-7.24261 112.893 0.845974 114.212 7.71096 118.193C12.6497 121.056 16.7516 125.163 19.6074 130.106C22.4632 135.049 23.9731 140.654 23.9864 146.362C23.9864 154.596 20.9047 162.156 15.8005 167.935C15.0315 168.801 14.5286 169.87 14.3523 171.015C14.1759 172.159 14.3336 173.331 14.8063 174.388C15.2791 175.445 16.0468 176.344 17.0175 176.976C17.9882 177.607 19.1205 177.946 20.2787 177.95C22.2048 177.95 23.8901 177.083 24.9495 175.687C32.0949 167.571 36.033 157.127 36.0245 146.314C35.9972 138.499 33.925 130.827 30.0138 124.06C26.1026 117.294 20.4887 111.669 13.73 107.744C6.71713 103.676 -1.27752 101.611 -9.38309 101.773H-9.43124ZM-56.6686 104.47V127.294C-51.8309 139.513 -51.8309 153.116 -56.6686 165.334L-56.6686 188.207C-46.5877 176.577 -41.0323 161.705 -41.0191 146.314C-41.0121 130.948 -46.5716 116.1 -56.6686 104.518V104.47ZM501.801 114.726C500.643 114.731 499.511 115.069 498.54 115.701C497.569 116.333 496.802 117.231 496.329 118.288C495.856 119.346 495.699 120.517 495.875 121.662C496.051 122.806 496.554 123.876 497.323 124.742C502.606 130.685 505.519 138.363 505.509 146.314C505.509 157.871 499.249 168.705 489.234 174.483C482.369 178.464 474.28 179.784 466.506 178.191C465.728 178.046 464.929 178.055 464.155 178.218C463.381 178.381 462.646 178.695 461.993 179.143C461.34 179.59 460.782 180.161 460.35 180.824C459.918 181.487 459.621 182.228 459.475 183.006C459.33 183.784 459.339 184.583 459.502 185.357C459.666 186.131 459.98 186.866 460.427 187.519C460.874 188.171 461.446 188.73 462.108 189.162C462.771 189.594 463.513 189.891 464.291 190.036C474.547 192.059 485.526 190.518 495.253 184.932C502.018 181.004 507.637 175.371 511.548 168.595C515.46 161.82 517.528 154.138 517.547 146.314C517.547 135.095 513.358 124.79 506.472 116.941C505.912 116.255 505.207 115.7 504.408 115.317C503.609 114.934 502.736 114.732 501.849 114.726H501.801ZM155.249 114.726C153.372 114.726 151.686 115.593 150.627 116.941C143.481 125.057 139.543 135.501 139.552 146.314C139.566 154.133 141.627 161.812 145.53 168.587C149.433 175.362 155.041 180.998 161.798 184.932C171.15 190.354 182.162 192.17 192.76 190.036C193.538 189.894 194.28 189.6 194.944 189.171C195.608 188.742 196.181 188.186 196.631 187.536C197.08 186.885 197.397 186.152 197.563 185.379C197.729 184.606 197.742 183.808 197.599 183.03C197.457 182.252 197.163 181.51 196.734 180.846C196.305 180.182 195.749 179.609 195.099 179.16C194.448 178.71 193.715 178.393 192.942 178.227C192.169 178.061 191.371 178.049 190.593 178.191C182.804 179.796 174.696 178.476 167.817 174.483C162.887 171.615 158.795 167.504 155.948 162.562C153.101 157.62 151.598 152.018 151.59 146.314C151.59 138.08 154.672 130.52 159.776 124.742C160.548 123.873 161.051 122.799 161.226 121.65C161.401 120.501 161.239 119.326 160.76 118.266C160.282 117.207 159.506 116.309 158.529 115.681C157.551 115.053 156.412 114.721 155.249 114.726ZM280.879 121.034C276.401 120.938 271.874 121.997 267.781 124.405C263.941 126.633 260.752 129.828 258.53 133.672C256.308 137.516 255.131 141.874 255.117 146.314C255.097 151.556 256.713 156.673 259.74 160.952C260.653 162.268 262.051 163.167 263.627 163.451C265.203 163.736 266.827 163.382 268.142 162.469C269.458 161.556 270.357 160.158 270.641 158.582C270.926 157.006 270.572 155.382 269.659 154.067C268.574 152.562 267.816 150.848 267.434 149.033C267.051 147.218 267.052 145.343 267.438 143.529C267.824 141.715 268.584 140.002 269.672 138.499C270.759 136.997 272.149 135.739 273.752 134.806C276.158 133.423 278.938 132.833 281.697 133.12C282.491 133.203 283.294 133.127 284.058 132.896C284.822 132.666 285.533 132.285 286.149 131.778C286.765 131.27 287.274 130.645 287.646 129.938C288.018 129.232 288.245 128.459 288.316 127.663C288.386 126.868 288.297 126.067 288.055 125.306C287.812 124.546 287.421 123.841 286.904 123.233C286.387 122.625 285.754 122.126 285.042 121.765C284.33 121.404 283.553 121.188 282.757 121.131C282.116 121.079 281.473 121.047 280.831 121.034H280.879ZM-8.99787 121.034L-10.924 121.131C-11.7144 121.2 -12.4834 121.425 -13.187 121.791C-13.8907 122.158 -14.5152 122.66 -15.0249 123.268C-16.0544 124.496 -16.5538 126.083 -16.4133 127.679C-16.2728 129.276 -15.504 130.751 -14.2759 131.78C-13.0477 132.81 -11.461 133.309 -9.86461 133.169C-7.3392 132.944 -4.8022 133.446 -2.55299 134.616C-0.303783 135.787 1.56377 137.576 2.82931 139.773C4.09484 141.97 4.70553 144.483 4.58932 147.015C4.47311 149.548 3.63485 151.995 2.17345 154.067C1.72133 154.718 1.40191 155.452 1.23345 156.227C1.06499 157.001 1.05078 157.802 1.19162 158.582C1.47608 160.158 2.37486 161.556 3.69025 162.469C5.00564 163.382 6.62988 163.736 8.20567 163.451C9.78146 163.167 11.1797 162.268 12.0928 160.952C15.1366 156.679 16.7696 151.561 16.7636 146.314C16.7508 141.886 15.5796 137.539 13.3664 133.704C11.1532 129.869 7.97504 126.68 4.1477 124.453C0.171822 122.154 -4.35796 120.988 -8.94972 121.082L-8.99787 121.034ZM488.608 129.027C487.502 129.032 486.419 129.34 485.477 129.92C484.535 130.499 483.771 131.326 483.268 132.311C482.766 133.296 482.545 134.401 482.629 135.503C482.712 136.606 483.098 137.664 483.744 138.562C484.829 140.066 485.587 141.78 485.97 143.595C486.353 145.41 486.351 147.285 485.965 149.099C485.58 150.913 484.819 152.627 483.732 154.129C482.644 155.631 481.254 156.89 479.651 157.823C477.232 159.216 474.434 159.806 471.658 159.508C470.868 159.441 470.072 159.531 469.316 159.773C468.56 160.014 467.86 160.401 467.254 160.913C466.03 161.947 465.267 163.425 465.133 165.021C464.999 166.618 465.505 168.202 466.539 169.425C467.573 170.649 469.05 171.412 470.647 171.546C475.703 171.979 480.903 170.968 485.622 168.223C489.462 165.995 492.652 162.8 494.874 158.956C497.096 155.113 498.272 150.754 498.286 146.314C498.292 141.067 496.659 135.95 493.615 131.676C493.062 130.857 492.316 130.188 491.443 129.726C490.569 129.264 489.596 129.024 488.608 129.027ZM168.443 129.027C166.373 129.027 164.591 130.087 163.435 131.676C160.409 135.955 158.793 141.073 158.813 146.314C158.813 155.319 163.628 163.745 171.429 168.223C175.971 170.857 181.225 172.002 186.452 171.498C187.248 171.44 188.025 171.224 188.737 170.863C189.449 170.502 190.082 170.003 190.599 169.395C191.117 168.787 191.508 168.082 191.75 167.322C191.993 166.561 192.081 165.76 192.011 164.965C191.941 164.17 191.713 163.396 191.341 162.69C190.969 161.984 190.46 161.358 189.844 160.851C189.229 160.343 188.518 159.963 187.754 159.732C186.989 159.502 186.187 159.425 185.393 159.508C182.867 159.733 180.33 159.23 178.081 158.06C175.832 156.89 173.964 155.101 172.699 152.904C171.433 150.707 170.823 148.194 170.939 145.661C171.055 143.128 171.893 140.682 173.355 138.61C174.017 137.709 174.414 136.641 174.504 135.527C174.593 134.413 174.37 133.296 173.86 132.301C173.35 131.306 172.574 130.473 171.617 129.895C170.66 129.316 169.561 129.016 168.443 129.027ZM184.093 140.295C182.496 140.295 180.965 140.929 179.837 142.058C178.708 143.187 178.074 144.718 178.074 146.314C178.074 147.91 178.708 149.441 179.837 150.57C180.965 151.699 182.496 152.333 184.093 152.333C185.689 152.333 187.22 151.699 188.349 150.57C189.478 149.441 190.112 147.91 190.112 146.314C190.112 144.718 189.478 143.187 188.349 142.058C187.22 140.929 185.689 140.295 184.093 140.295ZM280.397 140.295C278.801 140.295 277.27 140.929 276.141 142.058C275.012 143.187 274.378 144.718 274.378 146.314C274.378 147.91 275.012 149.441 276.141 150.57C277.27 151.699 278.801 152.333 280.397 152.333C281.994 152.333 283.525 151.699 284.653 150.57C285.782 149.441 286.416 147.91 286.416 146.314C286.416 144.718 285.782 143.187 284.653 142.058C283.525 140.929 281.994 140.295 280.397 140.295ZM-8.94972 140.295C-9.74015 140.352 -10.5116 140.564 -11.2201 140.919C-11.9286 141.274 -12.5602 141.765 -13.0789 142.364C-13.5976 142.964 -13.9931 143.659 -14.2431 144.411C-14.493 145.163 -14.5923 145.957 -14.5354 146.748C-14.4785 147.538 -14.2664 148.309 -13.9114 149.018C-13.5563 149.726 -13.0652 150.358 -12.466 150.877C-11.8668 151.395 -11.1714 151.791 -10.4194 152.041C-9.66731 152.291 -8.87341 152.39 -8.08298 152.333C-6.48663 152.218 -5.00133 151.474 -3.95381 150.264C-2.9063 149.054 -2.38238 147.477 -2.49731 145.881C-2.61226 144.284 -3.35663 142.799 -4.56669 141.752C-5.77675 140.704 -7.35337 140.18 -8.94972 140.295ZM473.44 140.295C472.649 140.238 471.855 140.338 471.103 140.587C470.351 140.837 469.656 141.233 469.057 141.752C468.457 142.27 467.966 142.902 467.611 143.61C467.256 144.319 467.044 145.09 466.987 145.881C466.93 146.671 467.03 147.465 467.28 148.217C467.529 148.969 467.925 149.665 468.444 150.264C468.962 150.863 469.594 151.354 470.303 151.709C471.011 152.064 471.783 152.276 472.573 152.333C474.169 152.448 475.746 151.924 476.956 150.877C478.166 149.829 478.91 148.344 479.025 146.748C479.14 145.151 478.616 143.575 477.569 142.364C476.521 141.154 475.036 140.41 473.44 140.295ZM328.549 146.699C308.185 146.683 288.525 154.157 273.314 167.698C258.104 181.239 248.405 199.902 246.065 220.132C245.862 221.263 245.988 222.428 246.427 223.49C246.866 224.552 247.6 225.467 248.542 226.125C249.483 226.783 250.594 227.158 251.742 227.205C252.891 227.253 254.028 226.97 255.021 226.391C255.835 225.913 256.525 225.249 257.035 224.455C257.546 223.66 257.862 222.756 257.958 221.817C259.193 210.762 263.009 200.151 269.098 190.842C275.187 181.532 283.379 173.785 293.013 168.223C303.818 162.013 316.063 158.745 328.525 158.745C340.988 158.745 353.233 162.013 364.038 168.223C373.672 173.785 381.864 181.532 387.953 190.842C394.042 200.151 397.858 210.762 399.093 221.817C399.316 223.4 400.159 224.83 401.437 225.792C402.715 226.754 404.323 227.169 405.906 226.945C407.49 226.722 408.92 225.878 409.881 224.6C410.843 223.323 411.258 221.715 411.034 220.132C408.694 199.902 398.995 181.239 383.785 167.698C368.574 154.157 348.914 146.683 328.549 146.699ZM521.159 165.238C516.87 176.158 509.013 185.306 498.864 191.192C492.656 194.785 485.766 197.043 478.636 197.823C471.505 198.602 464.291 197.885 457.453 195.718C456.297 195.363 455.061 195.363 453.905 195.721C452.75 196.078 451.729 196.775 450.975 197.721C450.222 198.667 449.77 199.818 449.68 201.024C449.591 202.23 449.866 203.435 450.471 204.482C450.863 205.174 451.388 205.781 452.017 206.269C452.645 206.756 453.363 207.115 454.131 207.323C465.955 211.006 478.598 211.155 490.506 207.75C502.414 204.345 513.068 197.536 521.159 188.158V165.238ZM328.549 165.96C314.075 165.936 300.024 170.846 288.715 179.879C277.405 188.913 269.512 201.531 266.337 215.653C266.039 216.8 266.085 218.009 266.471 219.129C266.856 220.249 267.564 221.23 268.505 221.95C269.445 222.669 270.578 223.095 271.759 223.175C272.941 223.254 274.12 222.983 275.149 222.395C275.869 221.986 276.498 221.433 276.995 220.77C277.492 220.107 277.847 219.349 278.038 218.543C279.588 211.535 282.58 204.928 286.825 199.141C291.07 193.354 296.473 188.515 302.692 184.932C310.56 180.412 319.475 178.033 328.549 178.033C337.624 178.033 346.539 180.412 354.407 184.932C360.626 188.515 366.029 193.354 370.274 199.141C374.519 204.928 377.511 211.535 379.061 218.543C379.329 219.721 379.946 220.792 380.832 221.615C381.717 222.438 382.83 222.976 384.025 223.157C385.22 223.339 386.442 223.157 387.532 222.635C388.622 222.112 389.53 221.273 390.136 220.228C391.003 218.783 391.147 217.146 390.762 215.653C387.596 201.522 379.707 188.893 368.397 179.85C357.086 170.807 343.031 165.89 328.549 165.912V165.96ZM328.549 185.221C319.235 185.2 310.15 188.108 302.58 193.535C295.01 198.962 289.338 206.633 286.368 215.461C286.103 216.207 285.987 216.998 286.027 217.789C286.067 218.58 286.262 219.355 286.602 220.071C286.942 220.786 287.419 221.428 288.007 221.959C288.595 222.49 289.281 222.9 290.028 223.165C290.774 223.431 291.565 223.547 292.356 223.507C293.147 223.466 293.922 223.271 294.638 222.931C295.353 222.591 295.995 222.114 296.526 221.526C297.056 220.938 297.466 220.252 297.732 219.506C300.228 211.971 305.402 205.614 312.274 201.641C317.218 198.798 322.822 197.301 328.525 197.301C334.229 197.301 339.833 198.798 344.777 201.641C351.657 205.593 356.849 211.933 359.367 219.457C359.897 220.964 361.004 222.199 362.444 222.89C363.884 223.581 365.54 223.671 367.047 223.141C368.554 222.611 369.789 221.504 370.48 220.064C371.17 218.624 371.261 216.968 370.731 215.461C367.769 206.624 362.101 198.943 354.53 193.507C346.959 188.07 337.87 185.155 328.549 185.173V185.221ZM521.159 198.559C511.036 207.925 498.401 214.135 484.802 216.427C471.202 218.719 457.23 216.995 444.596 211.464C443.436 210.962 442.147 210.839 440.912 211.111C439.677 211.383 438.559 212.037 437.717 212.981C436.875 213.924 436.352 215.108 436.221 216.366C436.09 217.624 436.358 218.891 436.988 219.987C437.69 221.209 438.797 222.146 440.118 222.635C453.22 228.309 467.566 230.501 481.765 229C495.963 227.498 509.533 222.353 521.159 214.064V198.559ZM328.549 204.53C323.718 204.527 318.986 205.909 314.916 208.512C310.845 211.115 307.606 214.83 305.581 219.217C305.243 219.931 305.048 220.705 305.009 221.495C304.97 222.285 305.087 223.074 305.353 223.819C305.619 224.563 306.029 225.248 306.56 225.834C307.09 226.42 307.731 226.896 308.446 227.234C309.16 227.572 309.935 227.767 310.724 227.806C311.514 227.845 312.303 227.728 313.048 227.462C313.792 227.196 314.477 226.786 315.063 226.255C315.649 225.724 316.125 225.084 316.463 224.369C317.571 221.913 319.449 219.746 321.904 218.302C323.513 217.379 325.297 216.803 327.141 216.61C328.986 216.418 330.85 216.614 332.614 217.186C334.378 217.757 336.004 218.691 337.385 219.928C338.767 221.166 339.874 222.678 340.636 224.369C341.097 225.373 341.827 226.231 342.743 226.848C343.66 227.466 344.73 227.818 345.834 227.868C346.938 227.918 348.035 227.663 349.003 227.13C349.972 226.598 350.775 225.809 351.326 224.85C352.337 223.069 352.385 220.998 351.518 219.217C349.503 214.822 346.266 211.101 342.193 208.497C338.12 205.892 333.384 204.515 328.549 204.53ZM136.374 223.791C135.583 223.734 134.789 223.834 134.037 224.083C133.285 224.333 132.59 224.729 131.991 225.248C131.392 225.766 130.9 226.398 130.545 227.106C130.19 227.815 129.978 228.586 129.921 229.377C129.864 230.167 129.964 230.961 130.214 231.713C130.464 232.465 130.859 233.161 131.378 233.76C131.897 234.359 132.528 234.85 133.237 235.205C133.945 235.56 134.717 235.772 135.507 235.829C137.103 235.944 138.68 235.42 139.89 234.373C141.1 233.325 141.845 231.84 141.959 230.244C142.074 228.647 141.55 227.071 140.503 225.861C139.455 224.65 137.97 223.906 136.374 223.791ZM328.116 223.791C327.299 223.807 326.494 223.989 325.749 224.326C325.005 224.663 324.337 225.148 323.786 225.752C323.235 226.355 322.813 227.065 322.545 227.837C322.277 228.609 322.169 229.428 322.228 230.243C322.287 231.058 322.512 231.853 322.888 232.578C323.264 233.304 323.784 233.945 324.415 234.464C325.047 234.982 325.778 235.366 326.564 235.592C327.349 235.819 328.172 235.883 328.983 235.781C330.579 235.666 332.065 234.922 333.112 233.712C334.16 232.502 334.683 230.925 334.569 229.329C334.454 227.732 333.709 226.247 332.499 225.199C331.289 224.152 329.712 223.628 328.116 223.743V223.791ZM279.771 230.147C268.676 230.227 257.708 232.519 247.509 236.889C246.021 237.482 244.83 238.643 244.198 240.115C243.566 241.587 243.545 243.25 244.139 244.737C244.732 246.225 245.893 247.416 247.365 248.048C248.837 248.68 250.5 248.702 251.987 248.108C262.175 243.657 273.267 241.664 284.367 242.291C295.467 242.919 306.264 246.148 315.885 251.719C326.668 257.979 335.623 266.954 341.858 277.751C348.093 288.548 351.391 300.79 351.422 313.258C351.422 324.383 348.808 335.352 343.789 345.28C338.771 355.209 331.489 363.818 322.53 370.415C321.266 371.405 320.447 372.856 320.253 374.45C320.058 376.044 320.505 377.649 321.495 378.914C322.485 380.178 323.936 380.997 325.53 381.191C327.124 381.386 328.73 380.939 329.994 379.949C340.39 372.215 348.831 362.156 354.642 350.575C360.453 338.995 363.473 326.215 363.46 313.258C363.428 298.674 359.574 284.353 352.283 271.722C344.992 259.091 334.518 248.592 321.904 241.27C309.123 233.866 294.59 230.024 279.819 230.147H279.771ZM-7.89037 230.147C-25.3708 229.991 -42.4499 235.386 -56.6686 245.556L-56.6686 261.061C-46.546 251.695 -33.9108 245.485 -20.3117 243.193C-6.71251 240.901 7.25997 242.626 19.8935 248.156C21.0597 248.67 22.3589 248.8 23.6039 248.529C24.8489 248.257 25.9756 247.597 26.8216 246.644C27.6675 245.691 28.1892 244.494 28.3114 243.225C28.4336 241.957 28.15 240.682 27.5015 239.585C26.7949 238.379 25.6872 237.458 24.3716 236.985C14.1792 232.583 3.21127 230.259 -7.89037 230.147ZM117.931 231.688C116.948 231.76 115.997 232.072 115.162 232.598C114.327 233.123 113.635 233.846 113.145 234.702C112.655 235.558 112.383 236.521 112.353 237.507C112.323 238.493 112.535 239.471 112.972 240.356C115.151 245.132 118.772 249.106 123.325 251.719C127.165 253.92 131.514 255.078 135.94 255.078C140.367 255.078 144.716 253.92 148.556 251.719C153.109 249.106 156.73 245.132 158.909 240.356C159.297 239.635 159.533 238.843 159.604 238.028C159.675 237.213 159.58 236.391 159.323 235.615C159.066 234.838 158.653 234.121 158.11 233.509C157.567 232.897 156.905 232.403 156.164 232.055C155.423 231.708 154.619 231.515 153.801 231.489C152.984 231.462 152.169 231.603 151.408 231.902C150.646 232.201 149.953 232.653 149.372 233.228C148.791 233.804 148.333 234.493 148.027 235.251C146.962 237.554 145.26 239.503 143.123 240.87C140.985 242.236 138.501 242.962 135.965 242.962C133.428 242.962 130.944 242.236 128.806 240.87C126.669 239.503 124.967 237.554 123.902 235.251C123.398 234.113 122.553 233.159 121.484 232.52C120.414 231.882 119.173 231.591 117.931 231.688ZM58.945 232.41C58.1071 232.472 57.2913 232.708 56.5503 233.104C55.8092 233.5 55.1592 234.047 54.6422 234.709C54.1251 235.371 53.7524 236.134 53.548 236.949C53.3437 237.764 53.3122 238.613 53.4556 239.441C54.9406 252.307 59.4155 264.647 66.5224 275.475C73.6294 286.303 83.1712 295.317 94.385 301.798C107.026 309.074 121.355 312.903 135.94 312.903C150.526 312.903 164.855 309.074 177.496 301.798C188.71 295.317 198.251 286.303 205.358 275.475C212.465 264.647 216.94 252.307 218.425 239.441C218.594 238.635 218.595 237.802 218.429 236.996C218.263 236.189 217.933 235.425 217.46 234.751C216.987 234.077 216.381 233.507 215.678 233.077C214.976 232.647 214.193 232.365 213.378 232.25C212.563 232.134 211.732 232.187 210.938 232.405C210.144 232.624 209.403 233.003 208.762 233.519C208.12 234.035 207.591 234.677 207.207 235.406C206.824 236.134 206.594 236.934 206.532 237.755C205.297 248.811 201.481 259.421 195.392 268.73C189.303 278.04 181.111 285.788 171.477 291.349C161.263 297.267 149.734 300.544 137.934 300.883C126.135 301.223 114.437 298.614 103.899 293.293C93.3621 287.971 84.3184 280.106 77.5872 270.409C70.8559 260.711 66.6497 249.488 65.3492 237.755C65.1674 236.218 64.4006 234.811 63.208 233.824C62.0154 232.838 60.4887 232.349 58.945 232.459V232.41ZM99.0077 235.974C98.0617 236.031 97.1425 236.31 96.325 236.79C95.5076 237.269 94.8149 237.935 94.3033 238.733C93.7918 239.531 93.4759 240.438 93.3813 241.381C93.2867 242.324 93.4162 243.276 93.759 244.16C97.2252 254.408 104.314 263.038 113.694 268.428C120.464 272.315 128.134 274.36 135.94 274.36C143.747 274.36 151.417 272.315 158.187 268.428C167.567 263.038 174.656 254.408 178.122 244.16C178.387 243.413 178.503 242.622 178.463 241.831C178.423 241.04 178.227 240.265 177.888 239.549C177.548 238.834 177.07 238.193 176.483 237.662C175.895 237.131 175.208 236.721 174.462 236.455C173.716 236.19 172.925 236.074 172.134 236.114C171.343 236.154 170.568 236.35 169.852 236.689C169.137 237.029 168.495 237.507 167.964 238.094C167.433 238.682 167.023 239.369 166.758 240.115C164.252 247.632 159.078 253.97 152.216 257.931C147.266 260.783 141.653 262.285 135.94 262.285C130.228 262.285 124.615 260.783 119.665 257.931C112.803 253.97 107.629 247.632 105.123 240.115C104.709 238.843 103.882 237.746 102.775 236.996C101.668 236.246 100.342 235.886 99.0077 235.974ZM79.1208 236.359C78.2301 236.419 77.3642 236.677 76.5856 237.114C75.8069 237.551 75.1352 238.155 74.6189 238.883C74.1027 239.611 73.7549 240.445 73.6008 241.325C73.4466 242.204 73.49 243.107 73.7277 243.967C75.6691 252.545 79.367 260.628 84.5882 267.706C89.8095 274.783 96.4407 280.702 104.064 285.089C113.771 290.665 124.77 293.6 135.965 293.6C147.159 293.6 158.158 290.665 167.865 285.089C175.485 280.692 182.11 274.763 187.323 267.677C192.536 260.591 196.223 252.502 198.153 243.919C198.451 242.772 198.405 241.564 198.019 240.444C197.634 239.324 196.926 238.342 195.985 237.623C195.045 236.903 193.912 236.477 192.73 236.398C191.549 236.318 190.37 236.59 189.341 237.177C188.621 237.586 187.992 238.139 187.495 238.802C186.998 239.465 186.643 240.223 186.452 241.03C184.902 248.037 181.91 254.645 177.665 260.431C173.42 266.218 168.017 271.057 161.798 274.64C153.93 279.16 145.015 281.539 135.94 281.539C126.866 281.539 117.951 279.16 110.083 274.64C103.87 271.062 98.469 266.231 94.2246 260.453C89.9801 254.675 86.9846 248.076 85.4287 241.078C85.1199 239.664 84.3123 238.41 83.1539 237.543C81.9955 236.676 80.5638 236.256 79.1208 236.359ZM427.262 245.171C425.817 245.171 424.469 245.7 423.409 246.567C413.02 254.296 404.583 264.348 398.772 275.919C392.961 287.491 389.938 300.261 389.944 313.21C389.971 327.789 393.817 342.107 401.1 354.738C408.382 367.368 418.847 377.87 431.451 385.198C442.658 391.686 455.23 395.458 468.158 396.211C481.086 396.963 494.01 394.676 505.894 389.531C506.644 389.249 507.329 388.819 507.911 388.269C508.492 387.718 508.958 387.056 509.281 386.323C509.603 385.59 509.776 384.8 509.789 383.999C509.803 383.198 509.656 382.403 509.358 381.659C509.06 380.916 508.617 380.24 508.054 379.67C507.491 379.1 506.82 378.648 506.081 378.341C505.341 378.033 504.547 377.877 503.746 377.88C502.945 377.883 502.153 378.046 501.416 378.36C491.226 382.827 480.127 384.832 469.018 384.213C457.908 383.594 447.101 380.368 437.47 374.797C426.689 368.527 417.739 359.542 411.512 348.736C405.286 337.93 402 325.681 401.982 313.21C401.976 302.089 404.583 291.123 409.593 281.195C414.603 271.267 421.876 262.655 430.825 256.053C431.852 255.304 432.616 254.249 433.007 253.038C433.397 251.828 433.395 250.525 432.999 249.317C432.603 248.108 431.835 247.056 430.804 246.311C429.773 245.566 428.533 245.167 427.262 245.171ZM229.837 245.171C228.553 245.153 227.296 245.546 226.251 246.293C225.206 247.04 224.428 248.102 224.03 249.324C223.632 250.545 223.635 251.862 224.039 253.081C224.442 254.301 225.226 255.359 226.274 256.101C235.223 262.703 242.496 271.315 247.506 281.243C252.516 291.171 255.123 302.137 255.117 313.258C255.086 325.726 251.789 337.968 245.554 348.765C239.319 359.562 230.364 368.537 219.581 374.797C209.96 380.368 199.163 383.597 188.063 384.225C176.963 384.852 165.871 382.86 155.683 378.408C154.522 377.906 153.233 377.783 151.998 378.055C150.763 378.327 149.646 378.981 148.804 379.924C147.962 380.868 147.438 382.052 147.307 383.31C147.176 384.568 147.445 385.835 148.075 386.931C148.761 388.147 149.851 389.084 151.157 389.579C163.041 394.724 175.965 397.011 188.893 396.259C201.821 395.506 214.393 391.734 225.6 385.246C238.213 377.924 248.687 367.425 255.979 354.794C263.27 342.163 267.123 327.842 267.155 313.258C267.169 300.301 264.149 287.521 258.338 275.941C252.526 264.36 244.085 254.301 233.69 246.567C232.604 245.679 231.24 245.202 229.837 245.219V245.171ZM521.159 245.508C510.38 253.22 501.593 263.386 495.522 275.167C489.452 286.948 486.273 300.005 486.248 313.258C486.235 326.215 489.255 338.995 495.066 350.575C500.877 362.156 509.318 372.215 519.714 379.949C520.195 380.334 520.677 380.623 521.159 380.816V365.503C513.938 358.852 508.177 350.774 504.24 341.781C500.303 332.788 498.275 323.075 498.286 313.258C498.286 293.323 506.809 274.351 521.159 261.061V245.508ZM280.542 249.36C274.092 249.36 267.68 250.334 261.522 252.249C260.763 252.47 260.055 252.839 259.439 253.334C258.822 253.829 258.309 254.44 257.929 255.133C257.162 256.533 256.982 258.18 257.429 259.713C257.876 261.245 258.913 262.537 260.313 263.305C261.712 264.073 263.36 264.253 264.892 263.806C271.733 261.646 278.95 260.937 286.08 261.725C293.211 262.513 300.098 264.779 306.303 268.38C314.15 272.955 320.661 279.506 325.189 287.379C329.717 295.253 332.104 304.175 332.113 313.258C332.119 320.43 330.633 327.524 327.748 334.09C324.863 340.656 320.643 346.549 315.356 351.395C314.738 351.929 314.235 352.584 313.879 353.319C313.522 354.054 313.319 354.854 313.281 355.67C313.244 356.486 313.373 357.301 313.66 358.066C313.948 358.83 314.388 359.528 314.954 360.117C315.52 360.706 316.2 361.174 316.953 361.492C317.706 361.809 318.515 361.971 319.332 361.965C320.149 361.96 320.956 361.789 321.705 361.462C322.453 361.134 323.128 360.658 323.686 360.062C330.151 354.099 335.311 346.862 338.841 338.807C342.372 330.752 344.196 322.053 344.199 313.258C344.18 302.05 341.222 291.042 335.62 281.334C330.019 271.626 321.969 263.556 312.274 257.931C302.628 252.354 291.684 249.414 280.542 249.408V249.36ZM-8.6608 249.408C-17.7742 249.411 -26.7798 251.378 -35.0643 255.176C-43.3489 258.973 -50.7176 264.512 -56.6686 271.414L-56.6686 294.382C-52.3898 283.444 -44.531 274.278 -34.3741 268.38C-28.1659 264.787 -21.2764 262.529 -14.146 261.75C-7.01556 260.97 0.199055 261.687 7.03683 263.854C7.80798 264.115 8.6242 264.218 9.4361 264.155C10.248 264.092 11.0387 263.865 11.7603 263.488C12.4819 263.11 13.1194 262.59 13.6343 261.959C14.1491 261.329 14.5306 260.6 14.7556 259.817C14.9806 259.034 15.0445 258.214 14.9433 257.406C14.8421 256.598 14.5781 255.819 14.1671 255.116C13.7561 254.413 13.2067 253.801 12.5522 253.316C11.8977 252.832 11.1517 252.485 10.3593 252.297C4.20093 250.382 -2.21145 249.408 -8.6608 249.408ZM433.907 264.624C432.269 264.624 430.729 265.298 429.669 266.406C423.213 272.373 418.062 279.612 414.54 287.667C411.018 295.722 409.202 304.419 409.204 313.21C409.218 324.414 412.169 335.418 417.762 345.126C423.355 354.834 431.396 362.906 441.081 368.537C448.694 372.949 457.141 375.732 465.885 376.71C474.63 377.688 483.482 376.84 491.882 374.219C493.414 373.772 494.707 372.734 495.474 371.335C496.242 369.935 496.422 368.288 495.975 366.755C495.528 365.223 494.49 363.931 493.091 363.163C491.691 362.395 490.044 362.215 488.511 362.662C481.67 364.819 474.454 365.526 467.324 364.739C460.194 363.951 453.306 361.686 447.1 358.088C439.252 353.523 432.735 346.983 428.199 339.118C423.663 331.253 421.264 322.337 421.243 313.258C421.236 306.086 422.722 298.992 425.607 292.426C428.492 285.86 432.713 279.967 438 275.121C438.893 274.3 439.517 273.228 439.79 272.045C440.063 270.863 439.972 269.626 439.529 268.496C439.087 267.366 438.313 266.397 437.31 265.714C436.306 265.032 435.12 264.669 433.907 264.672V264.624ZM223.144 264.624C221.924 264.62 220.732 264.986 219.725 265.674C218.717 266.363 217.943 267.341 217.505 268.479C217.066 269.617 216.984 270.862 217.268 272.048C217.553 273.235 218.192 274.306 219.099 275.121C224.386 279.967 228.607 285.86 231.492 292.426C234.376 298.992 235.863 306.086 235.856 313.258C235.835 322.337 233.436 331.253 228.9 339.118C224.364 346.983 217.847 353.523 209.999 358.088C203.794 361.689 196.906 363.955 189.776 364.743C182.645 365.531 175.429 364.822 168.588 362.662C167.829 362.441 167.034 362.371 166.248 362.457C165.462 362.543 164.701 362.783 164.008 363.163C163.315 363.543 162.704 364.056 162.209 364.672C161.714 365.289 161.345 365.996 161.124 366.755C160.903 367.514 160.833 368.309 160.919 369.095C161.005 369.881 161.245 370.642 161.625 371.335C162.005 372.028 162.518 372.639 163.134 373.134C163.75 373.629 164.458 373.998 165.217 374.219C173.61 376.833 182.453 377.677 191.189 376.699C199.925 375.721 208.363 372.942 215.969 368.537C225.657 362.916 233.702 354.854 239.304 345.155C244.905 335.456 247.867 324.458 247.894 313.258C247.904 304.459 246.091 295.753 242.568 287.689C239.046 279.625 233.892 272.379 227.43 266.406C226.876 265.844 226.217 265.397 225.489 265.091C224.762 264.785 223.981 264.627 223.192 264.624H223.144ZM279.482 268.669C276.882 268.717 274.282 269.054 271.73 269.536C270.497 269.727 269.353 270.296 268.458 271.165C267.563 272.034 266.96 273.16 266.732 274.387C266.505 275.614 266.664 276.881 267.189 278.013C267.713 279.146 268.576 280.087 269.659 280.707C271.008 281.478 272.5 281.67 273.897 281.381C281.671 279.788 289.76 281.108 296.625 285.089C301.563 287.952 305.665 292.059 308.521 297.002C311.377 301.945 312.887 307.55 312.9 313.258C312.9 321.54 309.818 329.1 304.714 334.83C303.945 335.696 303.442 336.766 303.266 337.91C303.089 339.055 303.247 340.226 303.72 341.284C304.193 342.341 304.96 343.24 305.931 343.871C306.902 344.503 308.034 344.842 309.192 344.846C311.118 344.846 312.804 343.979 313.863 342.631C321.008 334.515 324.947 324.071 324.938 313.258C324.919 305.434 322.851 297.752 318.939 290.977C315.028 284.201 309.409 278.569 302.644 274.64C295.631 270.572 287.636 268.507 279.53 268.669H279.482ZM-7.60146 268.669C-15.7324 268.527 -23.7455 270.626 -30.7627 274.736C-37.5144 278.657 -43.1238 284.274 -47.0345 291.031C-50.9453 297.789 -53.0215 305.451 -53.0572 313.258C-53.0572 324.526 -48.8679 334.782 -41.9822 342.631C-41.1902 343.581 -40.125 344.263 -38.9313 344.586C-37.7377 344.909 -36.4735 344.857 -35.3108 344.436C-34.1481 344.015 -33.1432 343.246 -32.4328 342.234C-31.7225 341.222 -31.3411 340.015 -31.3405 338.779C-31.3405 337.334 -31.8702 335.89 -32.8332 334.83C-38.116 328.887 -41.0295 321.21 -41.0191 313.258C-41.0191 301.702 -34.7593 290.867 -24.7437 285.089C-17.8787 281.108 -9.79009 279.788 -2.01579 281.381C-1.23801 281.524 -0.439819 281.511 0.333206 281.345C1.10623 281.179 1.83895 280.862 2.48954 280.413C3.14012 279.963 3.69582 279.39 4.12491 278.726C4.554 278.062 4.84808 277.32 4.99036 276.542C5.13264 275.764 5.12033 274.966 4.95413 274.193C4.78793 273.42 4.4711 272.687 4.02173 272.037C3.57236 271.386 2.99925 270.83 2.33512 270.401C1.67099 269.972 0.928844 269.678 0.151058 269.536C-2.40213 269.016 -4.99662 268.726 -7.60146 268.669ZM521.159 271.414C511.103 283.021 505.55 297.853 505.509 313.21C505.479 328.609 511.04 343.495 521.159 355.102V332.278C516.338 320.073 516.338 306.491 521.159 294.286V271.366V271.414ZM444.163 281.622C442.285 281.622 440.6 282.537 439.492 283.885C432.347 292.001 428.409 302.445 428.417 313.258C428.445 321.073 430.517 328.746 434.428 335.512C438.339 342.279 443.953 347.904 450.712 351.828C460.064 357.25 471.076 359.065 481.674 356.932C482.451 356.79 483.194 356.496 483.858 356.067C484.522 355.638 485.095 355.082 485.544 354.431C485.994 353.781 486.311 353.048 486.477 352.275C486.643 351.502 486.655 350.704 486.513 349.926C486.371 349.148 486.077 348.406 485.647 347.742C485.218 347.078 484.663 346.505 484.012 346.055C483.362 345.606 482.629 345.289 481.856 345.123C481.083 344.957 480.285 344.944 479.507 345.087C471.723 346.706 463.615 345.404 456.731 341.427C451.794 338.554 447.697 334.437 444.85 329.485C442.002 324.534 440.504 318.922 440.503 313.21C440.503 304.976 443.585 297.416 448.689 291.686C449.461 290.817 449.965 289.743 450.139 288.594C450.314 287.445 450.152 286.27 449.674 285.21C449.195 284.151 448.42 283.253 447.442 282.625C446.464 281.997 445.325 281.665 444.163 281.67V281.622ZM212.984 281.67C211.822 281.665 210.683 281.997 209.705 282.625C208.727 283.253 207.952 284.151 207.473 285.21C206.995 286.27 206.833 287.445 207.008 288.594C207.182 289.743 207.686 290.817 208.458 291.686C213.741 297.629 216.654 305.307 216.644 313.258C216.644 324.815 210.384 335.649 200.416 341.427C193.538 345.42 185.43 346.74 177.64 345.135C176.863 344.993 176.064 345.005 175.291 345.171C174.518 345.337 173.786 345.654 173.135 346.103C172.484 346.553 171.929 347.126 171.5 347.79C171.07 348.454 170.776 349.196 170.634 349.974C170.492 350.752 170.504 351.55 170.67 352.323C170.837 353.096 171.153 353.829 171.603 354.479C172.052 355.13 172.625 355.686 173.289 356.115C173.954 356.544 174.696 356.838 175.473 356.98C185.682 359.003 196.66 357.462 206.435 351.876C213.183 347.935 218.782 342.298 222.677 335.523C226.571 328.748 228.624 321.072 228.634 313.258C228.634 301.99 224.444 291.734 217.559 283.885C216.993 283.192 216.281 282.634 215.473 282.251C214.665 281.868 213.782 281.669 212.888 281.67H212.984ZM280.012 287.93C279.338 287.93 278.712 287.978 278.086 288.074C277.281 288.118 276.493 288.322 275.769 288.675C275.045 289.029 274.399 289.524 273.87 290.132C273.341 290.74 272.939 291.447 272.688 292.213C272.438 292.979 272.343 293.788 272.411 294.591C272.479 295.394 272.707 296.175 273.082 296.888C273.458 297.601 273.972 298.232 274.596 298.742C275.219 299.253 275.939 299.633 276.712 299.86C277.486 300.087 278.297 300.156 279.097 300.064C281.63 299.832 284.177 300.331 286.435 301.503C288.693 302.676 290.566 304.471 291.834 306.677C293.102 308.882 293.71 311.405 293.586 313.946C293.462 316.487 292.611 318.939 291.135 321.011C290.686 321.662 290.37 322.395 290.204 323.169C290.039 323.942 290.027 324.741 290.17 325.519C290.313 326.297 290.608 327.039 291.038 327.703C291.468 328.367 292.025 328.94 292.676 329.389C293.327 329.838 294.061 330.154 294.834 330.32C295.608 330.485 296.406 330.497 297.184 330.354C297.962 330.211 298.705 329.916 299.369 329.486C300.033 329.056 300.606 328.5 301.055 327.848C304.089 323.588 305.721 318.488 305.725 313.258C305.725 304.254 300.862 295.827 293.061 291.349C289.085 289.05 284.556 287.884 279.964 287.978L280.012 287.93ZM-7.98668 287.978C-12.4648 287.882 -16.9911 288.989 -21.0841 291.349C-24.9364 293.567 -28.1383 296.759 -30.3693 300.604C-32.6003 304.449 -33.7821 308.813 -33.7963 313.258C-33.8023 318.505 -32.1693 323.623 -29.1255 327.896C-28.6734 328.548 -28.0974 329.104 -27.4304 329.532C-26.7635 329.961 -26.0186 330.254 -25.2384 330.395C-24.4581 330.536 -23.6578 330.522 -22.883 330.353C-22.1083 330.185 -21.3743 329.865 -20.7229 329.413C-20.0716 328.961 -19.5157 328.385 -19.087 327.718C-18.6583 327.051 -18.3652 326.306 -18.2243 325.526C-18.0835 324.746 -18.0977 323.945 -18.2661 323.171C-18.4346 322.396 -18.754 321.662 -19.2062 321.011C-20.6823 318.939 -21.5328 316.487 -21.6567 313.946C-21.7806 311.405 -21.1726 308.882 -19.9051 306.677C-18.6375 304.471 -16.7636 302.676 -14.5058 301.503C-12.248 300.331 -9.70132 299.832 -7.16809 300.064C-6.37409 300.147 -5.5716 300.071 -4.80733 299.84C-4.04306 299.61 -3.33229 299.229 -2.71638 298.722C-2.10047 298.214 -1.59174 297.588 -1.21979 296.882C-0.847839 296.176 -0.62011 295.402 -0.54985 294.607C-0.479595 293.812 -0.568214 293.011 -0.810558 292.25C-1.0529 291.49 -1.44411 290.785 -1.96144 290.177C-2.47876 289.569 -3.11185 289.07 -3.82386 288.709C-4.53587 288.348 -5.31256 288.132 -6.10873 288.074C-6.74968 288.023 -7.39199 287.991 -8.03482 287.978H-7.98668ZM457.405 295.971C455.334 295.971 453.553 296.983 452.397 298.62C449.37 302.899 447.754 308.016 447.774 313.258C447.784 317.693 448.953 322.049 451.166 325.892C453.379 329.735 456.559 332.933 460.39 335.167C464.933 337.801 470.187 338.946 475.414 338.442C476.204 338.372 476.973 338.148 477.677 337.781C478.381 337.414 479.005 336.912 479.515 336.304C480.025 335.696 480.41 334.994 480.648 334.237C480.886 333.48 480.973 332.683 480.903 331.893C480.834 331.103 480.609 330.334 480.242 329.63C479.876 328.926 479.374 328.302 478.766 327.792C478.158 327.282 477.455 326.897 476.698 326.659C475.941 326.421 475.145 326.334 474.355 326.404C471.829 326.628 469.292 326.126 467.043 324.956C464.794 323.786 462.926 321.997 461.661 319.8C460.395 317.603 459.784 315.089 459.901 312.557C460.017 310.024 460.855 307.577 462.316 305.506C462.965 304.605 463.351 303.542 463.433 302.435C463.515 301.328 463.29 300.221 462.781 299.234C462.273 298.247 461.502 297.42 460.553 296.845C459.604 296.269 458.515 295.967 457.405 295.971ZM199.79 295.971C198.68 295.967 197.591 296.269 196.642 296.845C195.693 297.42 194.922 298.247 194.414 299.234C193.906 300.221 193.68 301.328 193.762 302.435C193.844 303.542 194.231 304.605 194.879 305.506C196.355 307.577 197.205 310.029 197.329 312.57C197.453 315.111 196.845 317.634 195.578 319.84C194.31 322.045 192.436 323.841 190.178 325.013C187.921 326.185 185.374 326.684 182.841 326.452C182.05 326.382 181.254 326.469 180.497 326.707C179.74 326.945 179.038 327.33 178.43 327.84C177.821 328.35 177.32 328.974 176.953 329.678C176.586 330.382 176.362 331.151 176.292 331.941C176.222 332.732 176.309 333.528 176.548 334.285C176.786 335.042 177.171 335.744 177.68 336.352C178.19 336.96 178.815 337.462 179.518 337.829C180.222 338.196 180.991 338.42 181.781 338.49C186.837 338.971 192.086 337.912 196.805 335.119C200.623 332.887 203.792 329.695 205.996 325.86C208.201 322.025 209.365 317.681 209.373 313.258C209.373 307.817 207.639 302.761 204.702 298.62C204.153 297.808 203.415 297.142 202.55 296.681C201.686 296.219 200.722 295.976 199.742 295.971H199.79ZM-8.51635 307.239C-10.1127 307.239 -11.6437 307.873 -12.7724 309.002C-13.9012 310.131 -14.5354 311.662 -14.5354 313.258C-14.5354 314.854 -13.9012 316.385 -12.7724 317.514C-11.6437 318.643 -10.1127 319.277 -8.51635 319.277C-6.92 319.277 -5.38904 318.643 -4.26025 317.514C-3.13146 316.385 -2.49731 314.854 -2.49731 313.258C-2.49731 311.662 -3.13146 310.131 -4.26025 309.002C-5.38904 307.873 -6.92 307.239 -8.51635 307.239ZM473.006 307.239C471.41 307.239 469.879 307.873 468.75 309.002C467.621 310.131 466.987 311.662 466.987 313.258C466.987 314.854 467.621 316.385 468.75 317.514C469.879 318.643 471.41 319.277 473.006 319.277C474.603 319.277 476.134 318.643 477.262 317.514C478.391 316.385 479.025 314.854 479.025 313.258C479.025 311.662 478.391 310.131 477.262 309.002C476.134 307.873 474.603 307.239 473.006 307.239ZM184.526 307.239C182.93 307.124 181.353 307.648 180.143 308.696C178.933 309.743 178.189 311.228 178.074 312.825C177.959 314.421 178.483 315.998 179.53 317.208C180.578 318.418 182.063 319.162 183.659 319.277C184.45 319.334 185.244 319.235 185.996 318.985C186.748 318.735 187.443 318.339 188.042 317.821C188.642 317.302 189.133 316.67 189.488 315.962C189.843 315.253 190.055 314.482 190.112 313.691C190.169 312.901 190.069 312.107 189.819 311.355C189.569 310.603 189.174 309.908 188.655 309.308C188.137 308.709 187.505 308.218 186.796 307.863C186.088 307.508 185.316 307.296 184.526 307.239ZM279.964 307.239C279.173 307.296 278.402 307.508 277.693 307.863C276.985 308.218 276.353 308.709 275.835 309.308C275.316 309.908 274.92 310.603 274.671 311.355C274.421 312.107 274.321 312.901 274.378 313.691C274.435 314.482 274.647 315.253 275.002 315.962C275.357 316.67 275.848 317.302 276.448 317.821C277.047 318.339 277.742 318.735 278.494 318.985C279.246 319.235 280.04 319.334 280.831 319.277C282.427 319.162 283.912 318.418 284.96 317.208C286.007 315.998 286.531 314.421 286.416 312.825C286.301 311.228 285.557 309.743 284.347 308.696C283.137 307.648 281.56 307.124 279.964 307.239ZM39.6841 313.643C19.3027 313.603 -0.380547 321.066 -15.6114 334.61C-30.8422 348.153 -40.555 366.829 -42.8971 387.075C-43.0882 388.203 -42.9543 389.362 -42.5108 390.416C-42.0673 391.47 -41.3327 392.376 -40.393 393.028C-39.4532 393.679 -38.3473 394.05 -37.2046 394.096C-36.0619 394.142 -34.9298 393.861 -33.9407 393.287C-33.1266 392.809 -32.4365 392.145 -31.9262 391.35C-31.416 390.556 -31.0999 389.652 -31.0035 388.713C-29.7565 377.661 -25.93 367.058 -19.8326 357.757C-13.7352 348.456 -5.53747 340.718 4.09954 335.167C14.9046 328.957 27.1493 325.689 39.6118 325.689C52.0744 325.689 64.3191 328.957 75.1241 335.167C84.7583 340.729 92.9503 348.476 99.0395 357.786C105.129 367.095 108.944 377.706 110.179 388.761C110.241 389.582 110.471 390.382 110.855 391.11C111.238 391.839 111.767 392.481 112.409 392.997C113.051 393.514 113.791 393.892 114.586 394.111C115.38 394.329 116.21 394.382 117.025 394.266C117.841 394.151 118.624 393.869 119.326 393.439C120.028 393.009 120.634 392.439 121.107 391.765C121.581 391.091 121.91 390.327 122.076 389.52C122.242 388.714 122.241 387.882 122.073 387.075C119.733 366.854 110.041 348.198 94.8408 334.658C79.6404 321.118 59.9925 313.638 39.6359 313.643H39.6841ZM-56.6686 332.278V355.102C-55.155 356.857 -53.5476 358.529 -51.8534 360.11C-51.0143 360.961 -49.941 361.543 -48.7701 361.782C-47.5993 362.02 -46.3839 361.905 -45.2787 361.451C-44.1735 360.996 -43.2287 360.223 -42.5644 359.23C-41.9002 358.236 -41.5466 357.068 -41.5488 355.873C-41.5488 354.091 -42.3192 352.502 -43.4749 351.443C-49.2663 346.135 -53.7775 339.582 -56.6686 332.278H-56.6686ZM39.6359 332.904C25.168 332.878 11.1225 337.78 -0.186153 346.805C-11.4948 355.829 -19.3921 368.436 -22.5768 382.549C-22.9599 384.101 -22.711 385.741 -21.8847 387.109C-21.0584 388.477 -19.7225 389.461 -18.1709 389.844C-16.6192 390.227 -14.9789 389.978 -13.6108 389.152C-12.2428 388.326 -11.2589 386.99 -10.8758 385.438C-9.32599 378.431 -6.33335 371.823 -2.08862 366.037C2.15611 360.25 7.55983 355.411 13.7781 351.828C21.652 347.299 30.5765 344.915 39.66 344.915C48.7435 344.915 57.668 347.299 65.5418 351.828C71.7564 355.421 77.1541 360.27 81.3906 366.065C85.6271 371.86 88.6095 378.475 90.1476 385.486C90.4159 386.665 91.0328 387.736 91.9181 388.559C92.8034 389.382 93.916 389.92 95.1111 390.101C96.3062 390.283 97.5283 390.101 98.6184 389.578C99.7085 389.056 100.616 388.217 101.223 387.172C102.089 385.727 102.234 384.09 101.849 382.597C98.6734 368.475 90.7802 355.857 79.4707 346.823C68.1611 337.79 54.1105 332.88 39.6359 332.904ZM39.6359 352.165C30.3274 352.14 21.2466 355.042 13.6772 360.46C6.10781 365.877 0.432816 373.537 -2.54547 382.357C-3.08184 383.863 -2.99761 385.522 -2.31131 386.967C-1.625 388.412 -0.392849 389.525 1.11411 390.061C2.62106 390.597 4.27936 390.513 5.72421 389.827C7.16906 389.14 8.2821 387.908 8.81847 386.401C11.3264 378.859 16.5189 372.501 23.4086 368.537C28.3528 365.694 33.9565 364.197 39.66 364.197C45.3635 364.197 50.9671 365.694 55.9114 368.537C62.7829 372.51 67.9574 378.867 70.4534 386.401C70.8188 387.504 71.4954 388.477 72.4014 389.203C73.3075 389.93 74.4044 390.379 75.5599 390.496C76.7153 390.613 77.88 390.393 78.9134 389.863C79.9468 389.333 80.8048 388.516 81.3839 387.509C82.347 385.872 82.4433 383.994 81.8173 382.357C78.839 373.537 73.164 365.877 65.5946 360.46C58.0252 355.042 48.9444 352.14 39.6359 352.165ZM-56.6686 365.503V380.816C-55.3151 381.393 -53.7972 381.454 -52.4016 380.988C-51.0061 380.522 -49.8296 379.56 -49.0945 378.286C-48.3594 377.011 -48.1166 375.512 -48.412 374.07C-48.7074 372.629 -49.5205 371.346 -50.6977 370.463C-52.7782 368.904 -54.7715 367.232 -56.6686 365.455L-56.6686 365.503ZM39.6359 371.426C34.799 371.427 30.0639 372.816 25.9927 375.428C21.9215 378.04 18.685 381.765 16.6673 386.161C16.2797 386.881 16.0432 387.673 15.9721 388.488C15.9009 389.304 15.9968 390.125 16.2537 390.901C16.5106 391.678 16.9232 392.395 17.4663 393.007C18.0094 393.619 18.6716 394.113 19.4124 394.461C20.1532 394.808 20.957 395.001 21.7749 395.027C22.5927 395.054 23.4072 394.913 24.1688 394.614C24.9304 394.315 25.623 393.863 26.2043 393.288C26.7856 392.712 27.2434 392.023 27.5497 391.265C28.6088 388.949 30.3109 386.986 32.4536 385.61C34.5963 384.233 37.0893 383.502 39.6359 383.502C42.1825 383.502 44.6755 384.233 46.8182 385.61C48.9609 386.986 50.6631 388.949 51.7221 391.265C52.0284 392.023 52.4862 392.712 53.0675 393.288C53.6488 393.863 54.3414 394.315 55.103 394.614C55.8646 394.913 56.6792 395.054 57.497 395.027C58.3148 395.001 59.1186 394.808 59.8594 394.461C60.6002 394.113 61.2624 393.619 61.8055 393.007C62.3486 392.395 62.7612 391.678 63.0181 390.901C63.2751 390.125 63.3709 389.304 63.2998 388.488C63.2287 387.673 62.9921 386.881 62.6045 386.161C60.5966 381.757 57.3624 378.026 53.2889 375.413C49.2155 372.8 44.4754 371.415 39.6359 371.426ZM39.2025 390.687C37.6825 390.797 36.2606 391.479 35.2239 392.596C34.1872 393.713 33.6129 395.182 33.6169 396.706H45.6549C45.6571 395.878 45.4883 395.058 45.1591 394.298C44.8298 393.538 44.3473 392.854 43.7417 392.289C43.136 391.724 42.4203 391.29 41.6392 391.014C40.8582 390.739 40.0286 390.627 39.2025 390.687ZM425.287 390.687C424.46 390.62 423.627 390.726 422.843 390.999C422.059 391.272 421.34 391.706 420.733 392.272C420.125 392.839 419.643 393.525 419.316 394.289C418.989 395.052 418.826 395.876 418.835 396.706H430.873C430.889 395.179 430.318 393.703 429.279 392.584C428.24 391.464 426.812 390.785 425.287 390.687Z" fill="white"/>
</g>
</g>
</g>
<defs>
<filter id="filter0_f_260_408" x="0" y="-95" width="546" height="546" filterUnits="userSpaceOnUse" color-interpolation-filters="sRGB">
<feFlood flood-opacity="0" result="BackgroundImageFix"/>
<feBlend mode="normal" in="SourceGraphic" in2="BackgroundImageFix" result="shape"/>
<feGaussianBlur stdDeviation="75" result="effect1_foregroundBlur_260_408"/>
</filter>
<clipPath id="clip0_260_408">
<rect x="150" y="55" width="246" height="246" rx="123" fill="white"/>
</clipPath>
</defs>
</svg>
