<svg width="46" height="46" viewBox="0 0 46 46" fill="none" xmlns="http://www.w3.org/2000/svg">
<path d="M22.006 12.9072C24.2943 13.0552 26.1766 11.1693 26.029 8.8767C25.906 6.99084 24.3804 5.46244 22.4981 5.33918C20.2098 5.19127 18.3274 7.08945 18.4751 9.36973C18.5981 11.2556 20.1237 12.7963 22.006 12.9072Z" fill="black"/>
<path d="M32.2419 26.8601C32.5618 27.4764 33.1769 27.8215 33.829 27.8215C34.0997 27.8215 34.3826 27.7599 34.641 27.6243C35.5145 27.1682 35.859 26.0959 35.4038 25.2207L31.9713 18.5771C31.8113 18.2567 31.553 17.9978 31.2454 17.8376L24.8356 14.2877C24.5773 14.1398 24.2697 14.0659 23.9744 14.0659H20.7757C20.2344 14.0659 19.7177 13.807 19.3855 13.3756L14.9442 7.4962V1.83865C14.9442 0.877233 14.206 0.0514023 13.2464 0.00209893C12.2252 -0.0472044 11.3763 0.778626 11.3763 1.78934V8.10017C11.3763 8.4946 11.4994 8.86437 11.7331 9.18484L14.8457 13.3017C15.8669 14.6575 16.4697 16.2722 16.5927 17.9608C16.6912 19.255 16.8511 20.5493 17.0725 21.8188C17.3063 23.1623 17.6262 24.5182 18.0076 25.837L12.7789 33.4544C12.7789 33.4544 12.7789 33.4667 12.7666 33.4667C12.7543 33.4791 12.7543 33.4914 12.742 33.5037C12.7174 33.5407 12.6927 33.5777 12.6804 33.6146C12.6681 33.627 12.6681 33.6393 12.6558 33.6516C12.6312 33.6886 12.6189 33.7256 12.6066 33.7625C12.6066 33.7749 12.5943 33.7872 12.5943 33.7872C12.5574 33.8858 12.5205 33.9967 12.4959 34.0953C12.4959 34.1077 12.4959 34.1077 12.4959 34.12C12.4836 34.1693 12.4836 34.2063 12.4713 34.2556C12.4713 34.2679 12.4713 34.2802 12.4713 34.2926C12.4713 34.3419 12.459 34.4035 12.459 34.4528V44.1532C12.459 45.1146 13.1972 45.9405 14.1568 45.9898C15.1779 46.0391 16.0268 45.2256 16.0268 44.2025V35.1923L21.6738 29.5841C21.8706 29.3869 22.1905 29.4115 22.3505 29.6334L26.2382 34.9458L31.3684 45.0037C31.6883 45.62 32.3157 45.9774 32.9555 45.9774C33.2262 45.9774 33.5091 45.9158 33.7675 45.7802C34.641 45.3365 34.9978 44.2518 34.5426 43.3767L29.3508 33.2079L26.3858 27.0326C25.6845 25.3687 25.1924 23.6184 24.9094 21.8311C24.7249 20.6479 24.6388 19.4523 24.6511 18.2567L29.0678 20.6972L32.2419 26.8601Z" fill="black"/>
</svg>
