<svg width="46" height="47" viewBox="0 0 46 47" fill="none" xmlns="http://www.w3.org/2000/svg">
<g clip-path="url(#clip0_571_401)">
<path d="M22.0061 13.4072C24.2944 13.5551 26.1767 11.6693 26.0291 9.37667C25.9061 7.49082 24.3805 5.96241 22.4982 5.83915C20.2099 5.69124 18.3275 7.58942 18.4752 9.8697C18.5982 11.7556 20.1238 13.2963 22.0061 13.4072Z" fill="black"/>
<path d="M32.2421 27.3601C32.5619 27.9764 33.1771 28.3215 33.8291 28.3215C34.0998 28.3215 34.3827 28.2599 34.6411 28.1243C35.5146 27.6682 35.8591 26.5959 35.4039 25.7207L31.9714 19.0771C31.8115 18.7567 31.5531 18.4978 31.2455 18.3376L24.8358 14.7877C24.5774 14.6398 24.2698 14.5659 23.9746 14.5659H20.7758C20.2345 14.5659 19.7178 14.307 19.3856 13.8756L14.9443 7.9962V2.33865C14.9443 1.37723 14.2061 0.551402 13.2465 0.502099C12.2254 0.452796 11.3765 1.27863 11.3765 2.28934V8.60017C11.3765 8.9946 11.4995 9.36437 11.7332 9.68484L14.8459 13.8017C15.867 15.1575 16.4698 16.7722 16.5929 18.4608C16.6913 19.755 16.8512 21.0493 17.0727 22.3188C17.3064 23.6623 17.6263 25.0182 18.0077 26.337L12.779 33.9544C12.779 33.9544 12.779 33.9667 12.7667 33.9667C12.7544 33.9791 12.7544 33.9914 12.7421 34.0037C12.7175 34.0407 12.6929 34.0777 12.6806 34.1146C12.6683 34.127 12.6683 34.1393 12.656 34.1516C12.6314 34.1886 12.619 34.2256 12.6067 34.2625C12.6067 34.2749 12.5944 34.2872 12.5944 34.2872C12.5575 34.3858 12.5206 34.4967 12.496 34.5953C12.496 34.6077 12.496 34.6077 12.496 34.62C12.4837 34.6693 12.4837 34.7063 12.4714 34.7556C12.4714 34.7679 12.4714 34.7802 12.4714 34.7926C12.4714 34.8419 12.4591 34.9035 12.4591 34.9528V44.6532C12.4591 45.6146 13.1973 46.4405 14.1569 46.4898C15.178 46.5391 16.0269 45.7256 16.0269 44.7025V35.6923L21.6739 30.0841C21.8708 29.8869 22.1906 29.9115 22.3506 30.1334L26.2383 35.4458L31.3686 45.5037C31.6884 46.12 32.3159 46.4774 32.9556 46.4774C33.2263 46.4774 33.5092 46.4158 33.7676 46.2802C34.6411 45.8365 34.9979 44.7518 34.5427 43.8767L29.3509 33.7079L26.3859 27.5326C25.6846 25.8687 25.1925 24.1184 24.9096 22.3311C24.725 21.1479 24.6389 19.9523 24.6512 18.7567L29.0679 21.1972L32.2421 27.3601Z" fill="black"/>
</g>
<defs>
<clipPath id="clip0_571_401">
<rect width="46" height="46" fill="white" transform="translate(0 0.5)"/>
</clipPath>
</defs>
</svg>
