<svg width="46" height="46" viewBox="0 0 46 46" fill="none" xmlns="http://www.w3.org/2000/svg">
<path d="M21.084 15.3497C22.7379 13.7031 22.7382 11.0389 21.0847 9.39915C19.4313 7.75939 16.7501 7.76497 15.0963 9.41162C13.4424 11.0583 13.4421 13.7224 15.0956 15.3622C16.7491 17.0019 19.4302 16.9964 21.084 15.3497Z" fill="black"/>
<path d="M38.3523 37.1522H7.68587C7.0308 37.1522 6.46932 37.6543 6.43188 38.3053C6.39445 39.0027 6.95594 39.5699 7.64844 39.5699H38.3149C38.97 39.5699 39.5314 39.0678 39.5689 38.4168C39.5969 37.7287 39.0448 37.1522 38.3523 37.1522Z" fill="black"/>
<path d="M12.3743 35.1344L24.5024 29.1924L35.6478 34.5485C36.7427 35.0786 38.0529 34.6229 38.5863 33.535C39.1197 32.447 38.6611 31.1452 37.5662 30.6151L25.4569 24.7941C25.4475 24.7941 25.4475 24.7848 25.4382 24.7848C25.4101 24.7755 25.3914 24.7662 25.3633 24.7569C25.3539 24.7476 25.3352 24.7476 25.3259 24.7383C25.2978 24.729 25.2604 24.7104 25.2323 24.7011C25.2229 24.7011 25.2229 24.7011 25.2136 24.6918C25.1761 24.6825 25.1387 24.6639 25.1013 24.6546C25.0919 24.6546 25.0919 24.6546 25.0826 24.6453C25.0545 24.636 25.0171 24.6267 24.989 24.6174C24.9796 24.6174 24.9703 24.6174 24.9609 24.6081C24.9328 24.5988 24.8954 24.5988 24.8673 24.5895C24.858 24.5895 24.8486 24.5895 24.8486 24.5895C24.8112 24.5802 24.7831 24.5802 24.7457 24.5709H24.7363C24.5772 24.5523 24.4088 24.5523 24.2497 24.5709H24.2403C24.2029 24.5709 24.1655 24.5802 24.1374 24.5895C24.128 24.5895 24.1187 24.5895 24.1093 24.5988C24.0812 24.6081 24.0532 24.6081 24.0251 24.6174C24.0157 24.6174 23.997 24.6267 23.9877 24.6267C23.9596 24.636 23.9409 24.636 23.9128 24.6453C23.8941 24.6453 23.8847 24.6546 23.866 24.6546C23.8473 24.6639 23.8192 24.6732 23.8005 24.6732C23.7818 24.6825 23.7724 24.6825 23.7537 24.6918C23.7444 24.6918 23.7444 24.6918 23.735 24.7011L16.5761 27.3512C16.3983 27.4163 16.2111 27.249 16.2672 27.063C16.3889 26.6445 16.5199 26.2261 16.679 25.8169C17.175 24.4872 17.83 23.2226 18.6348 22.0509C18.822 21.7812 19.1215 21.6232 19.449 21.6232H36.228C37.4165 21.6232 38.4365 20.7026 38.474 19.5216C38.5208 18.2756 37.5195 17.2527 36.2748 17.2527H17.4651C17.1937 17.2434 16.8007 17.2341 16.3327 17.2899C13.9932 17.5689 12.4304 19.0102 11.7566 19.6332C8.60297 22.5437 8.27543 26.7282 8.17249 28.0022C8.02276 29.8712 7.75138 33.3769 9.82887 34.6787C10.6898 35.2366 11.6911 35.2273 12.3743 35.1344Z" fill="black"/>
</svg>
