<svg width="46" height="46" viewBox="0 0 46 46" fill="none" xmlns="http://www.w3.org/2000/svg">
<path d="M7.11914 22.7714C7.11914 21.2829 8.13721 20.0323 9.51502 19.6777V25.865C8.13721 25.5105 7.11914 24.2599 7.11914 22.7714Z" fill="black"/>
<path d="M39.0617 22.7714C39.0617 24.2597 38.0438 25.5105 36.666 25.865V19.6777C38.0438 20.0323 39.0617 21.283 39.0617 22.7714Z" fill="black"/>
<path d="M34.2702 17.98V27.5628C34.2702 28.3055 34.2702 28.6768 34.1885 28.9813C33.9671 29.8081 33.3213 30.454 32.4945 30.6753C32.19 30.757 31.8187 30.757 31.076 30.757C30.3333 30.757 29.962 30.757 29.6573 30.6753C28.8305 30.454 28.1849 29.8081 27.9633 28.9813C27.8816 28.6768 27.8816 28.3055 27.8816 27.5628V23.9693H18.2989V27.5628C18.2989 28.3055 18.2989 28.6768 18.2173 28.9813C17.9958 29.8081 17.35 30.454 16.5233 30.6753C16.2186 30.757 15.8473 30.757 15.1047 30.757C14.362 30.757 13.9907 30.757 13.686 30.6753C12.8593 30.454 12.2135 29.8081 11.992 28.9813C11.9104 28.6768 11.9104 28.3055 11.9104 27.5628V17.98C11.9104 17.2373 11.9104 16.8661 11.992 16.5614C12.2135 15.7347 12.8593 15.0889 13.686 14.8674C13.9907 14.7858 14.362 14.7858 15.1047 14.7858C15.8473 14.7858 16.2186 14.7858 16.5233 14.8674C17.35 15.0889 17.9958 15.7347 18.2173 16.5614C18.2989 16.8661 18.2989 17.2373 18.2989 17.98V21.5736H27.8816V17.98C27.8816 17.2373 27.8816 16.8661 27.9633 16.5614C28.1849 15.7347 28.8305 15.0889 29.6573 14.8674C29.962 14.7858 30.3333 14.7858 31.076 14.7858C31.8187 14.7858 32.19 14.7858 32.4945 14.8674C33.3213 15.0889 33.9671 15.7347 34.1885 16.5614C34.2702 16.8661 34.2702 17.2373 34.2702 17.98Z" fill="black"/>
</svg>
