<svg width="17" height="17" viewBox="0 0 17 17" fill="none" xmlns="http://www.w3.org/2000/svg">
<path d="M2.22125 8.71518C2.22125 8.09384 2.64621 7.57184 3.22133 7.42384V10.0065C2.64621 9.85851 2.22125 9.33651 2.22125 8.71518Z" fill="black"/>
<path d="M15.5546 8.71518C15.5546 9.33644 15.1297 9.85851 14.5546 10.0065V7.42384C15.1297 7.57184 15.5546 8.09391 15.5546 8.71518Z" fill="black"/>
<path d="M13.5546 6.71518V10.7152C13.5546 11.0252 13.5546 11.1802 13.5205 11.3073C13.4281 11.6524 13.1585 11.922 12.8134 12.0144C12.6863 12.0485 12.5313 12.0485 12.2213 12.0485C11.9113 12.0485 11.7563 12.0485 11.6291 12.0144C11.284 11.922 11.0145 11.6524 10.922 11.3073C10.8879 11.1802 10.8879 11.0252 10.8879 10.7152V9.21518H6.88792V10.7152C6.88792 11.0252 6.88792 11.1802 6.85385 11.3073C6.76138 11.6524 6.49183 11.922 6.14674 12.0144C6.01957 12.0485 5.86458 12.0485 5.55459 12.0485C5.24459 12.0485 5.0896 12.0485 4.96243 12.0144C4.61734 11.922 4.34779 11.6524 4.25533 11.3073C4.22125 11.1802 4.22125 11.0252 4.22125 10.7152V6.71518C4.22125 6.40518 4.22125 6.25019 4.25533 6.12302C4.34779 5.77793 4.61734 5.50838 4.96243 5.41592C5.0896 5.38184 5.24459 5.38184 5.55459 5.38184C5.86458 5.38184 6.01957 5.38184 6.14674 5.41592C6.49183 5.50838 6.76138 5.77793 6.85385 6.12302C6.88792 6.25019 6.88792 6.40518 6.88792 6.71518V8.21518H10.8879V6.71518C10.8879 6.40518 10.8879 6.25019 10.922 6.12302C11.0145 5.77793 11.284 5.50838 11.6291 5.41592C11.7563 5.38184 11.9113 5.38184 12.2213 5.38184C12.5313 5.38184 12.6863 5.38184 12.8134 5.41592C13.1585 5.50838 13.4281 5.77793 13.5205 6.12302C13.5546 6.25019 13.5546 6.40518 13.5546 6.71518Z" fill="black"/>
</svg>
