<svg width="47" height="47" viewBox="0 0 47 47" fill="none" xmlns="http://www.w3.org/2000/svg">
<path d="M29.396 8.55886C29.6054 6.43993 28.0608 4.55211 25.9461 4.34228C23.8313 4.13246 21.9472 5.68009 21.7378 7.79902C21.5284 9.91795 23.073 11.8058 25.1877 12.0156C27.3025 12.2254 29.1866 10.6778 29.396 8.55886Z" fill="black"/>
<path d="M39.5602 29.8763C39.5602 29.846 39.5602 29.8007 39.5602 29.7704C39.5602 29.7402 39.5602 29.7251 39.5602 29.6948C39.5602 29.6646 39.5451 29.6192 39.5451 29.589C39.5451 29.5588 39.53 29.5436 39.53 29.5134C39.5149 29.4832 39.5149 29.4378 39.4998 29.4076C39.4998 29.3773 39.4847 29.3622 39.4847 29.332C39.4696 29.3017 39.4546 29.2564 39.4546 29.2261C39.4395 29.1959 39.4395 29.1808 39.4244 29.1505C39.4093 29.1203 39.3942 29.09 39.3791 29.0598C39.364 29.0296 39.3489 29.0144 39.3338 28.9842C39.3187 28.954 39.3037 28.9237 39.2886 28.8935C39.2735 28.8632 39.2584 28.8481 39.2433 28.8179C39.2282 28.7876 39.198 28.7725 39.1829 28.7423C39.1678 28.712 39.1528 28.6969 39.1226 28.6818C39.1075 28.6516 39.0773 28.6364 39.0622 28.6062C39.0471 28.5911 39.032 28.576 39.032 28.5608L39.0169 28.5457C38.9868 28.5155 38.9717 28.5004 38.9415 28.4701C38.9264 28.455 38.8962 28.4399 38.8811 28.4248C38.851 28.3945 38.8208 28.3794 38.7906 28.3643C38.7755 28.3492 38.7453 28.334 38.7302 28.3189C38.7001 28.3038 38.6699 28.2736 38.6246 28.2585C38.6095 28.2433 38.5793 28.2282 38.5642 28.2282C38.5341 28.2131 38.5039 28.198 38.4586 28.1829C38.4284 28.1677 38.4133 28.1677 38.3832 28.1526C38.353 28.1375 38.3228 28.1224 38.2926 28.1224C38.2624 28.1073 38.2323 28.1073 38.2172 28.0921C38.187 28.077 38.1568 28.077 38.1266 28.0619C38.0965 28.0619 38.0663 28.0468 38.0361 28.0468C38.021 28.0468 38.0059 28.0468 37.9908 28.0317L29.4801 26.7011V16.722C29.4801 16.4499 29.4197 16.1777 29.3141 15.9358C29.0727 15.4217 28.7558 14.953 28.3483 14.5448C27.8956 14.0912 27.3524 13.7283 26.7639 13.4864C26.5376 13.3957 26.2961 13.3503 26.0547 13.3503H22.7198C22.2973 13.3503 21.9049 13.4864 21.573 13.7434L14.8278 18.9447C14.36 19.3075 14.0883 19.8518 14.0883 20.4415C14.0883 21.0312 14.36 21.5755 14.8278 21.9384L20.2903 26.1417L21.4522 28.077L18.2683 36.786L9.28974 39.3413C8.2938 39.6285 7.70529 40.6718 7.992 41.6697C8.23344 42.5013 8.98794 43.0456 9.8028 43.0456C9.96879 43.0456 10.1499 43.0154 10.3159 42.97L20.2149 40.1577C20.2601 40.1426 20.3054 40.1275 20.3507 40.1124C20.3658 40.1124 20.3809 40.0973 20.3959 40.0973C20.4563 40.067 20.5318 40.0368 20.5921 40.0065C20.6072 39.9914 20.6374 39.9763 20.6525 39.9763C20.6977 39.9461 20.743 39.9309 20.7732 39.9007C20.8034 39.8856 20.8185 39.8705 20.8486 39.8553C20.8788 39.8251 20.9241 39.7949 20.9543 39.7646C20.9694 39.7495 20.9995 39.7193 21.0146 39.7041C21.0448 39.6739 21.0901 39.6285 21.1203 39.5983C21.1354 39.5832 21.1504 39.5681 21.1655 39.5529C21.2108 39.4925 21.2561 39.432 21.3013 39.3715L25.9943 31.9174L35.8028 31.8418V41.1708C35.8028 42.214 36.6478 43.0607 37.689 43.0607C38.7302 43.0607 39.5753 42.214 39.5753 41.1708V29.9367C39.5602 29.9065 39.5602 29.8914 39.5602 29.8763ZM19.0831 20.4415L21.7088 18.4155V22.4676L19.0831 20.4415Z" fill="black"/>
</svg>
