<svg width="336" height="194" viewBox="0 0 336 194" fill="none" xmlns="http://www.w3.org/2000/svg">
<g clip-path="url(#clip0_303_880)">
<g opacity="0.3">
<path d="M171.644 -7.56274C171.644 -6.3747 172.116 -5.23531 172.956 -4.39523C173.796 -3.55516 174.936 -3.08321 176.124 -3.08321C177.312 -3.08321 178.451 -3.55516 179.291 -4.39523C180.131 -5.23531 180.603 -6.3747 180.603 -7.56274H171.644ZM68.615 -7.31189C60.1957 -7.29227 51.8683 -5.56094 44.1388 -2.22314C43.581 -2.01289 43.0708 -1.69343 42.6381 -1.28348C42.2053 -0.873523 41.8588 -0.381321 41.6187 0.164286C41.3786 0.709894 41.2498 1.29793 41.2399 1.89395C41.23 2.48996 41.3391 3.08196 41.5609 3.63526C41.7827 4.18856 42.1127 4.69202 42.5315 5.11615C42.9504 5.54028 43.4497 5.87655 44.0002 6.10525C44.5507 6.33395 45.1413 6.45048 45.7373 6.44801C46.3334 6.44554 46.923 6.32413 47.4716 6.09088C54.1431 3.18891 61.3397 1.6886 68.615 1.68302C75.8898 1.68302 83.0929 3.18814 89.7584 6.09088C90.6263 6.47324 91.5932 6.57026 92.5198 6.36797C93.4464 6.16568 94.2849 5.67451 94.9145 4.96522C95.5441 4.25592 95.9323 3.3651 96.0233 2.42106C96.1142 1.47701 95.9032 0.528459 95.4205 -0.28798C94.8946 -1.18587 94.0703 -1.87071 93.0912 -2.22314C85.3617 -5.56094 77.0343 -7.29227 68.615 -7.31189V-7.31189ZM162.721 -6.12929C161.989 -6.07593 161.281 -5.84348 160.66 -5.45238C160.039 -5.06128 159.523 -4.52352 159.159 -3.88641C158.794 -3.2493 158.592 -2.53236 158.569 -1.79866C158.547 -1.06496 158.705 -0.336978 159.03 0.321237C159.52 1.38852 160.108 2.40822 160.786 3.36732C161.117 3.86295 161.543 4.28757 162.04 4.61631C162.537 4.94505 163.095 5.1713 163.681 5.28181C164.266 5.39232 164.868 5.38486 165.451 5.25988C166.034 5.13489 166.585 4.8949 167.074 4.55394C167.563 4.21299 167.979 3.77793 168.297 3.27425C168.616 2.77057 168.831 2.2084 168.929 1.62065C169.028 1.0329 169.008 0.431401 168.871 -0.148625C168.734 -0.728652 168.483 -1.27554 168.132 -1.75727C167.749 -2.30047 167.413 -2.87602 167.129 -3.47741C166.758 -4.31269 166.14 -5.01444 165.358 -5.48846C164.577 -5.96249 163.669 -6.18611 162.757 -6.12929H162.721ZM118.822 -5.59175C118.202 -5.54533 117.598 -5.37035 117.049 -5.07794C116.501 -4.78554 116.019 -4.38211 115.635 -3.89334C115.25 -3.40457 114.972 -2.84115 114.817 -2.23895C114.663 -1.63674 114.635 -1.00894 114.736 -0.395489C115.728 7.9765 118.41 16.0597 122.62 23.364C126.828 30.6581 132.473 37.0222 139.212 42.0705C139.869 42.6172 140.668 42.9649 141.515 43.0725C142.363 43.1801 143.223 43.0431 143.995 42.6778C144.768 42.3124 145.419 41.7339 145.873 41.0104C146.328 40.2869 146.565 39.4486 146.559 38.5944C146.559 37.1251 145.842 35.7992 144.731 35.0108C138.888 30.6749 133.997 25.1863 130.361 18.8844C126.722 12.5753 124.417 5.58634 123.588 -1.64976C123.453 -2.79357 122.882 -3.84131 121.994 -4.57538C121.107 -5.30945 119.971 -5.67344 118.822 -5.59175V-5.59175ZM148.637 -2.93986C147.938 -2.89553 147.258 -2.68762 146.654 -2.33285C146.049 -1.97809 145.536 -1.48638 145.156 -0.897266C144.776 -0.308156 144.54 0.361906 144.466 1.05902C144.392 1.75614 144.483 2.46085 144.731 3.11647C146.131 7.22858 148.323 11.0269 151.182 14.2974C151.768 15.0182 152.563 15.5391 153.458 15.788C154.353 16.0369 155.303 16.0014 156.177 15.6865C157.051 15.3716 157.805 14.7928 158.335 14.0303C158.866 13.2678 159.146 12.3593 159.137 11.4305C159.137 10.3196 158.707 9.28031 158.027 8.49191C155.856 6.05206 154.198 3.20019 153.153 0.10622C152.84 -0.827158 152.227 -1.63133 151.411 -2.18193C150.595 -2.73254 149.62 -2.99891 148.637 -2.93986V-2.93986ZM133.837 -2.68901C133.174 -2.64391 132.53 -2.45194 131.95 -2.12701C131.371 -1.80209 130.871 -1.35234 130.487 -0.810343C130.102 -0.268349 129.844 0.352315 129.729 1.00669C129.614 1.66106 129.646 2.33276 129.823 2.97312C130.887 7.61536 132.638 12.0725 135.02 16.1967C137.4 20.3205 140.383 24.0651 143.871 27.306C144.498 27.9269 145.293 28.3491 146.159 28.5196C147.024 28.6902 147.92 28.6015 148.735 28.2648C149.55 27.928 150.248 27.3581 150.741 26.6266C151.233 25.895 151.499 25.0343 151.504 24.1524C151.504 22.8264 150.967 21.6438 150.071 20.8196C147.188 18.1726 144.723 15.1035 142.76 11.7172C140.807 8.32073 139.382 4.64745 138.532 0.822944C138.303 -0.222412 137.707 -1.15124 136.852 -1.79543C135.998 -2.43963 134.941 -2.75661 133.873 -2.68901H133.837ZM249.588 3.90486C248.513 3.90486 247.474 4.29906 246.721 4.94412C239.968 9.98805 234.311 16.3525 230.093 23.6507C225.883 30.9549 223.201 39.0381 222.209 47.4101C222.048 48.5886 222.361 49.7831 223.08 50.7307C223.799 51.6783 224.865 52.3014 226.044 52.463C227.222 52.6246 228.417 52.3114 229.364 51.5923C230.312 50.8732 230.935 49.8071 231.097 48.6285C231.919 41.4074 234.212 34.4312 237.834 28.1302C241.48 21.8243 246.384 16.3352 252.24 12.0039C253.007 11.4445 253.577 10.6558 253.867 9.75157C254.157 8.84736 254.152 7.87443 253.853 6.97322C253.554 6.07202 252.976 5.28916 252.203 4.73765C251.43 4.18614 250.502 3.89452 249.552 3.90486H249.588ZM68.615 7.02262C63.8488 7.02262 59.1184 7.77518 54.5672 9.1728C54.0025 9.33751 53.4757 9.61184 53.017 9.98013C52.5583 10.3484 52.1766 10.8034 51.8937 11.3192C51.6109 11.835 51.4324 12.4015 51.3685 12.9863C51.3045 13.571 51.3564 14.1627 51.5211 14.7274C51.6858 15.2921 51.9602 15.8189 52.3284 16.2776C52.6967 16.7363 53.1518 17.118 53.6675 17.4009C54.1833 17.6837 54.7498 17.8622 55.3346 17.9261C55.9194 17.9901 56.511 17.9382 57.0757 17.7735C60.8093 16.5955 64.7001 15.9914 68.615 15.9817C72.557 15.9817 76.4273 16.6267 80.1543 17.7735C81.2948 18.1062 82.5208 17.9721 83.5625 17.4009C84.6042 16.8296 85.3763 15.8679 85.7089 14.7274C86.0416 13.5869 85.9075 12.3609 85.3363 11.3192C84.765 10.2775 83.8033 9.50545 82.6628 9.1728C78.114 7.75807 73.3788 7.03329 68.615 7.02262V7.02262ZM254.534 18.3469C253.279 18.3469 252.168 18.8486 251.38 19.6728C247.88 22.9119 244.884 26.6564 242.493 30.7821C240.124 34.9083 238.384 39.3654 237.332 44.0057C237.141 44.591 237.072 45.2096 237.13 45.8228C237.188 46.436 237.372 47.0306 237.67 47.5694C237.969 48.1083 238.375 48.5798 238.864 48.9545C239.353 49.3293 239.914 49.5992 240.511 49.7474C241.109 49.8957 241.731 49.919 242.338 49.816C242.946 49.713 243.525 49.4859 244.041 49.1488C244.556 48.8118 244.997 48.372 245.335 47.857C245.673 47.3421 245.901 46.7629 246.005 46.1558C246.867 42.3296 248.305 38.6564 250.269 35.2616C252.229 31.8626 254.694 28.7813 257.58 26.1234C258.244 25.512 258.709 24.714 258.912 23.8341C259.115 22.9542 259.048 22.0335 258.718 21.1926C258.389 20.3518 257.813 19.6301 257.066 19.1223C256.319 18.6144 255.437 18.3442 254.534 18.3469V18.3469ZM68.615 21.393C66.4648 21.393 64.2788 21.608 62.1645 22.038C61.2468 22.1801 60.3959 22.6038 59.7296 23.2506C59.0632 23.8975 58.6144 24.7354 58.4452 25.6485C58.2759 26.5616 58.3947 27.5047 58.7849 28.3473C59.1752 29.19 59.8177 29.8905 60.6235 30.352C61.6269 30.9254 62.7379 31.0688 63.7771 30.8537C66.9696 30.2031 70.2605 30.2031 73.4529 30.8537C74.0318 30.9596 74.6258 30.9505 75.2011 30.8268C75.7764 30.7031 76.3217 30.4673 76.8059 30.1329C77.2901 29.7984 77.7036 29.3719 78.023 28.8776C78.3423 28.3834 78.5612 27.831 78.6671 27.2522C78.773 26.6734 78.7638 26.0793 78.6401 25.504C78.5164 24.9287 78.2806 24.3834 77.9462 23.8992C77.6118 23.415 77.1852 23.0015 76.691 22.6821C76.1967 22.3628 75.6444 22.1439 75.0655 22.038C72.9415 21.6134 70.7811 21.3974 68.615 21.393V21.393ZM262.167 31.0329C260.733 31.0329 259.515 31.6421 258.691 32.6814C255.832 35.9524 253.641 39.7506 252.24 43.8623C252.001 44.4241 251.879 45.0289 251.882 45.6395C251.885 46.25 252.013 46.8536 252.258 47.4129C252.503 47.9723 252.859 48.4757 253.306 48.8923C253.752 49.3089 254.279 49.6298 254.854 49.8353C255.429 50.0408 256.04 50.1266 256.649 50.0874C257.258 50.0482 257.853 49.8849 258.397 49.6074C258.941 49.33 259.423 48.9443 259.812 48.4739C260.201 48.0036 260.49 47.4587 260.662 46.8726C261.694 43.7803 263.339 40.9281 265.5 38.4869C266.072 37.8424 266.446 37.0464 266.577 36.1945C266.709 35.3426 266.591 34.4709 266.239 33.684C265.888 32.8971 265.316 32.2284 264.594 31.7582C263.871 31.288 263.029 31.0361 262.167 31.0329V31.0329ZM68.615 35.7275C68.0416 35.7275 67.4324 35.7633 66.859 35.835C66.2665 35.8781 65.6885 36.0386 65.1586 36.3073C64.6287 36.5759 64.1575 36.9473 63.7725 37.3998C63.3875 37.8522 63.0963 38.3768 62.916 38.9428C62.7356 39.5089 62.6697 40.1052 62.7219 40.697C62.7742 41.2888 62.9437 41.8642 63.2205 42.3899C63.4974 42.9156 63.876 43.3809 64.3343 43.7589C64.7927 44.1368 65.3217 44.4198 65.8905 44.5914C66.4593 44.763 67.0565 44.8197 67.6474 44.7582C68.3029 44.6958 68.9629 44.6958 69.6184 44.7582C70.2067 44.8076 70.7989 44.7407 71.3613 44.5612C71.9237 44.3818 72.4452 44.0933 72.8961 43.7123C73.347 43.3312 73.7185 42.8651 73.9893 42.3406C74.26 41.816 74.4248 41.2432 74.4742 40.655C74.5237 40.0667 74.4567 39.4745 74.2773 38.9121C74.0978 38.3497 73.8093 37.8281 73.4283 37.3772C73.0473 36.9263 72.5812 36.5549 72.0566 36.2841C71.532 36.0134 70.9592 35.8486 70.371 35.7992C69.7869 35.7513 69.2011 35.7274 68.615 35.7275V35.7275ZM271.986 41.6763C270.445 41.6763 269.083 42.4289 268.259 43.6473C267.591 44.6066 267.016 45.6264 266.539 46.6934C266.25 47.2297 266.074 47.8192 266.021 48.4258C265.968 49.0325 266.04 49.6435 266.231 50.2217C266.422 50.7998 266.729 51.3329 267.133 51.7884C267.538 52.2439 268.03 52.6122 268.582 52.8707C269.133 53.1293 269.731 53.2728 270.34 53.2924C270.949 53.3119 271.555 53.2072 272.122 52.9846C272.688 52.7619 273.204 52.4261 273.637 51.9975C274.069 51.569 274.41 51.0567 274.638 50.492C274.912 49.8855 275.248 49.3091 275.641 48.7719C276.124 48.1014 276.411 47.3106 276.472 46.4869C276.533 45.6632 276.365 44.8386 275.987 44.1044C275.609 43.3701 275.035 42.7547 274.329 42.3262C273.623 41.8977 272.812 41.6728 271.986 41.6763V41.6763ZM283.633 50.062C282.445 50.062 281.305 50.5339 280.465 51.374C279.625 52.2141 279.153 53.3535 279.153 54.5415C279.153 55.7296 279.625 56.869 280.465 57.709C281.305 58.5491 282.445 59.0211 283.633 59.0211C284.821 59.0211 285.96 58.5491 286.8 57.709C287.64 56.869 288.112 55.7296 288.112 54.5415C288.112 53.3535 287.64 52.2141 286.8 51.374C285.96 50.5339 284.821 50.062 283.633 50.062ZM68.9375 50.062C68.3493 50.022 67.7589 50.0982 67.2001 50.2864C66.6413 50.4746 66.1251 50.7709 65.6808 51.1586C65.2366 51.5463 64.873 52.0177 64.6109 52.5459C64.3489 53.074 64.1934 53.6487 64.1534 54.2369C64.1134 54.8252 64.1896 55.4156 64.3778 55.9743C64.566 56.5331 64.8623 57.0494 65.25 57.4936C65.6377 57.9379 66.1091 58.3014 66.6373 58.5635C67.1654 58.8256 67.7401 58.9811 68.3283 59.0211C69.5164 59.1018 70.6878 58.7074 71.585 57.9244C72.4822 57.1415 73.0317 56.0342 73.1125 54.8461C73.1932 53.6581 72.7988 52.4866 72.0158 51.5894C71.2329 50.6922 70.1256 50.1428 68.9375 50.062V50.062ZM297 55.9391C296.081 55.8695 295.163 56.0873 294.373 56.5624C293.583 57.0375 292.961 57.7465 292.592 58.591C292.327 59.195 292.003 59.7712 291.624 60.3112C291.273 60.7929 291.022 61.3398 290.885 61.9198C290.748 62.4998 290.729 63.1013 290.827 63.6891C290.926 64.2768 291.141 64.839 291.459 65.3427C291.778 65.8464 292.194 66.2814 292.682 66.6224C293.171 66.9633 293.723 67.2033 294.306 67.3283C294.888 67.4533 295.49 67.4607 296.076 67.3502C296.661 67.2397 297.219 67.0135 297.716 66.6847C298.213 66.356 298.64 65.9314 298.971 65.4358C299.649 64.4772 300.237 63.4574 300.727 62.3897C301.052 61.7288 301.21 60.9978 301.186 60.2615C301.161 59.5251 300.956 58.8061 300.587 58.1682C300.219 57.5303 299.698 56.9931 299.073 56.6043C298.447 56.2155 297.735 55.987 297 55.9391V55.9391ZM340.899 56.5125C339.748 56.4217 338.607 56.7824 337.718 57.5182C336.828 58.254 336.26 59.307 336.133 60.4545C335.315 67.688 333.022 74.6768 329.396 80.9887C325.749 87.294 320.845 92.7829 314.989 97.115C314.526 97.4774 314.138 97.9275 313.849 98.4397C313.559 98.9519 313.373 99.5161 313.302 100.1C313.23 100.684 313.274 101.276 313.432 101.843C313.589 102.41 313.857 102.941 314.219 103.404C314.581 103.868 315.031 104.255 315.544 104.545C316.056 104.835 316.62 105.021 317.204 105.092C317.788 105.164 318.38 105.119 318.947 104.962C319.514 104.805 320.045 104.537 320.508 104.175C327.262 99.1308 332.919 92.7664 337.136 85.4682C341.347 78.1644 344.029 70.081 345.02 61.7088C345.122 61.0925 345.093 60.4619 344.936 59.8574C344.779 59.2529 344.498 58.6878 344.11 58.1985C343.722 57.7092 343.236 57.3064 342.683 57.0161C342.13 56.7257 341.522 56.5542 340.899 56.5125V56.5125ZM311.155 59.1644C310.159 59.0826 309.165 59.3387 308.333 59.8913C307.501 60.444 306.879 61.261 306.568 62.2105C305.533 65.3015 303.888 68.1532 301.73 70.5962C301.158 71.2407 300.783 72.0366 300.652 72.8886C300.521 73.7405 300.638 74.6122 300.99 75.399C301.342 76.1859 301.913 76.8546 302.636 77.3248C303.358 77.7951 304.201 78.0469 305.063 78.0501C306.496 78.0501 307.715 77.4051 308.539 76.4017C311.397 73.1307 313.588 69.3325 314.989 65.2207C315.244 64.5659 315.341 63.8604 315.272 63.1612C315.204 62.462 314.972 61.7887 314.595 61.1956C314.219 60.6026 313.708 60.1066 313.104 59.7475C312.5 59.3884 311.82 59.1764 311.119 59.1286L311.155 59.1644ZM325.884 59.4153C324.814 59.3401 323.753 59.6542 322.897 60.2996C322.041 60.9451 321.447 61.8783 321.225 62.9272C320.375 66.7517 318.949 70.425 316.996 73.8214C315.034 77.2078 312.569 80.2768 309.686 82.9239C309.226 83.3217 308.852 83.8089 308.586 84.3559C308.321 84.9029 308.17 85.4982 308.142 86.1055C308.114 86.7129 308.21 87.3196 308.424 87.8886C308.638 88.4577 308.966 88.9772 309.387 89.4156C309.808 89.8539 310.314 90.2019 310.874 90.4384C311.435 90.6748 312.037 90.7948 312.645 90.7909C313.253 90.7871 313.854 90.6595 314.411 90.416C314.968 90.1724 315.47 89.818 315.885 89.3744C319.371 86.1448 322.354 82.4124 324.737 78.301C327.109 74.1636 328.849 69.6942 329.897 65.0416C330.068 64.4035 330.096 63.7356 329.978 63.0857C329.86 62.4358 329.6 61.82 329.217 61.2823C328.833 60.7446 328.335 60.2984 327.759 59.9757C327.183 59.6529 326.543 59.4615 325.884 59.4153ZM66.9307 64.3607C65.7427 64.3512 64.5995 64.814 63.7527 65.6473C62.9059 66.4807 62.4248 67.6163 62.4153 68.8044C62.4058 69.9924 62.8687 71.1356 63.702 71.9824C64.5354 72.8292 65.671 73.3102 66.859 73.3197C68.027 73.4312 69.203 73.4312 70.371 73.3197C70.9592 73.268 71.5316 73.1008 72.0552 72.8279C72.5789 72.555 73.0437 72.1815 73.423 71.729C73.8024 71.2764 74.0889 70.7535 74.2662 70.1903C74.4435 69.627 74.5081 69.0343 74.4563 68.446C74.4046 67.8577 74.2374 67.2854 73.9645 66.7618C73.6915 66.2381 73.3181 65.7733 72.8656 65.394C72.413 65.0146 71.8901 64.7281 71.3268 64.5508C70.7635 64.3735 70.1709 64.3089 69.5826 64.3607C68.9273 64.4278 68.2669 64.4278 67.6116 64.3607C67.3731 64.3415 67.1334 64.3415 66.8949 64.3607H66.9307ZM-4.81353 66.045C-5.75065 66.0524 -6.66184 66.3536 -7.4188 66.9061C-8.17577 67.4586 -8.74039 68.2346 -9.03318 69.1248C-9.32597 70.0151 -9.33218 70.9747 -9.05094 71.8687C-8.76969 72.7626 -8.21516 73.5459 -7.46541 74.1081C-1.62258 78.444 3.2684 83.9326 6.90493 90.2345C10.5343 96.5451 12.8275 103.535 13.6422 110.769C13.8085 111.947 14.4362 113.011 15.3871 113.727C16.3381 114.443 17.5345 114.752 18.713 114.585C19.8915 114.419 20.9557 113.791 21.6715 112.84C22.3872 111.889 22.6959 110.693 22.5296 109.514C21.5386 101.142 18.8563 93.0587 14.6456 85.7549C10.4282 78.4568 4.77092 72.0923 -1.98246 67.0484C-2.79057 66.3876 -3.80553 66.0323 -4.84936 66.045H-4.81353ZM62.9529 78.2293C61.8319 78.2227 60.7491 78.6366 59.9184 79.3893C59.0877 80.142 58.5694 81.1789 58.4659 82.2951C58.3624 83.4113 58.6812 84.5258 59.3593 85.4185C60.0374 86.3111 61.0255 86.9171 62.1286 87.1167C66.3878 87.9588 70.7706 87.9588 75.0297 87.1167C75.6109 87.0132 76.166 86.7962 76.6634 86.4781C77.1607 86.16 77.5905 85.7471 77.9283 85.2629C78.266 84.7788 78.5051 84.2328 78.6319 83.6562C78.7587 83.0796 78.7706 82.4837 78.6671 81.9025C78.5636 81.3213 78.3466 80.7662 78.0285 80.2689C77.7104 79.7715 77.2975 79.3417 76.8133 79.0039C76.3291 78.6662 75.7832 78.4271 75.2066 78.3003C74.63 78.1736 74.0341 78.1616 73.4529 78.2651C70.2605 78.9158 66.9696 78.9158 63.7771 78.2651C63.5051 78.2161 63.2292 78.1921 62.9529 78.1935V78.2293ZM-9.79477 80.5228C-10.6948 80.5273 -11.5726 80.8028 -12.3137 81.3133C-13.0549 81.8239 -13.6251 82.5459 -13.95 83.3852C-14.2749 84.2245 -14.3394 85.1423 -14.1352 86.0188C-13.931 86.8953 -13.4674 87.69 -12.805 88.2993C-9.93811 90.9512 -7.46541 94.0331 -5.49442 97.4017C-3.54208 100.798 -2.1163 104.472 -1.26574 108.296C-1.07103 109.176 -0.615605 109.976 0.0410639 110.593C0.697733 111.21 1.52513 111.614 2.41522 111.753C3.30531 111.893 4.21673 111.76 5.03046 111.374C5.8442 110.987 6.52243 110.364 6.97661 109.586C7.58583 108.511 7.69333 107.293 7.44248 106.146C6.37925 101.504 4.62779 97.0464 2.24622 92.9222C-0.133734 88.7984 -3.11728 85.0538 -6.60534 81.8129C-7.02571 81.3983 -7.5239 81.0709 -8.07126 80.8495C-8.61862 80.6281 -9.20435 80.5171 -9.79477 80.5228V80.5228ZM55.2481 91.1662C54.207 91.2725 53.2361 91.74 52.5037 92.4874C51.7713 93.2348 51.3237 94.2151 51.2385 95.2581C51.1534 96.3011 51.4361 97.341 52.0376 98.1973C52.639 99.0536 53.5213 99.6723 54.5313 99.9461C59.0918 101.364 63.8393 102.089 68.615 102.096C73.3812 102.096 78.1116 101.38 82.6628 99.9461C83.2276 99.7814 83.7543 99.507 84.213 99.1388C84.6717 98.7705 85.0534 98.3154 85.3363 97.7996C85.6191 97.2838 85.7976 96.7174 85.8616 96.1326C85.9255 95.5478 85.8736 94.9562 85.7089 94.3915C85.5442 93.8267 85.2699 93.3 84.9016 92.8413C84.5333 92.3826 84.0783 92.0009 83.5625 91.718C83.0467 91.4352 82.4802 91.2567 81.8954 91.1927C81.3107 91.1288 80.719 91.1807 80.1543 91.3454C76.4206 92.5228 72.5299 93.127 68.615 93.1372C64.6881 93.1306 60.785 92.5264 57.0399 91.3454C56.4609 91.165 55.8513 91.104 55.2481 91.1662V91.1662ZM-17.3921 93.1372C-18.254 93.1404 -19.0967 93.3922 -19.8191 93.8625C-20.5415 94.3327 -21.1129 95.0014 -21.4648 95.7883C-21.8166 96.5752 -21.9339 97.4468 -21.8027 98.2988C-21.6714 99.1507 -21.2972 99.9466 -20.7248 100.591C-18.5644 103.032 -16.9189 105.885 -15.8869 108.977C-15.6098 109.788 -15.1059 110.502 -14.4349 111.035C-13.764 111.569 -12.9542 111.898 -12.1016 111.985C-11.249 112.072 -10.3895 111.912 -9.62486 111.525C-8.86027 111.138 -8.22275 110.54 -7.78794 109.801C-7.07121 108.583 -6.99954 107.185 -7.42958 105.967C-8.8413 101.852 -11.0449 98.0536 -13.9159 94.7857C-14.3365 94.2699 -14.8667 93.8544 -15.468 93.5693C-16.0693 93.2841 -16.7266 93.1365 -17.3921 93.1372V93.1372ZM45.5006 102.67C44.4689 102.716 43.485 103.118 42.7156 103.807C41.9461 104.496 41.4383 105.429 41.2781 106.45C41.1178 107.47 41.3151 108.514 41.8364 109.406C42.3577 110.297 43.1711 110.981 44.1388 111.342C51.8683 114.68 60.1957 116.411 68.615 116.431C77.0438 116.426 85.3836 114.707 93.127 111.378C93.6729 111.157 94.1699 110.83 94.5896 110.417C95.0093 110.004 95.3435 109.512 95.5731 108.969C95.8028 108.427 95.9233 107.845 95.9279 107.256C95.9324 106.667 95.8209 106.082 95.5997 105.537C95.3785 104.991 95.052 104.494 94.6387 104.074C94.2255 103.654 93.7336 103.32 93.1912 103.09C92.6488 102.861 92.0664 102.74 91.4774 102.736C90.8884 102.731 90.3043 102.843 89.7584 103.064C83.0866 105.965 75.8902 107.465 68.615 107.472C61.3398 107.465 54.1434 105.965 47.4716 103.064C46.8497 102.798 46.1761 102.676 45.5006 102.705V102.67ZM-27.2112 103.745C-28.0461 103.738 -28.8663 103.965 -29.5792 104.4C-30.2921 104.834 -30.8693 105.46 -31.2457 106.205C-31.6221 106.95 -31.7827 107.786 -31.7094 108.618C-31.636 109.449 -31.3317 110.244 -30.8307 110.912C-30.4544 111.441 -30.1304 112.005 -29.8631 112.596C-29.6137 113.13 -29.2615 113.61 -28.8266 114.008C-28.3918 114.406 -27.8828 114.715 -27.3287 114.916C-26.7747 115.117 -26.1864 115.208 -25.5975 115.182C-25.0085 115.156 -24.4305 115.014 -23.8963 114.764C-23.3622 114.515 -22.8824 114.163 -22.4844 113.728C-22.0864 113.293 -21.7779 112.784 -21.5765 112.23C-21.3752 111.676 -21.285 111.088 -21.311 110.499C-21.3371 109.91 -21.4788 109.332 -21.7283 108.798C-22.229 107.729 -22.8289 106.709 -23.5201 105.752C-23.9284 105.147 -24.4781 104.652 -25.1214 104.309C-25.7646 103.965 -26.482 103.784 -27.2112 103.781V103.745ZM391.142 112.202C389.953 112.202 388.814 112.674 387.974 113.514C387.134 114.354 386.662 115.494 386.662 116.682C386.662 117.87 387.134 119.009 387.974 119.849C388.814 120.689 389.953 121.161 391.142 121.161V112.202ZM-38.8938 112.202V121.161C-37.7058 121.161 -36.5664 120.689 -35.7263 119.849C-34.8862 119.009 -34.4143 117.87 -34.4143 116.682C-34.4143 115.494 -34.8862 114.354 -35.7263 113.514C-36.5664 112.674 -37.7058 112.202 -38.8938 112.202V112.202ZM283.633 116.932C275.216 116.941 266.889 118.66 259.156 121.985C258.599 122.196 258.089 122.515 257.656 122.925C257.223 123.335 256.876 123.827 256.636 124.373C256.396 124.918 256.267 125.506 256.258 126.102C256.248 126.698 256.357 127.29 256.579 127.844C256.8 128.397 257.13 128.901 257.549 129.325C257.968 129.749 258.467 130.085 259.018 130.314C259.568 130.542 260.159 130.659 260.755 130.657C261.351 130.654 261.941 130.533 262.489 130.299C269.161 127.397 276.357 125.897 283.633 125.892C290.907 125.892 298.111 127.433 304.776 130.335C305.324 130.554 305.91 130.663 306.501 130.655C307.091 130.648 307.674 130.524 308.216 130.291C308.759 130.058 309.25 129.72 309.662 129.298C310.074 128.875 310.399 128.375 310.617 127.827C310.836 127.278 310.945 126.692 310.937 126.102C310.93 125.512 310.806 124.929 310.573 124.387C310.34 123.844 310.002 123.353 309.58 122.941C309.157 122.529 308.657 122.204 308.109 121.985C300.374 118.672 292.047 116.965 283.633 116.968V116.932ZM377.739 118.079C377.007 118.133 376.299 118.365 375.678 118.756C375.057 119.147 374.541 119.685 374.176 120.322C373.812 120.959 373.609 121.676 373.587 122.41C373.565 123.144 373.723 123.872 374.048 124.53C374.536 125.598 375.124 126.618 375.804 127.576C376.135 128.071 376.561 128.496 377.058 128.825C377.555 129.154 378.113 129.38 378.698 129.49C379.284 129.601 379.886 129.593 380.469 129.468C381.051 129.343 381.603 129.103 382.092 128.762C382.581 128.422 382.997 127.986 383.315 127.483C383.634 126.979 383.848 126.417 383.947 125.829C384.045 125.241 384.026 124.64 383.889 124.06C383.752 123.48 383.501 122.933 383.15 122.451C382.759 121.913 382.423 121.337 382.147 120.731C381.773 119.89 381.15 119.184 380.361 118.709C379.573 118.235 378.657 118.015 377.739 118.079V118.079ZM333.839 118.653C333.219 118.699 332.616 118.874 332.067 119.166C331.518 119.459 331.037 119.862 330.652 120.351C330.268 120.84 329.99 121.403 329.835 122.005C329.68 122.608 329.653 123.235 329.754 123.849C330.735 132.218 333.405 140.301 337.602 147.608C341.824 154.893 347.481 161.245 354.23 166.279C355.166 167.011 356.355 167.341 357.534 167.196C358.714 167.052 359.788 166.445 360.519 165.509C361.251 164.572 361.581 163.384 361.437 162.204C361.292 161.025 360.685 159.951 359.749 159.219C353.893 154.887 348.99 149.398 345.343 143.093C341.721 136.792 339.428 129.816 338.606 122.595C338.47 121.451 337.9 120.403 337.012 119.669C336.124 118.935 334.988 118.571 333.839 118.653V118.653ZM363.619 121.269C362.918 121.316 362.238 121.528 361.635 121.888C361.031 122.247 360.52 122.743 360.143 123.336C359.766 123.929 359.534 124.602 359.466 125.301C359.397 126 359.494 126.706 359.749 127.361C361.15 131.473 363.341 135.271 366.199 138.542C366.57 139.023 367.034 139.424 367.564 139.72C368.094 140.016 368.679 140.201 369.282 140.264C369.886 140.328 370.497 140.268 371.076 140.088C371.656 139.908 372.194 139.612 372.655 139.218C373.117 138.824 373.495 138.34 373.764 137.796C374.033 137.252 374.189 136.659 374.222 136.053C374.255 135.447 374.164 134.84 373.956 134.27C373.747 133.7 373.425 133.178 373.008 132.736C370.85 130.293 369.205 127.442 368.17 124.351C367.862 123.404 367.247 122.588 366.423 122.03C365.599 121.471 364.612 121.204 363.619 121.269V121.269ZM348.855 121.555C348.196 121.602 347.555 121.793 346.979 122.116C346.403 122.439 345.905 122.885 345.522 123.422C345.138 123.96 344.878 124.576 344.761 125.226C344.643 125.876 344.67 126.544 344.841 127.182C345.89 131.834 347.629 136.304 350.001 140.441C352.393 144.567 355.389 148.311 358.889 151.55C359.517 152.173 360.316 152.596 361.185 152.766C362.054 152.935 362.953 152.843 363.769 152.502C364.586 152.161 365.283 151.586 365.773 150.849C366.263 150.112 366.524 149.246 366.522 148.361C366.522 147.071 365.984 145.852 365.089 145.064C359.28 139.721 355.241 132.732 353.513 125.031C353.284 123.98 352.683 123.046 351.82 122.401C350.958 121.756 349.893 121.443 348.819 121.52L348.855 121.555ZM34.5705 128.149C33.4955 128.149 32.492 128.508 31.7036 129.153C24.9503 134.197 19.293 140.561 15.0756 147.859C10.8658 155.163 8.18356 163.247 7.19162 171.619C7.10927 172.202 7.14266 172.796 7.28989 173.367C7.43712 173.938 7.6953 174.474 8.0497 174.944C8.4041 175.415 8.84778 175.812 9.3554 176.111C9.86302 176.411 10.4246 176.607 11.0082 176.689C11.5917 176.772 12.1858 176.738 12.7565 176.591C13.3271 176.444 13.8632 176.186 14.334 175.831C14.8049 175.477 15.2014 175.033 15.5008 174.526C15.8002 174.018 15.9967 173.456 16.079 172.873C16.8957 165.639 19.1888 158.65 22.8162 152.339C26.4624 146.033 31.366 140.544 37.2224 136.212C37.9722 135.65 38.5267 134.867 38.808 133.973C39.0892 133.079 39.083 132.119 38.7902 131.229C38.4974 130.339 37.9328 129.563 37.1758 129.01C36.4189 128.458 35.5077 128.157 34.5705 128.149V128.149ZM283.633 131.267C278.866 131.267 274.136 131.984 269.585 133.417C269.02 133.582 268.493 133.856 268.035 134.225C267.576 134.593 267.194 135.048 266.911 135.564C266.629 136.079 266.45 136.646 266.386 137.231C266.322 137.815 266.374 138.407 266.539 138.972C266.704 139.537 266.978 140.063 267.346 140.522C267.714 140.981 268.169 141.362 268.685 141.645C269.201 141.928 269.767 142.107 270.352 142.171C270.937 142.234 271.529 142.183 272.093 142.018C275.827 140.84 279.718 140.236 283.633 140.226C287.575 140.226 291.445 140.871 295.172 142.018C296.035 142.293 296.96 142.3 297.827 142.039C298.694 141.777 299.461 141.259 300.027 140.553C300.594 139.847 300.933 138.986 301 138.083C301.068 137.18 300.86 136.278 300.404 135.496C299.807 134.469 298.828 133.722 297.681 133.417C293.132 132.003 288.396 131.278 283.633 131.267V131.267ZM39.5159 142.591C38.2975 142.591 37.1508 143.093 36.3624 143.917C32.8616 147.156 29.8659 150.9 27.475 155.026C25.1049 159.152 23.3655 163.609 22.3145 168.25C22.1734 168.822 22.1462 169.416 22.2346 169.998C22.3229 170.58 22.5251 171.14 22.8296 171.644C23.1341 172.148 23.5349 172.587 24.0091 172.936C24.4834 173.286 25.0218 173.538 25.5936 173.679C26.1653 173.82 26.7593 173.848 27.3416 173.759C27.9239 173.671 28.4831 173.469 28.9873 173.164C29.4914 172.86 29.9306 172.459 30.2799 171.985C30.6291 171.51 30.8816 170.972 31.0228 170.4C31.8728 166.576 33.2986 162.902 35.2514 159.506C37.2115 156.107 39.6765 153.026 42.562 150.368C43.2267 149.756 43.691 148.958 43.8942 148.079C44.0974 147.199 44.0298 146.278 43.7005 145.437C43.3711 144.596 42.7953 143.874 42.0485 143.367C41.3018 142.859 40.419 142.589 39.5159 142.591V142.591ZM283.633 145.602C281.483 145.602 279.296 145.817 277.182 146.247C276.264 146.389 275.414 146.812 274.747 147.459C274.081 148.106 273.632 148.944 273.463 149.857C273.294 150.77 273.412 151.713 273.803 152.556C274.193 153.399 274.835 154.099 275.641 154.561C276.645 155.134 277.756 155.277 278.795 155.062C281.987 154.412 285.278 154.412 288.471 155.062C289.049 155.171 289.644 155.164 290.22 155.042C290.796 154.921 291.343 154.687 291.829 154.354C292.315 154.021 292.73 153.596 293.052 153.103C293.373 152.609 293.594 152.058 293.703 151.479C293.811 150.9 293.804 150.305 293.683 149.729C293.561 149.153 293.327 148.606 292.994 148.12C292.662 147.635 292.236 147.219 291.743 146.898C291.25 146.576 290.698 146.355 290.119 146.247C287.983 145.82 285.811 145.604 283.633 145.602V145.602ZM47.1491 155.277C45.7515 155.277 44.4972 155.887 43.7088 156.89C40.8465 160.172 38.655 163.982 37.2583 168.107C37.0191 168.668 36.8973 169.273 36.9003 169.884C36.9033 170.494 37.0312 171.098 37.276 171.657C37.5207 172.217 37.8773 172.72 38.3237 173.137C38.7702 173.553 39.297 173.874 39.872 174.08C40.447 174.285 41.0579 174.371 41.6672 174.332C42.2766 174.293 42.8714 174.129 43.4154 173.852C43.9593 173.574 44.4407 173.189 44.8301 172.718C45.2195 172.248 45.5087 171.703 45.6798 171.117C46.7101 168.013 48.3555 165.149 50.5177 162.695C51.0921 162.049 51.4669 161.249 51.5969 160.394C51.7269 159.539 51.6065 158.664 51.2503 157.876C50.894 157.088 50.3172 156.42 49.5894 155.952C48.8617 155.485 48.0141 155.238 47.1491 155.241V155.277ZM283.633 159.9C283.059 159.9 282.45 159.9 281.877 160.008C281.284 160.051 280.706 160.211 280.176 160.48C279.646 160.749 279.175 161.12 278.79 161.572C278.405 162.025 278.114 162.549 277.934 163.116C277.753 163.682 277.687 164.278 277.74 164.87C277.792 165.461 277.961 166.037 278.238 166.563C278.515 167.088 278.894 167.554 279.352 167.932C279.81 168.31 280.339 168.593 280.908 168.764C281.477 168.936 282.074 168.992 282.665 168.931C283.321 168.866 283.981 168.866 284.636 168.931C285.224 168.98 285.817 168.913 286.379 168.734C286.941 168.554 287.463 168.266 287.914 167.885C288.365 167.504 288.736 167.038 289.007 166.513C289.278 165.989 289.443 165.416 289.492 164.828C289.541 164.239 289.474 163.647 289.295 163.085C289.115 162.522 288.827 162.001 288.446 161.55C288.065 161.099 287.599 160.728 287.074 160.457C286.55 160.186 285.977 160.021 285.389 159.972C284.805 159.921 284.219 159.897 283.633 159.9V159.9ZM56.9682 165.885C55.4273 165.885 54.1013 166.673 53.2412 167.856C52.5754 168.816 51.9996 169.836 51.5211 170.902C51.2327 171.438 51.0566 172.028 51.0037 172.634C50.9508 173.241 51.0221 173.852 51.2133 174.43C51.4045 175.008 51.7116 175.541 52.1158 175.997C52.52 176.452 53.0128 176.821 53.5641 177.079C54.1154 177.338 54.7137 177.481 55.3223 177.501C55.9309 177.52 56.5372 177.416 57.104 177.193C57.6708 176.97 58.1862 176.635 58.6188 176.206C59.0515 175.778 59.3921 175.265 59.6201 174.701C59.8961 174.095 60.2322 173.519 60.6235 172.98C61.1059 172.31 61.3935 171.519 61.4545 170.695C61.5156 169.872 61.3477 169.047 60.9695 168.313C60.5912 167.579 60.0173 166.963 59.3112 166.535C58.605 166.106 57.7942 165.881 56.9682 165.885V165.885ZM68.615 174.306C67.427 174.306 66.2876 174.778 65.4475 175.618C64.6074 176.458 64.1355 177.598 64.1355 178.786C64.1355 179.974 64.6074 181.113 65.4475 181.953C66.2876 182.793 67.427 183.265 68.615 183.265C69.8031 183.265 70.9424 182.793 71.7825 181.953C72.6226 181.113 73.0945 179.974 73.0945 178.786C73.0945 177.598 72.6226 176.458 71.7825 175.618C70.9424 174.778 69.8031 174.306 68.615 174.306V174.306ZM283.955 174.306C282.767 174.226 281.596 174.62 280.698 175.403C279.801 176.186 279.252 177.293 279.171 178.481C279.09 179.669 279.485 180.841 280.268 181.738C281.051 182.635 282.158 183.185 283.346 183.265C283.934 183.305 284.525 183.229 285.083 183.041C285.642 182.853 286.158 182.556 286.603 182.169C287.047 181.781 287.411 181.31 287.673 180.782C287.935 180.253 288.09 179.679 288.13 179.091C288.17 178.502 288.094 177.912 287.906 177.353C287.718 176.794 287.421 176.278 287.034 175.834C286.646 175.39 286.174 175.026 285.646 174.764C285.118 174.502 284.543 174.346 283.955 174.306V174.306ZM81.9819 180.184C81.0688 180.121 80.1588 180.343 79.3763 180.818C78.5937 181.292 77.9769 181.997 77.6099 182.835C77.3337 183.441 76.9976 184.017 76.6065 184.556C76.2556 185.037 76.0044 185.584 75.8676 186.164C75.7308 186.744 75.711 187.346 75.8096 187.933C75.9081 188.521 76.1229 189.083 76.4415 189.587C76.76 190.091 77.1758 190.526 77.6646 190.867C78.1534 191.208 78.7053 191.448 79.288 191.573C79.8707 191.698 80.4725 191.705 81.0581 191.595C81.6437 191.484 82.2014 191.258 82.6985 190.929C83.1955 190.6 83.622 190.176 83.9529 189.68C84.6409 188.721 85.2406 187.701 85.7447 186.634C86.0713 185.971 86.2286 185.237 86.2025 184.498C86.1764 183.758 85.9677 183.037 85.5951 182.399C85.2225 181.76 84.6975 181.223 84.067 180.837C83.4366 180.45 82.7202 180.226 81.9819 180.184V180.184ZM125.881 180.721C124.731 180.641 123.594 181.011 122.711 181.753C121.829 182.495 121.269 183.552 121.151 184.699C120.323 191.935 118.018 198.924 114.378 205.233C110.741 211.535 105.85 217.024 100.008 221.359C99.544 221.722 99.1564 222.172 98.8668 222.684C98.5772 223.196 98.3913 223.76 98.3198 224.344C98.2483 224.928 98.2924 225.521 98.4498 226.088C98.6072 226.655 98.8747 227.185 99.2371 227.649C99.5995 228.112 100.05 228.5 100.562 228.789C101.074 229.079 101.638 229.265 102.222 229.336C102.806 229.408 103.399 229.364 103.966 229.206C104.532 229.049 105.063 228.782 105.526 228.419C112.28 223.375 117.937 217.011 122.154 209.713C126.364 202.408 129.046 194.325 130.038 185.953C130.145 185.331 130.12 184.694 129.964 184.083C129.807 183.472 129.524 182.901 129.131 182.407C128.739 181.913 128.246 181.507 127.686 181.217C127.126 180.926 126.511 180.757 125.881 180.721V180.721ZM96.1373 183.373C95.137 183.293 94.1393 183.555 93.3064 184.114C92.4735 184.674 91.8546 185.499 91.5502 186.455C90.5164 189.546 88.8712 192.398 86.7123 194.841C86.2958 195.282 85.9735 195.804 85.7649 196.374C85.5562 196.944 85.4657 197.551 85.4987 198.157C85.5317 198.763 85.6875 199.356 85.9568 199.901C86.2261 200.445 86.6032 200.928 87.0652 201.322C87.5272 201.716 88.0644 202.012 88.6442 202.192C89.2241 202.372 89.8344 202.432 90.4383 202.369C91.0421 202.305 91.6267 202.12 92.1567 201.824C92.6866 201.528 93.1509 201.127 93.5212 200.646C96.3825 197.377 98.5742 193.578 99.9718 189.465C100.226 188.81 100.323 188.105 100.255 187.406C100.186 186.706 99.9544 186.033 99.5776 185.44C99.2009 184.847 98.69 184.351 98.0861 183.992C97.4822 183.633 96.8024 183.421 96.1014 183.373H96.1373ZM110.902 183.66C109.832 183.584 108.772 183.899 107.915 184.544C107.059 185.189 106.465 186.123 106.243 187.172C105.371 191 103.921 194.674 101.943 198.066C99.9911 201.45 97.5384 204.519 94.668 207.168C94.0056 207.777 93.542 208.572 93.3378 209.449C93.1336 210.325 93.1981 211.243 93.523 212.082C93.8479 212.922 94.4181 213.644 95.1593 214.154C95.9004 214.665 96.7782 214.94 97.6782 214.945C98.9325 214.945 100.043 214.443 100.868 213.655C104.355 210.413 107.339 206.669 109.719 202.545C112.12 198.388 113.84 193.945 114.915 189.286C115.086 188.648 115.114 187.98 114.996 187.33C114.878 186.68 114.618 186.064 114.235 185.527C113.851 184.989 113.354 184.543 112.777 184.22C112.201 183.897 111.561 183.706 110.902 183.66V183.66ZM281.948 188.569C281.36 188.564 280.777 188.676 280.231 188.896C279.686 189.117 279.19 189.443 278.77 189.856C278.351 190.269 278.017 190.76 277.788 191.301C277.558 191.843 277.438 192.425 277.433 193.013C277.428 193.601 277.539 194.185 277.76 194.73C277.981 195.275 278.307 195.772 278.72 196.191C279.132 196.61 279.624 196.944 280.165 197.174C280.707 197.403 281.288 197.524 281.877 197.528C283.045 197.639 284.221 197.639 285.389 197.528C285.977 197.477 286.549 197.309 287.073 197.036C287.597 196.763 288.061 196.39 288.441 195.938C288.82 195.485 289.107 194.962 289.284 194.399C289.461 193.835 289.526 193.243 289.474 192.655C289.422 192.066 289.255 191.494 288.982 190.97C288.709 190.447 288.336 189.982 287.883 189.602C287.431 189.223 286.908 188.937 286.345 188.759C285.781 188.582 285.189 188.517 284.6 188.569C283.945 188.636 283.285 188.636 282.629 188.569C282.391 188.55 282.151 188.55 281.913 188.569H281.948ZM210.204 190.254C209.258 190.251 208.335 190.548 207.568 191.102C206.801 191.657 206.229 192.44 205.934 193.339C205.64 194.239 205.638 195.208 205.928 196.109C206.219 197.009 206.788 197.795 207.552 198.353C213.382 202.692 218.261 208.18 221.887 214.479C225.531 220.776 227.848 227.751 228.696 234.977C228.742 235.588 228.913 236.183 229.198 236.726C229.484 237.268 229.878 237.746 230.355 238.13C230.833 238.514 231.384 238.796 231.975 238.959C232.566 239.121 233.184 239.161 233.791 239.075C234.398 238.989 234.98 238.779 235.503 238.459C236.026 238.139 236.477 237.715 236.829 237.213C237.181 236.711 237.426 236.143 237.55 235.542C237.674 234.942 237.673 234.323 237.547 233.723C236.556 225.351 233.874 217.267 229.663 209.963C225.442 202.678 219.785 196.326 213.035 191.293C212.232 190.619 211.217 190.251 210.168 190.254H210.204ZM277.971 202.438C276.85 202.431 275.767 202.845 274.936 203.598C274.105 204.351 273.587 205.387 273.484 206.504C273.38 207.62 273.699 208.734 274.377 209.627C275.055 210.52 276.043 211.126 277.146 211.325C281.406 212.166 285.788 212.166 290.047 211.325C290.639 211.236 291.208 211.029 291.718 210.717C292.229 210.405 292.672 209.993 293.021 209.507C293.37 209.02 293.618 208.469 293.75 207.885C293.882 207.301 293.896 206.696 293.791 206.107C293.685 205.517 293.463 204.955 293.136 204.453C292.81 203.951 292.386 203.52 291.89 203.185C291.394 202.849 290.836 202.617 290.249 202.501C289.661 202.385 289.057 202.388 288.471 202.51C285.278 203.16 281.987 203.16 278.795 202.51C278.524 202.448 278.248 202.412 277.971 202.402V202.438ZM205.223 204.731C204.32 204.729 203.437 204.999 202.69 205.507C201.944 206.015 201.368 206.736 201.038 207.577C200.709 208.418 200.641 209.339 200.845 210.219C201.048 211.099 201.512 211.896 202.177 212.508C205.044 215.16 207.552 218.242 209.487 221.61C211.456 225.016 212.894 228.701 213.752 232.54C213.947 233.42 214.402 234.22 215.059 234.837C215.715 235.454 216.543 235.859 217.433 235.998C218.323 236.137 219.234 236.005 220.048 235.618C220.862 235.232 221.54 234.608 221.994 233.83C222.604 232.755 222.711 231.537 222.46 230.426C221.4 225.771 219.649 221.302 217.264 217.167C214.884 213.043 211.9 209.299 208.412 206.057C207.992 205.643 207.494 205.315 206.946 205.094C206.399 204.872 205.813 204.761 205.223 204.767V204.731ZM270.266 215.375C269.225 215.481 268.254 215.949 267.521 216.696C266.789 217.443 266.341 218.424 266.256 219.467C266.171 220.51 266.454 221.549 267.055 222.406C267.657 223.262 268.539 223.881 269.549 224.155C274.109 225.573 278.857 226.298 283.633 226.305C288.399 226.305 293.129 225.588 297.645 224.155C298.785 223.822 299.747 223.05 300.318 222.008C300.889 220.966 301.023 219.741 300.691 218.6C300.358 217.459 299.586 216.498 298.544 215.927C297.503 215.355 296.277 215.221 295.136 215.554C291.402 216.731 287.512 217.336 283.597 217.346C279.691 217.346 275.785 216.737 272.058 215.554C271.479 215.374 270.869 215.313 270.266 215.375V215.375ZM197.626 217.382C196.764 217.385 195.921 217.637 195.199 218.107C194.476 218.577 193.905 219.246 193.553 220.033C193.201 220.82 193.084 221.691 193.215 222.543C193.346 223.395 193.72 224.191 194.293 224.836C196.452 227.278 198.097 230.13 199.131 233.221C199.408 234.032 199.912 234.747 200.583 235.28C201.254 235.813 202.063 236.142 202.916 236.229C203.769 236.316 204.628 236.156 205.393 235.769C206.157 235.382 206.795 234.784 207.23 234.045C207.946 232.863 208.018 231.465 207.588 230.247C206.183 226.118 203.979 222.307 201.102 219.03C200.681 218.514 200.151 218.099 199.55 217.814C198.948 217.528 198.291 217.381 197.626 217.382V217.382ZM260.518 226.914C259.487 226.961 258.503 227.363 257.733 228.051C256.964 228.74 256.456 229.674 256.296 230.694C256.136 231.714 256.333 232.759 256.854 233.65C257.375 234.542 258.189 235.226 259.156 235.586C266.889 238.912 275.216 240.631 283.633 240.639C292.062 240.636 300.402 238.917 308.145 235.586C308.691 235.365 309.188 235.039 309.607 234.625C310.027 234.212 310.361 233.72 310.591 233.178C310.82 232.635 310.941 232.053 310.946 231.464C310.95 230.875 310.839 230.291 310.617 229.745C310.396 229.199 310.07 228.702 309.656 228.282C309.243 227.863 308.751 227.529 308.209 227.299C307.666 227.069 307.084 226.949 306.495 226.944C305.906 226.94 305.322 227.051 304.776 227.272C298.105 230.174 290.908 231.675 283.633 231.68C276.394 231.68 269.155 230.175 262.525 227.272C261.892 227.002 261.206 226.879 260.518 226.914V226.914ZM187.806 228.025C186.984 228.028 186.177 228.258 185.476 228.689C184.775 229.12 184.207 229.736 183.833 230.469C183.459 231.202 183.294 232.024 183.357 232.844C183.419 233.665 183.706 234.453 184.187 235.121C184.564 235.661 184.888 236.237 185.155 236.841C185.487 237.601 186.025 238.254 186.707 238.727C187.389 239.2 188.189 239.474 189.018 239.518C189.847 239.563 190.671 239.376 191.4 238.979C192.129 238.583 192.734 237.991 193.146 237.271C193.899 235.909 193.899 234.332 193.289 233.042C192.785 231.986 192.185 230.979 191.498 230.032C191.093 229.421 190.545 228.919 189.902 228.569C189.258 228.219 188.539 228.032 187.806 228.025V228.025ZM175.837 236.411C174.7 236.493 173.636 237.006 172.864 237.845C172.091 238.684 171.668 239.786 171.68 240.926H180.639C180.646 240.307 180.524 239.693 180.281 239.123C180.038 238.553 179.68 238.039 179.229 237.615C178.777 237.191 178.243 236.865 177.659 236.657C177.075 236.45 176.455 236.366 175.837 236.411V236.411Z" fill="white"/>
<path d="M28.2992 -7.56274C28.2992 -6.3747 28.7711 -5.23531 29.6112 -4.39523C30.4513 -3.55516 31.5907 -3.08321 32.7787 -3.08321C33.9668 -3.08321 35.1062 -3.55516 35.9462 -4.39523C36.7863 -5.23531 37.2583 -6.3747 37.2583 -7.56274H28.2992ZM314.989 -7.56274C314.989 -6.3747 315.461 -5.23531 316.301 -4.39523C317.142 -3.55516 318.281 -3.08321 319.469 -3.08321C320.657 -3.08321 321.796 -3.55516 322.636 -4.39523C323.477 -5.23531 323.948 -6.3747 323.948 -7.56274H314.989ZM212.39 -7.31189C201.397 -7.40333 190.581 -4.54461 181.069 0.966291C171.682 6.41516 163.887 14.2291 158.461 23.6292C153.034 33.0294 150.166 43.6876 150.143 54.5415C150.133 64.1843 152.38 73.6956 156.705 82.3142C161.03 90.9327 167.312 98.4193 175.049 104.175C175.512 104.537 176.043 104.805 176.61 104.962C177.177 105.119 177.769 105.164 178.353 105.092C178.937 105.021 179.501 104.835 180.013 104.545C180.526 104.255 180.976 103.868 181.338 103.404C181.7 102.941 181.968 102.41 182.125 101.843C182.283 101.276 182.327 100.684 182.255 100.1C182.184 99.5161 181.998 98.9519 181.708 98.4397C181.419 97.9275 181.031 97.4774 180.568 97.115C173.902 92.1985 168.487 85.7835 164.758 78.388C161.029 70.9925 159.091 62.8239 159.102 54.5415C159.121 45.266 161.57 36.1574 166.203 28.1222C170.837 20.087 177.495 13.4055 185.513 8.74276C192.681 4.59649 200.724 2.19588 208.992 1.73517C217.259 1.27447 225.52 2.76662 233.104 6.09088C233.971 6.47324 234.938 6.57026 235.865 6.36797C236.792 6.16568 237.63 5.67452 238.26 4.96522C238.889 4.25593 239.277 3.3651 239.368 2.42106C239.459 1.47701 239.248 0.52846 238.766 -0.287979C238.237 -1.18389 237.414 -1.86806 236.436 -2.22314C228.851 -5.49881 220.688 -7.2288 212.426 -7.31189H212.39ZM-3.48758 -7.31189C-11.7643 -7.22224 -19.9396 -5.47994 -27.5337 -2.1873C-28.1472 -2.02372 -28.7189 -1.7316 -29.2109 -1.33031C-29.7029 -0.929011 -30.104 -0.42771 -30.3876 0.140359C-30.6711 0.708428 -30.8307 1.33029 -30.8557 1.96471C-30.8807 2.59912 -30.7705 3.23161 -30.5325 3.82022C-30.2945 4.40883 -29.9341 4.94012 -29.4752 5.37887C-29.0162 5.81762 -28.4693 6.15381 -27.8706 6.36513C-27.2719 6.57646 -26.6351 6.65809 -26.0024 6.60463C-25.3698 6.55117 -24.7557 6.36384 -24.201 6.05504C-16.6217 2.7367 -8.36823 1.24772 -0.10725 1.70839C8.15373 2.16906 16.1905 4.56647 23.3538 8.70693C31.3788 13.3652 38.0433 20.0447 42.6835 28.0802C47.3238 36.1157 49.7777 45.2267 49.801 54.5057C49.8111 62.788 47.8736 70.9567 44.1447 78.3522C40.4158 85.7476 35.0002 92.1626 28.335 97.0792C27.8715 97.4416 27.4838 97.8917 27.1943 98.4039C26.9047 98.916 26.7188 99.4802 26.6472 100.064C26.5757 100.648 26.6199 101.241 26.7773 101.808C26.9347 102.375 27.2022 102.905 27.5646 103.368C27.9269 103.832 28.377 104.22 28.8892 104.509C29.4014 104.799 29.9656 104.985 30.5496 105.056C31.1336 105.128 31.726 105.084 32.2929 104.926C32.8599 104.769 33.3903 104.501 33.8538 104.139C41.5906 98.3835 47.8728 90.8969 52.1977 82.2783C56.5225 73.6598 58.7699 64.1485 58.76 54.5057C58.7175 43.67 55.8406 33.034 50.4152 23.6543C44.9898 14.2746 37.2048 6.47765 27.8333 1.03796C18.3283 -4.49799 7.51181 -7.38157 -3.48758 -7.31189V-7.31189ZM306.066 -6.12929C305.334 -6.07593 304.626 -5.84348 304.005 -5.45238C303.384 -5.06128 302.868 -4.52352 302.504 -3.88641C302.139 -3.2493 301.937 -2.53236 301.914 -1.79866C301.892 -1.06495 302.05 -0.336977 302.375 0.321238C303.99 3.86928 306.67 6.82559 310.044 8.7786C312.906 10.4229 316.15 11.2882 319.451 11.2882C322.752 11.2882 325.996 10.4229 328.858 8.7786C332.245 6.8314 334.939 3.87448 336.563 0.321238C337.067 -0.757508 337.121 -1.99218 336.715 -3.11116C336.308 -4.23014 335.474 -5.14177 334.395 -5.6455C333.316 -6.14923 332.081 -6.2038 330.962 -5.79721C329.843 -5.39061 328.932 -4.55615 328.428 -3.47741C327.631 -1.77384 326.365 -0.33279 324.778 0.676772C323.191 1.68633 321.35 2.22255 319.469 2.22255C317.588 2.22255 315.746 1.68633 314.16 0.676772C312.573 -0.33279 311.307 -1.77384 310.51 -3.47741C310.135 -4.32483 309.506 -5.03496 308.71 -5.50992C307.914 -5.98488 306.99 -6.20128 306.066 -6.12929V-6.12929ZM262.167 -5.62758C261.54 -5.5865 260.929 -5.41408 260.373 -5.12153C259.817 -4.82898 259.329 -4.42284 258.941 -3.92945C258.552 -3.43607 258.272 -2.86648 258.117 -2.25766C257.963 -1.64884 257.939 -1.01439 258.046 -0.395488C259.152 9.18411 262.487 18.3714 267.782 26.4303C273.078 34.4893 280.188 41.1958 288.542 46.0125C297.946 51.4206 308.603 54.2669 319.451 54.2669C330.299 54.2669 340.956 51.4206 350.36 46.0125C358.714 41.1958 365.824 34.4893 371.12 26.4303C376.416 18.3714 379.75 9.18411 380.857 -0.395488C380.982 -0.995401 380.983 -1.61466 380.859 -2.21496C380.736 -2.81526 380.49 -3.38382 380.138 -3.88546C379.786 -4.3871 379.335 -4.81116 378.812 -5.13139C378.29 -5.45162 377.707 -5.66121 377.1 -5.7472C376.493 -5.83318 375.875 -5.79373 375.284 -5.63129C374.693 -5.46885 374.142 -5.18686 373.665 -4.80279C373.187 -4.41872 372.793 -3.94072 372.508 -3.39838C372.222 -2.85604 372.051 -2.26089 372.005 -1.64976C371.082 6.5812 368.237 14.4799 363.699 21.4084C359.161 28.337 353.057 34.1014 345.88 38.236C337.839 42.8579 328.726 45.2901 319.451 45.2901C310.176 45.2901 301.063 42.8579 293.022 38.236C285.852 34.0972 279.755 28.3311 275.223 21.4027C270.692 14.4744 267.852 6.5779 266.933 -1.64976C266.798 -2.79357 266.227 -3.84131 265.339 -4.57538C264.452 -5.30945 263.316 -5.67344 262.167 -5.59175V-5.62758ZM291.947 -2.9757C291.246 -2.92789 290.566 -2.71588 289.962 -2.3568C289.358 -1.99772 288.847 -1.50163 288.471 -0.908624C288.094 -0.315614 287.862 0.357695 287.793 1.05691C287.725 1.75613 287.822 2.46164 288.076 3.11647C290.662 10.7111 295.923 17.1054 302.877 21.1063C307.92 24.0052 313.634 25.5308 319.451 25.5308C325.268 25.5308 330.983 24.0052 336.025 21.1063C342.993 17.0879 348.255 10.666 350.826 3.0448C351.077 2.48012 351.208 1.86963 351.212 1.25171C351.215 0.633793 351.091 0.0218151 350.847 -0.545745C350.602 -1.11331 350.243 -1.62417 349.792 -2.04623C349.34 -2.46828 348.807 -2.79239 348.224 -2.99818C347.641 -3.20397 347.022 -3.28698 346.406 -3.242C345.79 -3.19703 345.19 -3.02503 344.643 -2.73683C344.096 -2.44863 343.615 -2.05045 343.23 -1.56735C342.845 -1.08424 342.564 -0.526639 342.404 0.0703843C340.53 5.67051 336.667 10.3884 331.546 13.3298C327.866 15.4459 323.696 16.5595 319.451 16.5595C315.206 16.5595 311.036 15.4459 307.356 13.3298C302.236 10.3884 298.372 5.67051 296.498 0.0703843C296.189 -0.875937 295.575 -1.69259 294.751 -2.25067C293.926 -2.80874 292.94 -3.07645 291.947 -3.01154V-2.9757ZM277.182 -2.68901C276.523 -2.64276 275.883 -2.45139 275.307 -2.12861C274.73 -1.80583 274.233 -1.35963 273.849 -0.82195C273.466 -0.284273 273.206 0.33157 273.088 0.981473C272.97 1.63138 272.998 2.29926 273.168 2.93729C274.609 9.32787 277.359 15.3503 281.245 20.6241C285.131 25.8979 290.068 30.3086 295.745 33.5773C302.965 37.7207 311.145 39.901 319.469 39.901C327.793 39.901 335.973 37.7207 343.193 33.5773C348.87 30.3086 353.807 25.8979 357.693 20.6241C361.579 15.3503 364.329 9.32787 365.769 2.93729C366.055 1.78251 365.869 0.561753 365.254 -0.456419C364.639 -1.47459 363.645 -2.20678 362.49 -2.49191C361.336 -2.77704 360.115 -2.59176 359.097 -1.97682C358.079 -1.36189 357.346 -0.367672 357.061 0.787109C355.908 6.00215 353.681 10.9197 350.522 15.2264C347.362 19.5331 343.341 23.1344 338.713 25.8008C332.853 29.1715 326.211 30.9455 319.451 30.9455C312.691 30.9455 306.049 29.1715 300.189 25.8008C295.565 23.1383 291.546 19.5426 288.387 15.2423C285.228 10.9421 282.999 6.03153 281.841 0.822945C281.612 -0.222411 281.016 -1.15124 280.162 -1.79543C279.307 -2.43962 278.25 -2.75661 277.182 -2.68901V-2.68901ZM389.35 3.90487C388.403 3.90219 387.48 4.19934 386.713 4.75367C385.946 5.308 385.374 6.09104 385.08 6.99045C384.785 7.88987 384.783 8.85946 385.074 9.76013C385.365 10.6608 385.933 11.4463 386.698 12.0039C388.239 13.1506 389.744 14.3691 391.142 15.695V4.26323C390.604 4.01237 389.995 3.86903 389.35 3.86903V3.90487ZM106.243 3.90487C105.168 3.90487 104.165 4.26323 103.376 4.94412C95.6442 10.696 89.365 18.1768 85.0404 26.7887C80.7158 35.4006 78.4657 44.9048 78.47 54.5415C78.4901 65.392 81.3527 76.0478 86.7725 85.4477C92.1924 94.8475 99.9804 102.663 109.361 108.117C117.701 112.946 127.058 115.753 136.679 116.313C146.3 116.873 155.919 115.171 164.764 111.342C165.31 111.121 165.807 110.794 166.226 110.381C166.646 109.968 166.98 109.476 167.21 108.933C167.439 108.391 167.56 107.809 167.565 107.22C167.569 106.631 167.458 106.047 167.236 105.501C167.015 104.955 166.689 104.458 166.275 104.038C165.862 103.618 165.37 103.284 164.828 103.055C164.285 102.825 163.703 102.704 163.114 102.7C162.525 102.695 161.941 102.807 161.395 103.028C153.813 106.341 145.558 107.824 137.297 107.357C129.036 106.89 121.001 104.486 113.84 100.34C105.822 95.6775 99.1647 88.996 94.5309 80.9609C89.8972 72.9257 87.4487 63.817 87.4291 54.5415C87.4245 46.2652 89.3648 38.1037 93.0934 30.7149C96.822 23.3261 102.235 16.9169 108.895 12.0039C109.662 11.4445 110.232 10.6558 110.522 9.75157C110.812 8.84736 110.807 7.87443 110.508 6.97323C110.209 6.07202 109.631 5.28916 108.858 4.73765C108.085 4.18615 107.157 3.89452 106.207 3.90487H106.243ZM-38.8938 4.29906V15.7308C-33.5184 20.6796 -29.2297 26.6912 -26.2994 33.3844C-23.3692 40.0777 -21.8614 47.3067 -21.8716 54.6132C-21.8716 69.4853 -28.2146 83.5689 -38.8938 93.4956V105.035C-30.8724 99.2955 -24.3323 91.7292 -19.8145 82.9614C-15.2966 74.1937 -12.9308 64.4765 -12.9125 54.6132C-12.9027 44.9704 -15.1501 35.4591 -19.4749 26.8406C-23.7997 18.222 -30.0819 10.7354 -37.8187 4.97995C-38.1451 4.7156 -38.507 4.49846 -38.8938 4.3349V4.29906ZM211.853 7.05846C203.548 7.05506 195.389 9.24305 188.201 13.4015C180.998 17.5894 175.017 23.5912 170.855 30.8091C166.693 38.0271 164.494 46.2095 164.477 54.5415C164.47 61.0903 165.82 67.5695 168.441 73.5708C171.062 79.5721 174.898 84.9652 179.707 89.4102C180.334 90.0311 181.13 90.4533 181.995 90.6239C182.86 90.7945 183.757 90.7058 184.572 90.3691C185.387 90.0323 186.084 89.4624 186.577 88.7308C187.069 87.9993 187.335 87.1386 187.341 86.2566C187.341 84.9307 186.803 83.7481 185.907 82.9597C181.968 79.3493 178.825 74.9576 176.677 70.0646C174.53 65.1717 173.426 59.8849 173.436 54.5415C173.452 47.7844 175.237 41.1492 178.613 35.2959C181.989 29.4427 186.839 24.5753 192.68 21.178C197.298 18.4981 202.424 16.8112 207.731 16.225C213.037 15.6388 218.408 16.1662 223.499 17.7735C224.64 18.1062 225.866 17.9721 226.908 17.4009C227.949 16.8296 228.721 15.8679 229.054 14.7274C229.387 13.5869 229.253 12.3609 228.681 11.3192C228.11 10.2776 227.148 9.50545 226.008 9.1728C221.425 7.74741 216.652 7.02251 211.853 7.02262V7.05846ZM-2.95004 7.05846C-7.74984 7.05834 -12.5221 7.78325 -17.1054 9.20864C-17.6701 9.37335 -18.1969 9.64768 -18.6556 10.016C-19.1143 10.3843 -19.496 10.8393 -19.7788 11.3551C-20.0617 11.8709 -20.2402 12.4373 -20.3041 13.0221C-20.368 13.6069 -20.3162 14.1985 -20.1515 14.7633C-19.9867 15.328 -19.7124 15.8547 -19.3441 16.3135C-18.9758 16.7722 -18.5208 17.1538 -18.005 17.4367C-17.4892 17.7196 -16.9228 17.898 -16.338 17.962C-15.7532 18.0259 -15.1616 17.9741 -14.5968 17.8093C-9.50796 16.1967 -4.13865 15.6633 1.16803 16.2433C6.47471 16.8234 11.602 18.504 16.2224 21.178C22.0686 24.5784 26.9218 29.4514 30.2982 35.3115C33.6747 41.1716 35.4566 47.8141 35.4665 54.5774C35.4714 59.9147 34.3651 65.1946 32.218 70.081C30.0709 74.9675 26.9301 79.3534 22.9954 82.9597C22.5356 83.3575 22.1616 83.8447 21.8962 84.3917C21.6308 84.9387 21.4795 85.534 21.4515 86.1414C21.4236 86.7487 21.5196 87.3554 21.7336 87.9245C21.9477 88.4935 22.2753 89.0131 22.6966 89.4514C23.118 89.8898 23.6241 90.2378 24.1842 90.4742C24.7443 90.7107 25.3467 90.8306 25.9547 90.8268C26.5627 90.8229 27.1635 90.6953 27.7206 90.4518C28.2777 90.2083 28.7794 89.8539 29.1951 89.4102C34.0043 84.9652 37.8404 79.5721 40.4617 73.5708C43.083 67.5695 44.4327 61.0903 44.4255 54.5415C44.4053 46.206 42.2009 38.0213 38.0322 30.803C33.8634 23.5847 27.8759 17.5849 20.6661 13.4015C13.502 9.24268 5.36948 7.04271 -2.9142 7.02262L-2.95004 7.05846ZM384.368 18.3827C383.468 18.3872 382.591 18.6627 381.85 19.1732C381.108 19.6838 380.538 20.4058 380.213 21.2451C379.888 22.0844 379.824 23.0022 380.028 23.8787C380.232 24.7552 380.696 25.5499 381.358 26.1592C385.66 30.1233 389.005 35.0124 391.142 40.4579V23.3998C390.014 22.106 388.818 20.8738 387.558 19.7087C387.14 19.2876 386.644 18.9535 386.096 18.7259C385.549 18.4983 384.961 18.3817 384.368 18.3827V18.3827ZM111.189 18.3827C109.97 18.3827 108.823 18.8844 108.035 19.7087C103.23 24.1496 99.3966 29.537 96.7755 35.5317C94.1543 41.5264 92.8023 47.9988 92.8045 54.5415C92.8149 62.8797 95.0108 71.0694 99.1734 78.2942C103.336 85.519 109.32 91.5264 116.528 95.7174C122.194 99.0008 128.48 101.072 134.988 101.8C141.496 102.528 148.084 101.897 154.335 99.9461C155.201 99.7227 155.98 99.2454 156.572 98.5757C157.164 97.906 157.542 97.0745 157.658 96.1881C157.773 95.3018 157.621 94.4011 157.221 93.6019C156.82 92.8028 156.19 92.1417 155.41 91.7038C154.87 91.3993 154.273 91.2103 153.656 91.1486C153.039 91.0869 152.416 91.1539 151.827 91.3454C146.736 92.9527 141.365 93.4801 136.058 92.8939C130.751 92.3077 125.625 90.6208 121.008 87.9409C115.161 84.5405 110.308 79.6675 106.932 73.8074C103.555 67.9473 101.773 61.3048 101.764 54.5415C101.759 49.2042 102.865 43.9243 105.012 39.0379C107.159 34.1514 110.3 29.7655 114.235 26.1592C114.899 25.5478 115.364 24.7499 115.567 23.87C115.77 22.9901 115.702 22.0693 115.373 21.2285C115.044 20.3876 114.468 19.6659 113.721 19.1581C112.974 18.6503 112.092 18.38 111.189 18.3827V18.3827ZM212.605 21.393C206.573 21.2723 200.623 22.8094 195.404 25.8367C190.374 28.7574 186.196 32.9437 183.285 37.9794C180.374 43.0152 178.832 48.7251 178.812 54.5415C178.812 62.9272 181.893 70.5962 187.018 76.4017C187.388 76.8827 187.853 77.2835 188.383 77.5797C188.913 77.8758 189.497 78.0611 190.101 78.1244C190.705 78.1876 191.315 78.1275 191.895 77.9476C192.475 77.7677 193.012 77.4718 193.474 77.0779C193.936 76.684 194.313 76.2003 194.582 75.6562C194.852 75.1121 195.008 74.5189 195.041 73.9127C195.074 73.3065 194.983 72.6999 194.774 72.1298C194.566 71.5597 194.243 71.0379 193.827 70.5962C189.895 66.1733 187.727 60.4593 187.735 54.5415C187.735 45.9408 192.394 37.9135 199.847 33.6131C204.967 30.6415 211.001 29.6592 216.798 30.8538C217.377 30.9596 217.971 30.9505 218.546 30.8268C219.122 30.7031 219.667 30.4673 220.151 30.1329C220.635 29.7984 221.049 29.3719 221.368 28.8776C221.687 28.3834 221.906 27.8311 222.012 27.2522C222.118 26.6734 222.109 26.0793 221.985 25.504C221.862 24.9287 221.626 24.3834 221.291 23.8992C220.957 23.415 220.53 23.0015 220.036 22.6821C219.542 22.3628 218.99 22.1439 218.411 22.038C216.498 21.6511 214.556 21.4352 212.605 21.393V21.393ZM-3.73844 21.393C-5.6736 21.4288 -7.60876 21.6438 -9.50808 22.038C-10.0869 22.1439 -10.6393 22.3628 -11.1335 22.6821C-11.6278 23.0015 -12.0543 23.415 -12.3887 23.8992C-12.7232 24.3834 -12.959 24.9287 -13.0827 25.504C-13.2064 26.0793 -13.2155 26.6734 -13.1096 27.2522C-13.0037 27.8311 -12.7849 28.3834 -12.4655 28.8776C-12.1462 29.3719 -11.7326 29.7984 -11.2484 30.1329C-10.7643 30.4673 -10.2189 30.7031 -9.64364 30.8268C-9.06833 30.9505 -8.4743 30.9596 -7.89545 30.8538C-2.1096 29.6683 3.91016 30.6503 9.01928 33.6131C12.6948 35.7436 15.7476 38.8005 17.8729 42.479C19.9983 46.1575 21.122 50.329 21.1319 54.5774C21.1319 60.7054 18.8384 66.3317 15.0398 70.632C14.4674 71.2765 14.0932 72.0725 13.9619 72.9244C13.8307 73.7763 13.948 74.648 14.2999 75.4349C14.6517 76.2218 15.2231 76.8905 15.9455 77.3607C16.6679 77.8309 17.5106 78.0828 18.3725 78.086C19.806 78.086 21.0603 77.4409 21.8487 76.4017C27.1665 70.3618 30.0973 62.5888 30.091 54.5415C30.0707 48.7251 28.5285 43.0152 25.6177 37.9794C22.7069 32.9437 18.5288 28.7574 13.4988 25.8367C8.27964 22.8094 2.32979 21.2723 -3.7026 21.393H-3.73844ZM-38.8938 23.3998V40.3862C-35.2934 49.4797 -35.2934 59.6034 -38.8938 68.6969L-38.8938 85.7191C-31.3913 77.0637 -27.2568 65.9959 -27.247 54.5415C-27.2418 43.106 -31.3793 32.0556 -38.8938 23.4356V23.3998ZM376.735 31.0329C375.873 31.0361 375.031 31.288 374.308 31.7582C373.586 32.2284 373.014 32.8971 372.663 33.684C372.311 34.4709 372.193 35.3426 372.325 36.1945C372.456 37.0464 372.83 37.8424 373.403 38.4869C377.334 42.9098 379.502 48.6238 379.495 54.5415C379.495 63.1422 374.836 71.2054 367.382 75.5058C362.273 78.4686 356.253 79.4506 350.467 78.2652C349.889 78.1569 349.294 78.1637 348.718 78.2853C348.142 78.4068 347.595 78.6406 347.109 78.9734C346.623 79.3061 346.208 79.7313 345.886 80.2247C345.565 80.7181 345.343 81.2699 345.235 81.8488C345.127 82.4276 345.134 83.0221 345.255 83.5983C345.377 84.1745 345.611 84.7212 345.943 85.207C346.276 85.6929 346.701 86.1084 347.195 86.4299C347.688 86.7514 348.24 86.9726 348.819 87.0809C356.452 88.586 364.623 87.4392 371.862 83.2822C376.897 80.3584 381.078 76.1665 383.989 71.1239C386.9 66.0813 388.44 60.3641 388.454 54.5415C388.454 46.1917 385.336 38.5227 380.211 32.6814C379.795 32.1703 379.27 31.7576 378.676 31.4726C378.081 31.1877 377.431 31.0375 376.771 31.0329H376.735ZM118.822 31.0329C117.424 31.0329 116.17 31.678 115.381 32.6814C110.064 38.7212 107.133 46.4942 107.139 54.5415C107.149 60.3606 108.683 66.0755 111.588 71.1178C114.493 76.1601 118.667 80.3539 123.695 83.2822C130.656 87.3175 138.851 88.6686 146.738 87.0809C147.317 86.975 147.869 86.7561 148.364 86.4368C148.858 86.1174 149.284 85.7039 149.619 85.2197C149.953 84.7355 150.189 84.1902 150.313 83.6149C150.436 83.0396 150.446 82.4455 150.34 81.8667C150.234 81.2878 150.015 80.7355 149.696 80.2413C149.376 79.747 148.963 79.3205 148.478 78.986C147.994 78.6516 147.449 78.4158 146.874 78.2921C146.298 78.1684 145.704 78.1593 145.125 78.2652C139.328 79.4597 133.294 78.4774 128.175 75.5058C124.506 73.3708 121.46 70.3119 119.342 66.6337C117.223 62.9555 116.104 58.7864 116.098 54.5415C116.098 48.4135 118.392 42.7872 122.19 38.4869C122.765 37.8401 123.139 37.0408 123.269 36.1856C123.399 35.3305 123.279 34.4559 122.923 33.6677C122.567 32.8794 121.99 32.2111 121.262 31.7436C120.534 31.2761 119.687 31.0292 118.822 31.0329V31.0329ZM212.318 35.7275C208.986 35.6558 205.617 36.4442 202.571 38.236C199.713 39.8944 197.339 42.2722 195.686 45.1329C194.032 47.9935 193.157 51.2374 193.146 54.5415C193.131 58.4425 194.334 62.2509 196.586 65.4358C197.266 66.4147 198.307 67.0836 199.479 67.2953C200.652 67.507 201.861 67.2442 202.84 66.5646C203.819 65.885 204.488 64.8444 204.699 63.6717C204.911 62.4989 204.648 61.2901 203.969 60.3112C203.161 59.1917 202.597 57.9156 202.312 56.565C202.027 55.2144 202.029 53.8191 202.316 52.469C202.602 51.1188 203.169 49.8437 203.978 48.7255C204.787 47.6074 205.822 46.671 207.015 45.9767C208.805 44.9472 210.874 44.5083 212.928 44.7224C213.519 44.7838 214.116 44.7271 214.685 44.5556C215.253 44.384 215.782 44.101 216.241 43.7231C216.699 43.3451 217.078 42.8797 217.355 42.3541C217.631 41.8284 217.801 41.2529 217.853 40.6611C217.905 40.0693 217.84 39.473 217.659 38.907C217.479 38.3409 217.188 37.8164 216.803 37.3639C216.418 36.9115 215.946 36.5401 215.417 36.2715C214.887 36.0028 214.309 35.8423 213.716 35.7992C213.239 35.7609 212.761 35.737 212.283 35.7275H212.318ZM-3.41591 35.7275L-4.84936 35.7992C-5.43762 35.8509 -6.00993 36.018 -6.5336 36.291C-7.05727 36.5639 -7.52206 36.9374 -7.90142 37.3899C-8.66757 38.3039 -9.03925 39.4848 -8.9347 40.6729C-8.83015 41.8609 -8.25794 42.9588 -7.34394 43.7249C-6.42993 44.4911 -5.24901 44.8628 -4.06096 44.7582C-2.18148 44.591 -0.293376 44.9649 1.38055 45.8357C3.05448 46.7066 4.44436 48.0381 5.38621 49.6732C6.32805 51.3082 6.78255 53.1785 6.69606 55.0635C6.60958 56.9484 5.98572 58.7693 4.89811 60.3112C4.56162 60.7959 4.3239 61.3422 4.19853 61.9188C4.07315 62.4953 4.06258 63.091 4.1674 63.6717C4.3791 64.8444 5.048 65.885 6.02695 66.5646C7.0059 67.2442 8.21471 67.507 9.38745 67.2953C10.5602 67.0836 11.6008 66.4147 12.2804 65.4358C14.5457 62.2551 15.761 58.4464 15.7565 54.5415C15.7469 51.2462 14.8753 48.0107 13.2282 45.1566C11.5811 42.3024 9.21581 39.9289 6.36739 38.2719C3.40843 36.5609 0.0372394 35.6933 -3.38008 35.7633L-3.41591 35.7275ZM366.916 41.6763C366.093 41.6794 365.287 41.9091 364.586 42.3402C363.885 42.7714 363.317 43.3873 362.943 44.1203C362.569 44.8534 362.404 45.6753 362.466 46.4958C362.529 47.3164 362.816 48.1039 363.297 48.7719C364.104 49.8913 364.668 51.1674 364.953 52.518C365.238 53.8687 365.237 55.2639 364.95 56.6141C364.663 57.9642 364.097 59.2394 363.287 60.3575C362.478 61.4757 361.444 62.412 360.251 63.1064C358.45 64.1433 356.368 64.5824 354.302 64.3607C353.714 64.3113 353.121 64.3782 352.559 64.5577C351.997 64.7371 351.475 65.0256 351.024 65.4066C350.113 66.1761 349.546 67.2759 349.446 68.4639C349.346 69.652 349.722 70.831 350.492 71.7416C351.261 72.6523 352.361 73.2199 353.549 73.3197C357.312 73.6423 361.182 72.8897 364.694 70.847C367.552 69.1887 369.926 66.8109 371.58 63.9502C373.233 61.0895 374.109 57.8457 374.119 54.5415C374.124 50.6367 372.908 46.8279 370.643 43.6473C370.231 43.0381 369.676 42.5397 369.026 42.1959C368.376 41.8522 367.651 41.6737 366.916 41.6763ZM128.641 41.6763C127.1 41.6763 125.774 42.4647 124.914 43.6473C122.661 46.8322 121.459 50.6406 121.474 54.5415C121.474 61.2429 125.057 67.5143 130.863 70.847C134.244 72.8073 138.154 73.6595 142.044 73.2839C142.636 73.2408 143.214 73.0802 143.744 72.8116C144.274 72.543 144.745 72.1716 145.13 71.7191C145.515 71.2667 145.806 70.7421 145.987 70.1761C146.167 69.61 146.233 69.0137 146.181 68.4219C146.128 67.8301 145.959 67.2547 145.682 66.729C145.405 66.2033 145.027 65.738 144.568 65.36C144.11 64.9821 143.581 64.6991 143.012 64.5275C142.443 64.3559 141.846 64.2992 141.255 64.3607C139.376 64.5279 137.488 64.154 135.814 63.2832C134.14 62.4123 132.75 61.0808 131.808 59.4457C130.866 57.8107 130.412 55.9404 130.498 54.0554C130.585 52.1705 131.208 50.3496 132.296 48.8077C132.789 48.1372 133.085 47.3428 133.151 46.5135C133.218 45.6842 133.052 44.8527 132.672 44.1123C132.293 43.372 131.715 42.7519 131.003 42.3216C130.291 41.8914 129.473 41.6679 128.641 41.6763V41.6763ZM140.288 50.062C139.1 50.062 137.96 50.5339 137.12 51.374C136.28 52.2141 135.808 53.3535 135.808 54.5415C135.808 55.7296 136.28 56.869 137.12 57.709C137.96 58.5491 139.1 59.0211 140.288 59.0211C141.476 59.0211 142.615 58.5491 143.455 57.709C144.295 56.869 144.767 55.7296 144.767 54.5415C144.767 53.3535 144.295 52.2141 143.455 51.374C142.615 50.5339 141.476 50.062 140.288 50.062ZM211.96 50.062C210.772 50.062 209.633 50.5339 208.793 51.374C207.953 52.2141 207.481 53.3535 207.481 54.5415C207.481 55.7296 207.953 56.869 208.793 57.709C209.633 58.5491 210.772 59.0211 211.96 59.0211C213.148 59.0211 214.288 58.5491 215.128 57.709C215.968 56.869 216.44 55.7296 216.44 54.5415C216.44 53.3535 215.968 52.2141 215.128 51.374C214.288 50.5339 213.148 50.062 211.96 50.062ZM-3.38008 50.062C-3.96834 50.1044 -4.5425 50.2622 -5.06977 50.5264C-5.59704 50.7907 -6.06711 51.1562 -6.45312 51.6021C-6.83913 52.048 -7.13354 52.5656 -7.31953 53.1253C-7.50551 53.685 -7.57944 54.2758 -7.53708 54.8641C-7.49473 55.4523 -7.33692 56.0265 -7.07268 56.5538C-6.80843 57.081 -6.44291 57.5511 -5.997 57.9371C-5.55109 58.3231 -5.03351 58.6175 -4.47382 58.8035C-3.91413 58.9895 -3.32328 59.0634 -2.73502 59.0211C-1.54698 58.9355 -0.44157 58.3815 0.33802 57.481C1.11761 56.5804 1.50752 55.4071 1.42198 54.219C1.33645 53.031 0.78246 51.9256 -0.118101 51.146C-1.01866 50.3664 -2.19203 49.9765 -3.38008 50.062ZM355.628 50.062C355.039 50.0196 354.449 50.0936 353.889 50.2796C353.329 50.4655 352.812 50.7599 352.366 51.146C351.92 51.532 351.554 52.002 351.29 52.5293C351.026 53.0566 350.868 53.6307 350.826 54.219C350.783 54.8073 350.857 55.3981 351.043 55.9578C351.229 56.5175 351.524 57.0351 351.91 57.481C352.296 57.9269 352.766 58.2924 353.293 58.5567C353.82 58.8209 354.394 58.9787 354.983 59.0211C356.171 59.1066 357.344 58.7167 358.245 57.9371C359.145 57.1575 359.699 56.0521 359.785 54.8641C359.87 53.676 359.48 52.5026 358.701 51.6021C357.921 50.7015 356.816 50.1475 355.628 50.062V50.062ZM247.796 54.8282C232.64 54.8158 218.009 60.3781 206.689 70.4559C195.369 80.5336 188.151 94.4229 186.409 109.479C186.258 110.32 186.352 111.188 186.678 111.978C187.005 112.769 187.551 113.449 188.252 113.939C188.953 114.429 189.78 114.708 190.634 114.743C191.489 114.778 192.336 114.568 193.074 114.137C193.68 113.781 194.194 113.287 194.574 112.696C194.953 112.104 195.189 111.432 195.26 110.733C196.179 102.505 199.019 94.6087 203.551 87.6803C208.082 80.752 214.179 74.9858 221.349 70.847C229.391 66.2252 238.503 63.7929 247.778 63.7929C257.053 63.7929 266.166 66.2252 274.208 70.847C281.378 74.9858 287.475 80.752 292.006 87.6803C296.538 94.6087 299.378 102.505 300.297 110.733C300.463 111.911 301.091 112.976 302.042 113.691C302.993 114.407 304.189 114.716 305.367 114.549C306.546 114.383 307.61 113.755 308.326 112.804C309.042 111.853 309.35 110.657 309.184 109.479C307.442 94.4229 300.224 80.5336 288.904 70.4559C277.584 60.3781 262.952 54.8158 247.796 54.8282V54.8282ZM391.142 68.6252C387.95 76.7524 382.102 83.5603 374.549 87.9409C369.929 90.6149 364.802 92.2955 359.495 92.8756C354.188 93.4556 348.819 92.9222 343.73 91.3096C342.87 91.0448 341.95 91.0454 341.09 91.3112C340.23 91.577 339.47 92.0957 338.909 92.7997C338.348 93.5037 338.012 94.3603 337.946 95.2579C337.879 96.1554 338.084 97.0524 338.534 97.8318C338.826 98.3466 339.217 98.7986 339.684 99.1615C340.152 99.5244 340.686 99.7911 341.257 99.9461C350.058 102.687 359.467 102.798 368.329 100.264C377.192 97.73 385.12 92.6622 391.142 85.6833V68.6252V68.6252ZM247.796 69.1627C237.024 69.1448 226.567 72.7987 218.15 79.5218C209.733 86.2449 203.859 95.6358 201.496 106.146C201.274 106.999 201.309 107.899 201.596 108.732C201.883 109.566 202.409 110.296 203.109 110.832C203.809 111.367 204.652 111.684 205.532 111.743C206.411 111.802 207.289 111.6 208.054 111.163C208.59 110.859 209.058 110.447 209.428 109.954C209.798 109.46 210.062 108.896 210.204 108.296C211.358 103.081 213.585 98.1634 216.744 93.8567C219.903 89.55 223.924 85.9487 228.552 83.2822C234.408 79.9182 241.043 78.1479 247.796 78.1479C254.55 78.1479 261.185 79.9182 267.04 83.2822C271.668 85.9487 275.69 89.55 278.849 93.8567C282.008 98.1634 284.235 103.081 285.389 108.296C285.588 109.173 286.047 109.97 286.706 110.583C287.365 111.195 288.193 111.595 289.083 111.731C289.972 111.866 290.882 111.73 291.693 111.341C292.504 110.953 293.179 110.328 293.631 109.55C294.276 108.475 294.384 107.257 294.097 106.146C291.741 95.6291 285.87 86.2301 277.452 79.4999C269.034 72.7698 258.574 69.1108 247.796 69.1269V69.1627ZM247.796 83.4972C240.864 83.4812 234.103 85.6459 228.469 89.6848C222.835 93.7237 218.614 99.4322 216.404 106.002C216.206 106.558 216.12 107.147 216.15 107.735C216.18 108.324 216.325 108.901 216.578 109.433C216.831 109.966 217.186 110.443 217.624 110.838C218.061 111.233 218.572 111.539 219.127 111.736C219.683 111.934 220.272 112.02 220.86 111.99C221.449 111.96 222.026 111.815 222.558 111.562C223.091 111.309 223.568 110.954 223.963 110.516C224.358 110.079 224.664 109.568 224.861 109.013C226.719 103.405 230.57 98.6742 235.684 95.7174C239.363 93.6013 243.534 92.4877 247.778 92.4877C252.023 92.4877 256.194 93.6013 259.873 95.7174C264.994 98.6588 268.858 103.377 270.732 108.977C271.126 110.098 271.95 111.017 273.022 111.531C274.094 112.046 275.326 112.113 276.448 111.718C277.569 111.324 278.488 110.5 279.002 109.428C279.516 108.356 279.583 107.124 279.189 106.002C276.985 99.4256 272.766 93.7092 267.132 89.6635C261.498 85.6178 254.733 83.4479 247.796 83.4614V83.4972ZM391.142 93.4239C383.608 100.394 374.205 105.016 364.084 106.722C353.963 108.428 343.564 107.144 334.162 103.028C333.298 102.655 332.339 102.563 331.42 102.765C330.501 102.968 329.669 103.455 329.042 104.157C328.415 104.859 328.026 105.74 327.928 106.676C327.831 107.612 328.031 108.555 328.5 109.371C329.022 110.28 329.846 110.978 330.829 111.342C340.58 115.565 351.257 117.196 361.824 116.078C372.391 114.961 382.49 111.132 391.142 104.963V93.4239ZM247.796 97.8676C244.201 97.8654 240.679 98.8938 237.65 100.831C234.62 102.768 232.209 105.533 230.703 108.798C230.451 109.329 230.306 109.906 230.277 110.493C230.248 111.081 230.335 111.669 230.533 112.223C230.731 112.777 231.036 113.286 231.431 113.722C231.826 114.159 232.303 114.513 232.835 114.764C233.367 115.016 233.943 115.161 234.53 115.19C235.118 115.219 235.706 115.132 236.26 114.934C236.814 114.736 237.323 114.431 237.76 114.036C238.196 113.641 238.55 113.164 238.801 112.632C239.626 110.804 241.023 109.192 242.851 108.117C244.048 107.43 245.376 107.001 246.748 106.858C248.121 106.715 249.509 106.861 250.822 107.286C252.135 107.711 253.344 108.407 254.372 109.327C255.4 110.248 256.224 111.374 256.791 112.632C257.135 113.38 257.678 114.018 258.36 114.477C259.042 114.937 259.838 115.199 260.66 115.236C261.482 115.273 262.298 115.083 263.019 114.687C263.74 114.291 264.338 113.704 264.747 112.991C265.5 111.665 265.535 110.124 264.89 108.798C263.391 105.527 260.981 102.758 257.95 100.82C254.919 98.8814 251.394 97.8566 247.796 97.8676ZM104.774 112.202C104.186 112.16 103.595 112.234 103.035 112.42C102.475 112.606 101.958 112.9 101.512 113.286C101.066 113.672 100.7 114.142 100.436 114.669C100.172 115.197 100.014 115.771 99.9718 116.359C99.9294 116.947 100.003 117.538 100.189 118.098C100.375 118.658 100.67 119.175 101.056 119.621C101.442 120.067 101.912 120.433 102.439 120.697C102.966 120.961 103.541 121.119 104.129 121.161C105.317 121.247 106.49 120.857 107.391 120.077C108.291 119.298 108.845 118.192 108.931 117.004C109.016 115.816 108.626 114.643 107.847 113.742C107.067 112.842 105.962 112.288 104.774 112.202V112.202ZM247.474 112.202C246.866 112.214 246.266 112.349 245.712 112.6C245.158 112.851 244.661 113.212 244.251 113.661C243.841 114.111 243.527 114.639 243.328 115.213C243.128 115.788 243.048 116.397 243.092 117.004C243.136 117.61 243.303 118.202 243.583 118.742C243.863 119.282 244.249 119.759 244.72 120.145C245.19 120.53 245.734 120.816 246.318 120.985C246.903 121.153 247.515 121.201 248.119 121.125C249.307 121.04 250.412 120.486 251.192 119.585C251.972 118.685 252.361 117.511 252.276 116.323C252.19 115.135 251.636 114.03 250.736 113.25C249.835 112.471 248.662 112.081 247.474 112.166V112.202ZM211.494 116.933C203.237 116.992 195.074 118.698 187.484 121.95C186.377 122.392 185.49 123.255 185.02 124.351C184.549 125.446 184.533 126.684 184.975 127.791C185.417 128.898 186.281 129.784 187.377 130.255C188.472 130.725 189.709 130.741 190.817 130.299C198.399 126.986 206.654 125.504 214.915 125.97C223.176 126.437 231.211 128.841 238.371 132.987C246.396 137.645 253.061 144.325 257.701 152.36C262.341 160.396 264.795 169.507 264.819 178.786C264.819 187.065 262.873 195.229 259.138 202.618C255.403 210.007 249.984 216.414 243.317 221.324C242.376 222.06 241.766 223.14 241.622 224.327C241.477 225.513 241.81 226.708 242.546 227.649C243.283 228.59 244.363 229.199 245.549 229.344C246.736 229.488 247.931 229.156 248.872 228.419C256.608 222.664 262.891 215.177 267.215 206.559C271.54 197.94 273.788 188.429 273.778 178.786C273.754 167.932 270.886 157.274 265.46 147.874C260.033 138.473 252.238 130.66 242.851 125.211C233.339 119.7 222.523 116.841 211.53 116.933H211.494ZM-2.59168 116.933C-15.6011 116.816 -28.3119 120.832 -38.8938 128.4V139.939C-31.3603 132.969 -21.9569 128.348 -11.836 126.642C-1.71508 124.936 8.68363 126.219 18.0859 130.335C18.9538 130.718 19.9207 130.815 20.8473 130.612C21.7739 130.41 22.6123 129.919 23.2419 129.21C23.8715 128.5 24.2598 127.609 24.3507 126.665C24.4416 125.721 24.2306 124.773 23.748 123.956C23.2221 123.059 22.3977 122.374 21.4186 122.021C13.8331 118.746 5.67048 117.016 -2.59168 116.933ZM91.0485 118.079C90.3164 118.133 89.6087 118.365 88.9875 118.756C88.3663 119.147 87.8507 119.685 87.4862 120.322C87.1216 120.959 86.9192 121.676 86.8967 122.41C86.8743 123.144 87.0325 123.872 87.3574 124.53C88.9794 128.084 91.6737 131.042 95.0622 132.987C97.9204 134.625 101.157 135.486 104.451 135.486C107.745 135.486 110.982 134.625 113.84 132.987C117.229 131.042 119.923 128.084 121.545 124.53C121.834 123.993 122.01 123.404 122.063 122.797C122.116 122.191 122.044 121.58 121.853 121.001C121.662 120.423 121.355 119.89 120.951 119.435C120.546 118.979 120.054 118.611 119.502 118.352C118.951 118.094 118.353 117.95 117.744 117.931C117.135 117.911 116.529 118.016 115.962 118.239C115.396 118.461 114.88 118.797 114.447 119.226C114.015 119.654 113.674 120.166 113.446 120.731C112.654 122.445 111.387 123.896 109.796 124.912C108.206 125.929 106.357 126.47 104.469 126.47C102.581 126.47 100.733 125.929 99.142 124.912C97.5513 123.896 96.2848 122.445 95.4922 120.731C95.1169 119.884 94.4879 119.174 93.692 118.699C92.8962 118.224 91.9725 118.007 91.0485 118.079ZM47.1491 118.617C46.5255 118.663 45.9184 118.839 45.3669 119.133C44.8154 119.428 44.3316 119.835 43.9468 120.327C43.562 120.82 43.2846 121.388 43.1325 121.995C42.9804 122.601 42.957 123.233 43.0637 123.849C44.1689 133.424 47.4992 142.608 52.7884 150.667C58.0776 158.725 65.179 165.434 73.5246 170.257C82.9322 175.672 93.5966 178.522 104.451 178.522C115.306 178.522 125.97 175.672 135.378 170.257C143.724 165.434 150.825 158.725 156.114 150.667C161.403 142.608 164.734 133.424 165.839 123.849C165.964 123.249 165.965 122.63 165.842 122.029C165.718 121.429 165.473 120.861 165.121 120.359C164.768 119.857 164.317 119.433 163.795 119.113C163.272 118.793 162.689 118.583 162.083 118.497C161.476 118.411 160.858 118.451 160.267 118.613C159.676 118.776 159.124 119.058 158.647 119.442C158.169 119.826 157.776 120.304 157.49 120.846C157.205 121.388 157.033 121.983 156.987 122.595C156.069 130.822 153.229 138.719 148.697 145.647C144.165 152.575 138.068 158.342 130.898 162.48C123.297 166.885 114.717 169.324 105.935 169.576C97.1535 169.829 88.4475 167.887 80.6054 163.927C72.7633 159.967 66.0327 154.113 61.0231 146.896C56.0135 139.679 52.8831 131.326 51.9153 122.595C51.78 121.451 51.2093 120.403 50.3217 119.669C49.4342 118.935 48.298 118.571 47.1491 118.653V118.617ZM76.9649 121.269C76.2608 121.311 75.5768 121.519 74.9684 121.876C74.36 122.233 73.8445 122.728 73.4638 123.322C73.0831 123.916 72.848 124.591 72.7776 125.293C72.7072 125.995 72.8035 126.703 73.0587 127.361C75.6383 134.988 80.9141 141.411 87.8949 145.422C92.9334 148.315 98.6417 149.837 104.451 149.837C110.261 149.837 115.969 148.315 121.008 145.422C127.988 141.411 133.264 134.988 135.844 127.361C136.042 126.806 136.128 126.217 136.098 125.628C136.068 125.039 135.923 124.462 135.67 123.93C135.417 123.397 135.061 122.92 134.624 122.525C134.187 122.13 133.676 121.825 133.12 121.627C132.565 121.429 131.976 121.343 131.387 121.373C130.799 121.403 130.222 121.548 129.689 121.801C129.157 122.054 128.68 122.41 128.284 122.847C127.889 123.284 127.584 123.795 127.387 124.351C125.521 129.945 121.671 134.662 116.564 137.61C112.88 139.733 108.703 140.85 104.451 140.85C100.2 140.85 96.0225 139.733 92.3386 137.61C87.2314 134.662 83.3812 129.945 81.5161 124.351C81.2076 123.404 80.5929 122.588 79.7687 122.03C78.9446 121.471 77.9581 121.204 76.9649 121.269V121.269ZM62.1645 121.555C61.5017 121.6 60.8572 121.792 60.2777 122.117C59.6982 122.442 59.1983 122.892 58.8141 123.434C58.4299 123.976 58.1711 124.597 58.0563 125.251C57.9416 125.905 57.9739 126.577 58.1508 127.218C59.5957 133.602 62.3478 139.617 66.2335 144.884C70.1193 150.152 75.0544 154.557 80.7277 157.822C87.9519 161.972 96.1378 164.156 104.469 164.156C112.801 164.156 120.987 161.972 128.211 157.822C133.881 154.549 138.812 150.137 142.691 144.863C146.571 139.59 149.316 133.569 150.752 127.182C150.974 126.329 150.939 125.429 150.652 124.595C150.365 123.762 149.839 123.032 149.138 122.496C148.438 121.96 147.596 121.643 146.716 121.584C145.836 121.525 144.959 121.727 144.194 122.165C143.657 122.469 143.189 122.88 142.819 123.374C142.449 123.867 142.185 124.431 142.044 125.031C140.89 130.247 138.663 135.164 135.504 139.471C132.345 143.777 128.323 147.379 123.695 150.045C117.84 153.409 111.204 155.18 104.451 155.18C97.6981 155.18 91.0629 153.409 85.2072 150.045C80.5832 147.383 76.564 143.787 73.4052 139.487C70.2463 135.186 68.017 130.276 66.859 125.067C66.6292 124.015 66.0282 123.082 65.1661 122.437C64.304 121.792 63.2384 121.479 62.1645 121.555V121.555ZM321.261 128.113C320.186 128.113 319.182 128.508 318.394 129.153C310.662 134.905 304.383 142.385 300.058 150.997C295.733 159.609 293.483 169.113 293.488 178.75C293.508 189.601 296.37 200.256 301.79 209.656C307.21 219.056 314.998 226.872 324.379 232.325C332.719 237.154 342.075 239.962 351.697 240.522C361.318 241.082 370.937 239.379 379.781 235.551C380.339 235.34 380.849 235.021 381.282 234.611C381.715 234.201 382.061 233.709 382.302 233.163C382.542 232.618 382.67 232.03 382.68 231.434C382.69 230.837 382.581 230.245 382.359 229.692C382.138 229.139 381.808 228.635 381.389 228.211C380.97 227.787 380.471 227.451 379.92 227.222C379.37 226.994 378.779 226.877 378.183 226.879C377.587 226.882 376.997 227.003 376.449 227.237C368.865 230.561 360.605 232.053 352.337 231.592C344.069 231.132 336.026 228.731 328.858 224.585C320.834 219.919 314.174 213.232 309.54 205.19C304.906 197.148 302.46 188.032 302.447 178.75C302.442 170.474 304.382 162.312 308.111 154.923C311.84 147.535 317.252 141.125 323.913 136.212C324.677 135.655 325.246 134.869 325.536 133.969C325.827 133.068 325.825 132.098 325.531 131.199C325.236 130.3 324.664 129.517 323.897 128.962C323.13 128.408 322.207 128.111 321.261 128.113V128.113ZM174.332 128.113C173.376 128.1 172.441 128.393 171.663 128.949C170.886 129.505 170.306 130.295 170.01 131.204C169.714 132.113 169.716 133.093 170.016 134.001C170.317 134.908 170.9 135.696 171.68 136.248C178.34 141.161 183.753 147.571 187.482 154.959C191.21 162.348 193.151 170.51 193.146 178.786C193.123 188.065 190.669 197.176 186.029 205.211C181.388 213.247 174.724 219.926 166.699 224.585C159.538 228.731 151.503 231.135 143.242 231.601C134.981 232.068 126.726 230.585 119.144 227.272C118.28 226.899 117.321 226.807 116.402 227.009C115.483 227.212 114.651 227.699 114.024 228.401C113.398 229.103 113.008 229.985 112.911 230.921C112.813 231.857 113.013 232.799 113.482 233.615C113.993 234.52 114.804 235.218 115.776 235.586C124.62 239.415 134.239 241.118 143.86 240.557C153.482 239.997 162.838 237.19 171.178 232.361C180.566 226.912 188.361 219.098 193.787 209.698C199.213 200.298 202.081 189.64 202.105 178.786C202.115 169.143 199.868 159.632 195.543 151.013C191.218 142.395 184.936 134.908 177.199 129.153C176.391 128.492 175.376 128.137 174.332 128.149V128.113ZM391.142 128.364C383.12 134.104 376.58 141.67 372.062 150.438C367.544 159.205 365.178 168.923 365.16 178.786C365.15 188.429 367.398 197.94 371.723 206.559C376.047 215.177 382.33 222.664 390.066 228.419C390.425 228.706 390.783 228.921 391.142 229.064V217.668C385.768 212.718 381.48 206.706 378.55 200.013C375.62 193.32 374.111 186.092 374.119 178.786C374.119 163.95 380.462 149.83 391.142 139.939V128.364ZM212.068 131.231C207.268 131.231 202.496 131.956 197.912 133.381C197.348 133.546 196.821 133.82 196.362 134.189C195.903 134.557 195.522 135.012 195.239 135.528C194.668 136.569 194.534 137.795 194.866 138.936C195.199 140.077 195.971 141.038 197.013 141.609C198.054 142.181 199.28 142.315 200.421 141.982C205.512 140.375 210.883 139.847 216.19 140.434C221.496 141.02 226.622 142.707 231.24 145.387C237.08 148.791 241.926 153.666 245.296 159.526C248.666 165.386 250.442 172.026 250.448 178.786C250.453 184.123 249.347 189.403 247.2 194.29C245.053 199.176 241.912 203.562 237.977 207.168C237.517 207.566 237.143 208.053 236.878 208.6C236.613 209.147 236.461 209.743 236.433 210.35C236.405 210.957 236.501 211.564 236.715 212.133C236.93 212.702 237.257 213.222 237.678 213.66C238.1 214.098 238.606 214.446 239.166 214.683C239.726 214.919 240.329 215.039 240.937 215.035C241.545 215.031 242.145 214.904 242.702 214.66C243.26 214.417 243.761 214.062 244.177 213.619C248.988 209.181 252.828 203.795 255.456 197.8C258.083 191.805 259.441 185.331 259.443 178.786C259.429 170.444 257.228 162.252 253.059 155.027C248.89 147.802 242.899 141.797 235.684 137.61C228.505 133.459 220.36 131.272 212.068 131.267V131.231ZM-3.16506 131.267C-9.94749 131.269 -16.6498 132.733 -22.8153 135.559C-28.9809 138.386 -34.4649 142.507 -38.8938 147.644L-38.8938 164.738C-35.7094 156.598 -29.8607 149.776 -22.3016 145.387C-17.6813 142.713 -12.554 141.032 -7.2473 140.452C-1.94062 139.872 3.4287 140.405 8.51757 142.018C9.09148 142.213 9.69893 142.289 10.3032 142.242C10.9074 142.195 11.4959 142.026 12.0329 141.745C12.5699 141.465 13.0444 141.078 13.4276 140.608C13.8107 140.139 14.0946 139.596 14.2621 139.014C14.4295 138.431 14.4771 137.821 14.4018 137.219C14.3265 136.618 14.13 136.038 13.8241 135.515C13.5182 134.992 13.1094 134.536 12.6223 134.176C12.1352 133.815 11.58 133.557 10.9903 133.417C6.40701 131.992 1.63474 131.267 -3.16506 131.267V131.267ZM326.206 142.591C324.988 142.591 323.841 143.093 323.053 143.917C318.248 148.358 314.414 153.746 311.793 159.74C309.172 165.735 307.82 172.207 307.822 178.75C307.833 187.088 310.028 195.278 314.191 202.503C318.354 209.728 324.337 215.735 331.546 219.926C337.212 223.209 343.498 225.281 350.006 226.008C356.514 226.736 363.102 226.105 369.353 224.155C370.494 223.822 371.455 223.05 372.027 222.008C372.598 220.967 372.732 219.741 372.399 218.6C372.066 217.46 371.294 216.498 370.253 215.927C369.211 215.355 367.985 215.221 366.845 215.554C361.753 217.159 356.383 217.685 351.076 217.099C345.77 216.513 340.644 214.827 336.025 212.15C330.184 208.752 325.335 203.885 321.958 198.032C318.582 192.178 316.797 185.543 316.781 178.786C316.776 173.449 317.883 168.169 320.03 163.282C322.177 158.396 325.318 154.01 329.252 150.404C329.917 149.792 330.381 148.994 330.584 148.114C330.788 147.234 330.72 146.314 330.391 145.473C330.061 144.632 329.486 143.91 328.739 143.402C327.992 142.895 327.109 142.624 326.206 142.627V142.591ZM169.351 142.591C168.443 142.588 167.555 142.86 166.806 143.373C166.056 143.885 165.48 144.613 165.154 145.46C164.827 146.307 164.766 147.234 164.978 148.117C165.19 148.999 165.665 149.797 166.341 150.404C170.275 154.01 173.416 158.396 175.563 163.282C177.71 168.169 178.816 173.449 178.812 178.786C178.795 185.543 177.011 192.178 173.634 198.032C170.258 203.885 165.408 208.752 159.567 212.15C154.95 214.829 149.824 216.516 144.517 217.102C139.21 217.689 133.84 217.161 128.748 215.554C128.184 215.389 127.592 215.337 127.007 215.401C126.422 215.465 125.856 215.644 125.34 215.927C124.824 216.209 124.369 216.591 124.001 217.05C123.633 217.509 123.358 218.035 123.194 218.6C123.029 219.165 122.977 219.756 123.041 220.341C123.105 220.926 123.283 221.492 123.566 222.008C123.849 222.524 124.231 222.979 124.69 223.347C125.148 223.716 125.675 223.99 126.24 224.155C132.486 226.1 139.067 226.729 145.569 226.001C152.07 225.273 158.35 223.204 164.011 219.926C171.221 215.743 177.209 209.743 181.377 202.524C185.546 195.306 187.75 187.121 187.771 178.786C187.778 172.237 186.428 165.758 183.807 159.757C181.186 153.755 177.349 148.362 172.54 143.917C172.128 143.499 171.637 143.166 171.096 142.939C170.555 142.711 169.974 142.593 169.387 142.591H169.351ZM211.279 145.602C209.344 145.637 207.409 145.888 205.51 146.247C204.592 146.389 203.741 146.812 203.075 147.459C202.408 148.106 201.96 148.944 201.79 149.857C201.621 150.77 201.74 151.713 202.13 152.556C202.52 153.399 203.163 154.099 203.969 154.561C204.972 155.134 206.083 155.277 207.122 155.062C212.908 153.877 218.928 154.859 224.037 157.822C227.713 159.952 230.765 163.009 232.891 166.688C235.016 170.366 236.14 174.538 236.15 178.786C236.15 184.95 233.856 190.576 230.057 194.841C229.485 195.485 229.111 196.281 228.98 197.133C228.848 197.985 228.966 198.857 229.318 199.643C229.669 200.43 230.241 201.099 230.963 201.569C231.686 202.039 232.528 202.291 233.39 202.295C234.824 202.295 236.078 201.649 236.866 200.646C242.184 194.606 245.115 186.833 245.109 178.786C245.095 172.963 243.555 167.246 240.644 162.204C237.733 157.161 233.552 152.969 228.516 150.045C223.297 147.018 217.347 145.481 211.315 145.602H211.279ZM-2.37666 145.602C-8.42794 145.496 -14.3915 147.058 -19.6139 150.117C-24.6387 153.035 -28.8134 157.215 -31.7239 162.244C-34.6344 167.273 -36.1795 172.976 -36.2061 178.786C-36.2061 187.172 -33.0884 194.805 -27.9638 200.646C-27.3744 201.353 -26.5816 201.861 -25.6932 202.101C-24.8049 202.342 -23.8641 202.302 -22.9988 201.989C-22.1334 201.676 -21.3856 201.104 -20.8569 200.351C-20.3282 199.597 -20.0444 198.699 -20.0439 197.779C-20.0439 196.704 -20.4381 195.629 -21.1549 194.841C-25.0865 190.418 -27.2547 184.704 -27.247 178.786C-27.247 170.185 -22.5883 162.122 -15.1344 157.822C-10.0253 154.859 -4.0055 153.877 1.78035 155.062C2.3592 155.168 2.95323 155.159 3.52854 155.035C4.10385 154.912 4.64916 154.676 5.13334 154.341C5.61752 154.007 6.03109 153.58 6.35043 153.086C6.66978 152.592 6.88864 152.04 6.99453 151.461C7.10041 150.882 7.09125 150.288 6.96756 149.713C6.84387 149.137 6.60808 148.592 6.27365 148.108C5.93921 147.624 5.51268 147.21 5.01842 146.891C4.52415 146.571 3.97183 146.352 3.39298 146.247C1.49283 145.86 -0.43807 145.644 -2.37666 145.602V145.602ZM391.142 147.644C383.658 156.283 379.525 167.321 379.495 178.75C379.472 190.21 383.611 201.289 391.142 209.928V192.941C387.554 183.858 387.554 173.75 391.142 164.666V147.608V147.644ZM333.839 155.241C332.442 155.241 331.187 155.922 330.363 156.926C325.045 162.966 322.115 170.739 322.121 178.786C322.141 184.602 323.683 190.312 326.594 195.348C329.505 200.384 333.683 204.57 338.713 207.491C345.673 211.526 353.869 212.877 361.756 211.289C362.335 211.184 362.887 210.965 363.381 210.645C363.875 210.326 364.302 209.912 364.636 209.428C364.971 208.944 365.207 208.399 365.33 207.823C365.454 207.248 365.463 206.654 365.357 206.075C365.251 205.496 365.033 204.944 364.713 204.45C364.394 203.956 363.98 203.529 363.496 203.195C363.012 202.86 362.467 202.624 361.891 202.501C361.316 202.377 360.722 202.368 360.143 202.474C354.35 203.679 348.316 202.71 343.193 199.75C339.518 197.612 336.47 194.548 334.35 190.863C332.231 187.178 331.116 183.001 331.116 178.75C331.116 172.622 333.409 166.996 337.208 162.731C337.782 162.084 338.157 161.285 338.287 160.43C338.417 159.575 338.297 158.7 337.941 157.912C337.584 157.124 337.007 156.456 336.28 155.988C335.552 155.52 334.704 155.274 333.839 155.277V155.241ZM161.789 155.277C160.924 155.274 160.077 155.52 159.349 155.988C158.621 156.456 158.044 157.124 157.688 157.912C157.332 158.7 157.212 159.575 157.342 160.43C157.472 161.285 157.846 162.084 158.421 162.731C162.352 167.154 164.521 172.868 164.513 178.786C164.513 187.387 159.854 195.45 152.436 199.75C147.317 202.722 141.283 203.704 135.486 202.51C134.907 202.404 134.313 202.413 133.737 202.537C133.162 202.66 132.617 202.896 132.133 203.23C131.648 203.565 131.235 203.991 130.915 204.486C130.596 204.98 130.377 205.532 130.271 206.111C130.165 206.69 130.175 207.284 130.298 207.859C130.422 208.435 130.658 208.98 130.992 209.464C131.327 209.948 131.753 210.362 132.247 210.681C132.742 211.001 133.294 211.219 133.873 211.325C141.47 212.83 149.641 211.684 156.916 207.527C161.938 204.594 166.105 200.398 169.003 195.356C171.901 190.314 173.429 184.601 173.436 178.786C173.436 170.4 170.318 162.767 165.194 156.926C164.773 156.41 164.243 155.995 163.642 155.709C163.04 155.424 162.383 155.277 161.718 155.277H161.789ZM211.673 159.936C211.172 159.936 210.706 159.972 210.24 160.044C209.641 160.076 209.055 160.228 208.516 160.491C207.977 160.754 207.496 161.122 207.102 161.575C206.708 162.027 206.409 162.554 206.223 163.124C206.036 163.694 205.966 164.295 206.017 164.893C206.067 165.491 206.237 166.072 206.516 166.603C206.796 167.134 207.179 167.603 207.643 167.983C208.107 168.363 208.642 168.646 209.218 168.815C209.793 168.984 210.397 169.035 210.993 168.967C212.878 168.794 214.773 169.166 216.453 170.038C218.134 170.91 219.528 172.246 220.472 173.888C221.415 175.529 221.868 177.407 221.775 179.298C221.683 181.189 221.05 183.014 219.952 184.556C219.617 185.04 219.382 185.586 219.259 186.162C219.136 186.737 219.127 187.332 219.234 187.911C219.34 188.49 219.56 189.042 219.88 189.536C220.199 190.031 220.614 190.457 221.098 190.791C221.583 191.125 222.129 191.361 222.705 191.484C223.28 191.607 223.875 191.616 224.454 191.509C225.033 191.403 225.585 191.183 226.079 190.863C226.573 190.543 227 190.129 227.334 189.644C229.592 186.474 230.807 182.679 230.81 178.786C230.81 172.085 227.191 165.813 221.385 162.48C218.426 160.769 215.055 159.902 211.638 159.972L211.673 159.936ZM-2.66335 159.972C-5.99613 159.9 -9.36474 160.724 -12.4108 162.48C-15.2778 164.131 -17.6608 166.507 -19.3212 169.368C-20.9815 172.23 -21.861 175.478 -21.8716 178.786C-21.8761 182.691 -20.6608 186.5 -18.3955 189.68C-18.059 190.165 -17.6303 190.579 -17.134 190.898C-16.6376 191.217 -16.0832 191.435 -15.5026 191.54C-14.9219 191.645 -14.3262 191.634 -13.7496 191.509C-13.173 191.383 -12.6268 191.145 -12.142 190.809C-11.6573 190.473 -11.2436 190.044 -10.9246 189.547C-10.6055 189.051 -10.3873 188.497 -10.2825 187.916C-10.1777 187.335 -10.1883 186.74 -10.3136 186.163C-10.439 185.587 -10.6767 185.04 -11.0132 184.556C-12.1118 183.014 -12.7448 181.189 -12.837 179.298C-12.9292 177.407 -12.4767 175.529 -11.5334 173.888C-10.59 172.246 -9.19536 170.91 -7.51507 170.038C-5.83478 169.166 -3.93944 168.794 -2.05414 168.967C-1.46322 169.028 -0.865983 168.972 -0.297194 168.8C0.271595 168.628 0.800574 168.345 1.25895 167.967C1.71733 167.589 2.09594 167.124 2.37276 166.598C2.64957 166.073 2.81906 165.497 2.87134 164.906C2.92363 164.314 2.85768 163.717 2.67732 163.151C2.49696 162.585 2.20581 162.061 1.8208 161.608C1.43579 161.156 0.964627 160.784 0.434732 160.516C-0.0951634 160.247 -0.673202 160.087 -1.26574 160.044C-1.74274 160.006 -2.22077 159.982 -2.69919 159.972H-2.66335ZM343.694 165.921C342.153 165.921 340.827 166.673 339.967 167.892C337.715 171.077 336.512 174.885 336.527 178.786C336.534 182.087 337.404 185.328 339.051 188.188C340.698 191.049 343.065 193.429 345.916 195.091C349.297 197.052 353.207 197.904 357.097 197.528C357.685 197.477 358.258 197.309 358.781 197.036C359.305 196.764 359.77 196.39 360.149 195.938C360.528 195.485 360.815 194.962 360.992 194.399C361.17 193.836 361.234 193.243 361.182 192.655C361.131 192.066 360.964 191.494 360.691 190.97C360.418 190.447 360.044 189.982 359.592 189.603C359.139 189.223 358.616 188.937 358.053 188.759C357.49 188.582 356.897 188.517 356.309 188.569C354.429 188.736 352.541 188.363 350.867 187.492C349.193 186.621 347.803 185.289 346.861 183.654C345.92 182.019 345.465 180.149 345.552 178.264C345.638 176.379 346.262 174.558 347.35 173.016C347.832 172.346 348.12 171.555 348.181 170.731C348.242 169.908 348.074 169.083 347.696 168.349C347.317 167.614 346.743 166.999 346.037 166.571C345.331 166.142 344.52 165.917 343.694 165.921V165.921ZM151.97 165.921C151.144 165.917 150.333 166.142 149.627 166.571C148.921 166.999 148.347 167.614 147.969 168.349C147.591 169.083 147.423 169.908 147.484 170.731C147.545 171.555 147.833 172.346 148.315 173.016C149.413 174.558 150.046 176.383 150.139 178.274C150.231 180.165 149.778 182.043 148.835 183.684C147.892 185.326 146.497 186.662 144.817 187.534C143.136 188.406 141.241 188.778 139.356 188.605C138.768 188.553 138.175 188.618 137.612 188.795C137.048 188.972 136.525 189.259 136.073 189.638C135.62 190.018 135.247 190.482 134.974 191.006C134.701 191.53 134.534 192.102 134.482 192.69C134.43 193.279 134.495 193.871 134.672 194.435C134.85 194.998 135.136 195.521 135.515 195.973C135.895 196.426 136.36 196.799 136.883 197.072C137.407 197.345 137.979 197.512 138.567 197.564C142.33 197.923 146.236 197.134 149.748 195.056C152.59 193.394 154.948 191.019 156.589 188.165C158.23 185.311 159.096 182.078 159.102 178.786C159.102 174.736 157.812 170.974 155.625 167.892C155.217 167.288 154.667 166.792 154.024 166.449C153.381 166.105 152.664 165.924 151.934 165.921H151.97ZM-3.05755 174.306C-4.2456 174.306 -5.38498 174.778 -6.22506 175.618C-7.06514 176.458 -7.53708 177.598 -7.53708 178.786C-7.53708 179.974 -7.06514 181.113 -6.22506 181.953C-5.38498 182.794 -4.2456 183.265 -3.05755 183.265C-1.8695 183.265 -0.730116 182.794 0.10996 181.953C0.950035 181.113 1.42198 179.974 1.42198 178.786C1.42198 177.598 0.950035 176.458 0.10996 175.618C-0.730116 174.778 -1.8695 174.306 -3.05755 174.306V174.306ZM355.305 174.306C354.117 174.306 352.978 174.778 352.138 175.618C351.298 176.458 350.826 177.598 350.826 178.786C350.826 179.974 351.298 181.113 352.138 181.953C352.978 182.794 354.117 183.265 355.305 183.265C356.493 183.265 357.633 182.794 358.473 181.953C359.313 181.113 359.785 179.974 359.785 178.786C359.785 177.598 359.313 176.458 358.473 175.618C357.633 174.778 356.493 174.306 355.305 174.306V174.306ZM140.61 174.306C139.422 174.221 138.249 174.611 137.348 175.39C136.448 176.17 135.894 177.275 135.808 178.463C135.722 179.651 136.112 180.825 136.892 181.725C137.672 182.626 138.777 183.18 139.965 183.265C140.553 183.308 141.144 183.234 141.704 183.048C142.264 182.862 142.781 182.567 143.227 182.181C143.673 181.795 144.038 181.325 144.303 180.798C144.567 180.271 144.725 179.697 144.767 179.108C144.809 178.52 144.736 177.929 144.55 177.37C144.364 176.81 144.069 176.292 143.683 175.846C143.297 175.401 142.827 175.035 142.3 174.771C141.773 174.507 141.198 174.349 140.61 174.306ZM211.638 174.306C211.049 174.349 210.475 174.507 209.948 174.771C209.421 175.035 208.951 175.401 208.565 175.846C208.179 176.292 207.884 176.81 207.698 177.37C207.512 177.929 207.438 178.52 207.481 179.108C207.523 179.697 207.681 180.271 207.945 180.798C208.209 181.325 208.575 181.795 209.021 182.181C209.467 182.568 209.984 182.862 210.544 183.048C211.104 183.234 211.694 183.308 212.283 183.265C213.471 183.18 214.576 182.626 215.356 181.725C216.135 180.825 216.525 179.651 216.44 178.463C216.354 177.275 215.8 176.17 214.9 175.39C213.999 174.611 212.826 174.221 211.638 174.306ZM32.8146 179.073C17.6461 179.043 2.99735 184.597 -8.33788 194.676C-19.6731 204.756 -26.9016 218.655 -28.6447 233.723C-28.7869 234.562 -28.6872 235.424 -28.3572 236.209C-28.0271 236.993 -27.4804 237.668 -26.781 238.153C-26.0817 238.638 -25.2586 238.914 -24.4082 238.948C-23.5577 238.982 -22.7152 238.773 -21.9791 238.346C-21.3732 237.99 -20.8596 237.496 -20.4799 236.904C-20.1001 236.313 -19.8648 235.641 -19.7931 234.941C-18.8651 226.717 -16.0173 218.825 -11.4794 211.903C-6.94157 204.981 -0.840584 199.223 6.33155 195.091C14.373 190.47 23.4858 188.037 32.7608 188.037C42.0358 188.037 51.1487 190.47 59.1901 195.091C66.3601 199.23 72.4568 204.996 76.9886 211.925C81.5203 218.853 84.3601 226.75 85.2789 234.977C85.3251 235.588 85.4962 236.183 85.7817 236.726C86.0671 237.268 86.4608 237.746 86.9385 238.13C87.4161 238.514 87.9674 238.796 88.5584 238.959C89.1493 239.121 89.7673 239.161 90.3741 239.075C90.981 238.989 91.5637 238.779 92.0862 238.459C92.6088 238.139 93.0601 237.715 93.4122 237.213C93.7643 236.711 94.0097 236.143 94.1332 235.542C94.2568 234.942 94.2558 234.323 94.1304 233.723C92.3895 218.673 85.1764 204.789 73.8638 194.712C62.5512 184.635 47.9286 179.069 32.7787 179.073H32.8146ZM-38.8938 192.941V209.928C-37.7673 211.234 -36.5711 212.478 -35.3102 213.655C-34.6857 214.288 -33.8869 214.721 -33.0156 214.898C-32.1442 215.076 -31.2396 214.99 -30.4171 214.652C-29.5946 214.314 -28.8914 213.739 -28.3971 212.999C-27.9027 212.26 -27.6396 211.39 -27.6412 210.501C-27.6412 209.175 -28.2146 207.992 -29.0747 207.204C-33.3848 203.254 -36.7422 198.377 -38.8938 192.941V192.941ZM32.7787 193.407C22.0113 193.387 11.5583 197.036 3.14202 203.752C-5.27423 210.468 -11.1516 219.851 -13.5217 230.354C-13.8069 231.509 -13.6216 232.73 -13.0067 233.748C-12.3917 234.766 -11.3975 235.498 -10.2427 235.784C-9.08794 236.069 -7.86719 235.883 -6.84902 235.268C-5.83085 234.654 -5.09866 233.659 -4.81353 232.504C-3.66011 227.289 -1.4329 222.372 1.72615 218.065C4.88519 213.759 8.9068 210.157 13.5346 207.491C19.3946 204.12 26.0364 202.346 32.7966 202.346C39.5569 202.346 46.1987 204.12 52.0586 207.491C56.6837 210.165 60.7008 213.773 63.8537 218.086C67.0067 222.399 69.2263 227.322 70.371 232.54C70.5706 233.418 71.0298 234.214 71.6886 234.827C72.3475 235.44 73.1755 235.84 74.0649 235.975C74.9544 236.11 75.8639 235.975 76.6752 235.586C77.4864 235.197 78.1618 234.573 78.6133 233.795C79.2584 232.72 79.3659 231.501 79.0792 230.39C76.7161 219.88 70.8418 210.489 62.4249 203.766C54.008 197.043 43.5511 193.389 32.7787 193.407V193.407ZM32.7787 207.742C25.8511 207.723 19.0929 209.883 13.4595 213.915C7.82616 217.947 3.60267 223.647 1.38615 230.211C0.986964 231.332 1.04965 232.567 1.56042 233.642C2.07118 234.717 2.98819 235.546 4.10971 235.945C5.23122 236.344 6.46538 236.281 7.54068 235.771C8.61597 235.26 9.44433 234.343 9.84351 233.221C11.71 227.608 15.5744 222.876 20.7019 219.926C24.3815 217.81 28.5519 216.696 32.7966 216.696C37.0413 216.696 41.2118 217.81 44.8914 219.926C50.0054 222.883 53.8564 227.614 55.7139 233.221C55.9859 234.042 56.4894 234.766 57.1638 235.307C57.8381 235.847 58.6545 236.181 59.5144 236.268C60.3743 236.356 61.2411 236.192 62.0101 235.798C62.7792 235.403 63.4178 234.795 63.8488 234.045C64.5655 232.827 64.6372 231.429 64.1713 230.211C61.9548 223.647 57.7313 217.947 52.0979 213.915C46.4646 209.883 39.7064 207.723 32.7787 207.742V207.742ZM-38.8938 217.668V229.064C-37.8865 229.494 -36.7568 229.539 -35.7182 229.192C-34.6796 228.845 -33.804 228.13 -33.257 227.181C-32.7099 226.233 -32.5292 225.117 -32.749 224.044C-32.9689 222.971 -33.574 222.016 -34.4501 221.359C-35.9985 220.199 -37.482 218.955 -38.8938 217.632L-38.8938 217.668ZM32.7787 222.076C29.1789 222.077 25.655 223.111 22.6251 225.055C19.5951 226.998 17.1864 229.77 15.6848 233.042C15.3964 233.578 15.2203 234.168 15.1674 234.775C15.1145 235.381 15.1858 235.992 15.377 236.57C15.5682 237.149 15.8753 237.682 16.2795 238.137C16.6837 238.593 17.1765 238.961 17.7278 239.219C18.2791 239.478 18.8774 239.621 19.486 239.641C20.0947 239.661 20.7009 239.556 21.2677 239.333C21.8345 239.111 22.3499 238.775 22.7826 238.346C23.2152 237.918 23.5559 237.405 23.7838 236.841C24.572 235.117 25.8388 233.656 27.4335 232.632C29.0281 231.608 30.8835 231.063 32.7787 231.063C34.674 231.063 36.5293 231.608 38.124 232.632C39.7186 233.656 40.9854 235.117 41.7736 236.841C42.0016 237.405 42.3423 237.918 42.7749 238.346C43.2075 238.775 43.723 239.111 44.2898 239.333C44.8566 239.556 45.4628 239.661 46.0714 239.641C46.6801 239.621 47.2783 239.478 47.8296 239.219C48.381 238.961 48.8738 238.593 49.278 238.137C49.6822 237.682 49.9892 237.149 50.1804 236.57C50.3716 235.992 50.443 235.381 50.39 234.775C50.3371 234.168 50.1611 233.578 49.8726 233.042C48.3782 229.765 45.9712 226.988 42.9397 225.043C39.9081 223.098 36.3804 222.068 32.7787 222.076V222.076ZM32.4562 236.411C31.3249 236.492 30.2667 237 29.4952 237.831C28.7237 238.663 28.2963 239.756 28.2992 240.89H37.2583C37.2599 240.274 37.1342 239.664 36.8892 239.098C36.6442 238.532 36.2851 238.023 35.8343 237.603C35.3836 237.183 34.8509 236.86 34.2696 236.654C33.6884 236.449 33.071 236.366 32.4562 236.411ZM319.791 236.411C319.175 236.361 318.556 236.44 317.972 236.643C317.389 236.846 316.854 237.169 316.402 237.59C315.95 238.012 315.591 238.523 315.348 239.091C315.104 239.66 314.982 240.272 314.989 240.89H323.948C323.96 239.754 323.536 238.656 322.762 237.822C321.989 236.989 320.926 236.484 319.791 236.411V236.411Z" fill="white"/>
</g>
<rect y="26" width="336" height="168" fill="url(#paint0_linear_303_880)"/>
</g>
<defs>
<linearGradient id="paint0_linear_303_880" x1="168" y1="26" x2="168" y2="172.5" gradientUnits="userSpaceOnUse">
<stop stop-color="white" stop-opacity="0"/>
<stop offset="1" stop-color="white"/>
</linearGradient>
<clipPath id="clip0_303_880">
<rect width="336" height="194" fill="white"/>
</clipPath>
</defs>
</svg>
