<svg width="46" height="46" viewBox="0 0 46 46" fill="none" xmlns="http://www.w3.org/2000/svg">
<path d="M19.3484 17.4691C16.0626 18.7834 7.59285 23.7485 6.57062 24.9167C5.47538 26.231 6.13253 29.3706 7.59285 29.8818C8.17697 30.1008 9.71032 30.0278 11.0976 29.6627C12.4119 29.3706 14.3833 28.8596 15.5516 28.6405C17.1579 28.2754 17.523 27.7643 17.523 26.0119C17.523 23.7485 20.6626 19.4405 21.6119 20.3897C21.9039 20.6818 21.6119 21.923 20.9547 23.0183C18.6182 27.0342 19.8595 31.6342 23.1452 30.977C23.9484 30.831 24.5325 29.9548 24.6786 28.7135C24.8245 27.5453 25.4817 26.45 26.1388 26.231C30.0817 24.8437 31.396 19.8056 28.3293 17.6881C26.4309 16.3008 22.4881 16.2278 19.3484 17.4691Z" fill="black"/>
<path d="M35.777 14.7858C33.2062 14.7858 31.1222 16.8698 31.1222 19.4405C31.1222 22.0113 33.2062 24.0953 35.777 24.0953C38.3478 24.0953 40.4317 22.0113 40.4317 19.4405C40.4317 16.8698 38.3478 14.7858 35.777 14.7858Z" fill="black"/>
</svg>
