<svg width="25" height="25" viewBox="0 0 25 25" fill="none" xmlns="http://www.w3.org/2000/svg">
<g clip-path="url(#clip0_566_384)">
<path fill-rule="evenodd" clip-rule="evenodd" d="M8.5698 15.4711H8.7248L12.2083 15.472C12.5613 15.472 12.8475 15.1858 12.8475 14.8328C12.8475 14.4799 12.5613 14.1936 12.2083 14.1936H10.1383L4.5813 10.6638V16.9795C4.5813 19.0249 3.5587 19.5362 2.536 19.5362C1.5133 19.5362 0.490601 19.0249 0.490601 16.9795V8.61855C0.490601 6.57315 2.536 4.52775 5.604 6.06175C7.0945 6.80705 7.4445 7.00925 8.9099 7.85555C9.4554 8.17065 10.1555 8.57495 11.1265 9.12985C14.7059 11.1752 16.7513 13.528 16.7513 16.0847C16.7513 18.1301 15.2172 19.1528 13.1719 19.1528H8.5698C7.5471 19.1528 6.729 18.3346 6.729 17.3119C6.729 16.2892 7.5471 15.4711 8.5698 15.4711ZM17.3652 15.496C17.3652 13.6609 18.8528 12.1733 20.6879 12.1733C22.523 12.1733 24.0106 13.6609 24.0106 15.496C24.0106 17.3311 22.523 18.8187 20.6879 18.8187C18.8528 18.8187 17.3652 17.3311 17.3652 15.496Z" fill="black"/>
</g>
<defs>
<clipPath id="clip0_566_384">
<rect width="24" height="24" fill="white" transform="translate(0.25061 0.53125)"/>
</clipPath>
</defs>
</svg>
