<svg width="35" height="35" viewBox="0 0 35 35" fill="none" xmlns="http://www.w3.org/2000/svg">
<path fill-rule="evenodd" clip-rule="evenodd" d="M18.8205 25.3314C18.5911 25.4855 18.3331 25.5589 18.0751 25.5589C17.6415 25.5589 17.2151 25.3511 16.9571 24.9623C16.5433 24.346 16.7081 23.511 17.3262 23.099C19.444 21.68 21.4148 20.0406 22.5346 18.8438H10.1721C9.43033 18.8438 8.82833 18.2417 8.82833 17.5C8.82833 16.7582 9.43033 16.1562 10.1721 16.1562H22.5382C21.4094 14.9594 19.4153 13.295 17.3244 11.8939C16.7081 11.4818 16.5433 10.6451 16.9571 10.0287C17.3692 9.41242 18.2005 9.24758 18.8223 9.66146C21.0314 11.1432 26.1717 14.8734 26.1717 17.5C26.1717 20.1266 21.0296 23.8515 18.8205 25.3314ZM17.5 0.03125C4.60179 0.03125 0.03125 4.60358 0.03125 17.5C0.03125 30.3964 4.60179 34.9688 17.5 34.9688C30.3964 34.9688 34.9688 30.3964 34.9688 17.5C34.9688 4.60358 30.3964 0.03125 17.5 0.03125Z" fill="#E66767"/>
</svg>
