<svg width="25" height="24" viewBox="0 0 25 24" fill="none" xmlns="http://www.w3.org/2000/svg">
<path fill-rule="evenodd" clip-rule="evenodd" d="M19.8774 13.9625C19.0304 12.0995 19.0524 11.3985 19.0914 10.1245C19.1014 9.82348 19.1114 9.49648 19.1114 9.12148C19.1114 6.14448 16.9824 1.95148 12.2504 1.95148C7.51836 1.95148 5.38936 6.14448 5.38936 9.12148C5.38936 9.49548 5.39936 9.82348 5.40936 10.1245C5.44836 11.3985 5.46936 12.0995 4.61336 13.9875C4.24736 14.9315 4.29136 15.7465 4.74636 16.4105C5.83836 18.0085 8.99836 18.2285 12.2504 18.2285C15.5024 18.2285 18.6624 18.0085 19.7544 16.4105C20.2104 15.7465 20.2544 14.9315 19.8774 13.9625Z" fill="black"/>
<path fill-rule="evenodd" clip-rule="evenodd" d="M14.9477 19.2408C13.3167 19.4218 11.5487 19.4208 9.53865 19.2388C9.23765 19.2148 8.93965 19.3738 8.80165 19.6488C8.66265 19.9248 8.70666 20.2558 8.91165 20.4858C9.81166 21.4928 10.9957 22.0488 12.2457 22.0488H12.2477C13.5007 22.0488 14.6877 21.4938 15.5897 20.4858C15.7967 20.2548 15.8397 19.9188 15.6977 19.6418C15.5547 19.3668 15.2607 19.2128 14.9477 19.2408Z" fill="black"/>
</svg>
