<svg width="25" height="25" viewBox="0 0 25 25" fill="none" xmlns="http://www.w3.org/2000/svg">
<g clip-path="url(#clip0_42319_360)">
<path fill-rule="evenodd" clip-rule="evenodd" d="M0.709717 4.9105C0.709717 2.44495 2.70845 0.446211 5.174 0.446211H9.47872C11.9443 0.446211 13.943 2.44495 13.943 4.9105V5.58014C13.943 5.8267 13.7431 6.02657 13.4966 6.02657H1.15615C0.90959 6.02657 0.709717 5.8267 0.709717 5.58014V4.9105ZM13.4966 8.25871C13.7431 8.25871 13.943 8.45859 13.943 8.70514V12.723C13.943 12.9696 13.7431 13.1694 13.4966 13.1694H1.15615C0.90959 13.1694 0.709717 12.9696 0.709717 12.723V8.70514C0.709717 8.45859 0.90959 8.25871 1.15615 8.25871H13.4966ZM13.4966 15.4016C13.7431 15.4016 13.943 15.6014 13.943 15.848V20.0891C13.943 22.5439 11.9615 24.5361 9.51064 24.5532C9.50343 24.5536 9.49616 24.5538 9.48886 24.5538H7.00082C6.994 24.5538 6.98725 24.5536 6.98057 24.5534H5.174C2.70845 24.5534 0.709717 22.5546 0.709717 20.0891V15.848C0.709717 15.6014 0.90959 15.4016 1.15615 15.4016H13.4966ZM8.44243 19.7032C8.44243 19.0868 7.94275 18.5871 7.32636 18.5871C6.70998 18.5871 6.21029 19.0868 6.21029 19.7032V20.0282C6.21029 20.6446 6.70998 21.1443 7.32636 21.1443C7.94275 21.1443 8.44243 20.6446 8.44243 20.0282V19.7032ZM16.1749 18.1011C16.1749 18.4989 16.6562 18.698 16.9373 18.4164L22.4621 12.8824C23.3309 12.0122 23.7657 10.873 23.7669 9.73341C23.7684 8.58846 23.3319 7.44314 22.4582 6.57004L19.3364 3.32282L19.3235 3.30964C19.1125 3.09889 18.8855 2.91368 18.6466 2.754C18.6234 2.73843 18.6014 2.72086 18.581 2.70157C17.839 1.99823 16.9152 1.59855 15.9664 1.50205C15.6339 1.46823 15.4362 1.83164 15.5748 2.13577C15.9602 2.98116 16.1749 3.92075 16.1749 4.9105V18.1011ZM14.7253 23.792C14.4444 24.0732 14.6437 24.5538 15.0412 24.5538H19.8262C22.2918 24.5538 24.2905 22.555 24.2905 20.0895V14.7323C24.2905 14.6702 24.2893 14.6083 24.2866 14.5468C24.2816 14.4226 24.1298 14.3717 24.0419 14.4596L14.7253 23.792Z" fill="black"/>
</g>
<defs>
<clipPath id="clip0_42319_360">
<rect width="25" height="25" fill="white"/>
</clipPath>
</defs>
</svg>
