<svg width="47" height="47" viewBox="0 0 47 47" fill="none" xmlns="http://www.w3.org/2000/svg">
<path fill-rule="evenodd" clip-rule="evenodd" d="M34.3248 20.7968H34.2762C33.4714 20.7677 32.8396 20.0951 32.8668 19.2902C32.929 17.4415 32.0251 16.2421 30.4485 16.0807C29.6475 15.9991 29.0643 15.2837 29.146 14.4827C29.2296 13.6837 29.9489 13.0947 30.7459 13.1803C33.8719 13.4991 35.8956 15.9932 35.7809 19.3874C35.7536 20.1767 35.1063 20.7968 34.3248 20.7968ZM34.1654 6.38403C30.8217 5.31483 26.1931 5.75806 23.3043 9.03565C20.2697 5.78139 15.7985 5.309 12.4781 6.38597C4.86737 8.83541 2.49375 17.6534 4.65936 24.4166V24.4185C8.07691 35.0541 19.4396 40.7909 23.3315 40.7909C26.8054 40.7909 38.6191 35.1611 41.9978 24.4166C44.1634 17.6553 41.7839 8.83736 34.1654 6.38403Z" fill="#E66767"/>
</svg>
