<svg width="25" height="25" viewBox="0 0 25 25" fill="none" xmlns="http://www.w3.org/2000/svg">
<g clip-path="url(#clip0_42321_364)">
<path fill-rule="evenodd" clip-rule="evenodd" d="M3.60984 3.60973C5.71968 1.49988 8.76434 0.446426 12.5001 0.446426C16.2359 0.446426 19.2805 1.49988 21.3905 3.60973C23.5003 5.71957 24.5537 8.76423 24.5537 12.5C24.5537 16.2358 23.5003 19.2804 21.3905 21.3904C19.2805 23.5002 16.2359 24.5536 12.5001 24.5536C8.76434 24.5536 5.71968 23.5002 3.60984 21.3904C1.49998 19.2804 0.446533 16.2358 0.446533 12.5C0.446533 8.76423 1.49998 5.71957 3.60984 3.60973ZM5.51855 5.51844C4.01591 7.02109 3.1251 9.31794 3.1251 12.5C3.1251 14.3653 3.43119 15.9264 3.98719 17.2017H5.7125C6.5025 17.2017 7.26012 16.8878 7.81873 16.3292C8.37734 15.7706 8.69116 15.013 8.69116 14.223V11.6699C8.69116 10.8799 9.005 10.1222 9.5636 9.56362C10.1222 9.00502 10.8798 8.69119 11.6698 8.69119C12.4598 8.69119 13.2174 8.37737 13.7761 7.81877C14.3347 7.26016 14.6485 6.50253 14.6485 5.71253V3.27643C13.983 3.17677 13.2673 3.125 12.5001 3.125C9.31805 3.125 7.02119 4.0158 5.51855 5.51844ZM21.8751 12.5C21.8751 12.4301 21.8747 12.3606 21.8739 12.2916C21.3796 12.1605 20.869 12.0921 20.3542 12.0893H16.7287C15.9387 12.0893 15.1811 12.4031 14.6224 12.9617C14.0638 13.5203 13.75 14.2779 13.75 15.0679C13.75 15.8579 14.0638 16.6156 14.6224 17.1742C15.1811 17.7328 15.9387 18.0466 16.7287 18.0466C17.293 18.0466 17.8341 18.2707 18.2331 18.6698C18.6001 19.0366 18.819 19.5237 18.8519 20.0384C19.0755 19.8637 19.2855 19.6779 19.4817 19.4816C20.9842 17.9789 21.8751 15.6821 21.8751 12.5Z" fill="black"/>
</g>
<defs>
<clipPath id="clip0_42321_364">
<rect width="25" height="25" fill="white"/>
</clipPath>
</defs>
</svg>
