<svg width="25" height="25" viewBox="0 0 25 25" fill="none" xmlns="http://www.w3.org/2000/svg">
<path fill-rule="evenodd" clip-rule="evenodd" d="M16.341 10.6918L11.591 15.4378C11.45 15.5788 11.26 15.6578 11.061 15.6578C10.862 15.6578 10.671 15.5788 10.53 15.4378L8.159 13.0648C7.866 12.7718 7.866 12.2968 8.159 12.0038C8.453 11.7108 8.928 11.7128 9.22 12.0038L11.061 13.8468L15.28 9.63079C15.573 9.33779 16.048 9.33879 16.341 9.63079C16.634 9.92379 16.634 10.3988 16.341 10.6918ZM12.25 2.78479C5.052 2.78479 2.5 5.33679 2.5 12.5348C2.5 19.7328 5.052 22.2848 12.25 22.2848C19.448 22.2848 22 19.7328 22 12.5348C22 5.33679 19.448 2.78479 12.25 2.78479Z" fill="black"/>
</svg>
