<svg width="25" height="24" viewBox="0 0 25 24" fill="none" xmlns="http://www.w3.org/2000/svg">
<path fill-rule="evenodd" clip-rule="evenodd" d="M16.441 13.5171H16.428L11.899 13.4441C11.489 13.4371 11.161 13.1031 11.161 12.6941V7.84612C11.161 7.43212 11.497 7.09612 11.911 7.09612C12.325 7.09612 12.661 7.43212 12.661 7.84612V11.9551L16.453 12.0171C16.867 12.0241 17.197 12.3651 17.191 12.7791C17.184 13.1891 16.849 13.5171 16.441 13.5171ZM12.25 2.25012C6.874 2.25012 2.5 6.62412 2.5 12.0001C2.5 17.3761 6.874 21.7501 12.25 21.7501C17.626 21.7501 22 17.3761 22 12.0001C22 6.62412 17.626 2.25012 12.25 2.25012Z" fill="black"/>
</svg>
