<svg width="46" height="46" viewBox="0 0 46 46" fill="none" xmlns="http://www.w3.org/2000/svg">
<path fill-rule="evenodd" clip-rule="evenodd" d="M18.0916 27.1986H18.3021L23.033 27.1998C23.5124 27.1998 23.9011 26.8111 23.9011 26.3316C23.9011 25.8522 23.5124 25.4634 23.033 25.4634H20.2217L12.6747 20.6689V29.2474C12.6747 32.0257 11.2859 32.7202 9.897 32.7202C8.50807 32.7202 7.11914 32.0257 7.11914 29.2474V17.8908C7.11914 15.1126 9.897 12.3343 14.0637 14.4179C16.0879 15.4302 16.5633 15.7049 18.5534 16.8544C19.2943 17.2824 20.2451 17.8316 21.5638 18.5853C26.425 21.3635 29.2029 24.5593 29.2029 28.032C29.2029 30.8103 27.1194 32.1994 24.3416 32.1994H18.0916C16.7026 32.1994 15.5915 31.0881 15.5915 29.6989C15.5915 28.3098 16.7026 27.1986 18.0916 27.1986ZM30.0366 27.2324C30.0366 24.7398 32.0569 22.7192 34.5492 22.7192C37.0414 22.7192 39.0618 24.7398 39.0618 27.2324C39.0618 29.725 37.0414 31.7456 34.5492 31.7456C32.0569 31.7456 30.0366 29.725 30.0366 27.2324Z" fill="black"/>
</svg>
