<svg width="46" height="47" viewBox="0 0 46 47" fill="none" xmlns="http://www.w3.org/2000/svg">
<path d="M21.0839 15.8496C22.7378 14.203 22.7381 11.5388 21.0846 9.89909C19.4311 8.25933 16.75 8.26491 15.0961 9.91155C13.4423 11.5582 13.442 14.2224 15.0955 15.8621C16.7489 17.5019 19.4301 17.4963 21.0839 15.8496Z" fill="black"/>
<path d="M38.3523 37.6521H7.68581C7.03074 37.6521 6.46926 38.1542 6.43182 38.8052C6.39439 39.5026 6.95588 40.0698 7.64837 40.0698H38.3148C38.9699 40.0698 39.5314 39.5677 39.5688 38.9167C39.5969 38.2286 39.0448 37.6521 38.3523 37.6521Z" fill="black"/>
<path d="M12.3742 35.6343L24.5023 29.6923L35.6478 35.0484C36.7427 35.5785 38.0528 35.1228 38.5862 34.0349C39.1196 32.9469 38.6611 31.6451 37.5662 31.115L25.4568 25.294C25.4475 25.294 25.4475 25.2847 25.4381 25.2847C25.41 25.2754 25.3913 25.2661 25.3632 25.2568C25.3539 25.2475 25.3352 25.2475 25.3258 25.2382C25.2977 25.2289 25.2603 25.2103 25.2322 25.201C25.2229 25.201 25.2229 25.201 25.2135 25.1917C25.1761 25.1824 25.1386 25.1638 25.1012 25.1545C25.0919 25.1545 25.0919 25.1545 25.0825 25.1452C25.0544 25.1359 25.017 25.1266 24.9889 25.1173C24.9796 25.1173 24.9702 25.1173 24.9608 25.108C24.9328 25.0987 24.8953 25.0987 24.8673 25.0894C24.8579 25.0894 24.8485 25.0894 24.8485 25.0894C24.8111 25.0801 24.783 25.0801 24.7456 25.0708H24.7362C24.5772 25.0522 24.4087 25.0522 24.2496 25.0708H24.2403C24.2028 25.0708 24.1654 25.0801 24.1373 25.0894C24.128 25.0894 24.1186 25.0894 24.1093 25.0987C24.0812 25.108 24.0531 25.108 24.025 25.1173C24.0157 25.1173 23.997 25.1266 23.9876 25.1266C23.9595 25.1359 23.9408 25.1359 23.9127 25.1452C23.894 25.1452 23.8847 25.1545 23.8659 25.1545C23.8472 25.1638 23.8192 25.1731 23.8004 25.1731C23.7817 25.1824 23.7724 25.1824 23.7536 25.1917C23.7443 25.1917 23.7443 25.1917 23.7349 25.201L16.576 27.8512C16.3982 27.9162 16.211 27.7489 16.2672 27.5629C16.3888 27.1444 16.5198 26.726 16.6789 26.3168C17.1749 24.9871 17.83 23.7225 18.6348 22.5508C18.8219 22.2812 19.1214 22.1231 19.4489 22.1231H36.228C37.4165 22.1231 38.4365 21.2025 38.4739 20.0215C38.5207 18.7755 37.5194 17.7526 36.2748 17.7526H17.465C17.1936 17.7433 16.8006 17.734 16.3327 17.7898C13.9932 18.0688 12.4304 19.5101 11.7566 20.1331C8.6029 23.0437 8.27537 27.2281 8.17243 28.5021C8.0227 30.3711 7.75132 33.8768 9.82881 35.1786C10.6898 35.7366 11.6911 35.7273 12.3742 35.6343Z" fill="black"/>
</svg>
