<svg width="47" height="46" viewBox="0 0 47 46" fill="none" xmlns="http://www.w3.org/2000/svg">
<path d="M29.396 8.05892C29.6054 5.94 28.0608 4.05217 25.9461 3.84235C23.8313 3.63252 21.9472 5.18016 21.7378 7.29909C21.5284 9.41801 23.073 11.3058 25.1877 11.5157C27.3025 11.7255 29.1866 10.1779 29.396 8.05892Z" fill="black"/>
<path d="M39.5603 29.3763C39.5603 29.346 39.5603 29.3007 39.5603 29.2704C39.5603 29.2402 39.5603 29.2251 39.5603 29.1948C39.5603 29.1646 39.5452 29.1192 39.5452 29.089C39.5452 29.0588 39.5301 29.0437 39.5301 29.0134C39.515 28.9832 39.515 28.9378 39.4999 28.9076C39.4999 28.8773 39.4848 28.8622 39.4848 28.832C39.4697 28.8017 39.4546 28.7564 39.4546 28.7261C39.4395 28.6959 39.4395 28.6808 39.4244 28.6505C39.4094 28.6203 39.3943 28.5901 39.3792 28.5598C39.3641 28.5296 39.349 28.5145 39.3339 28.4842C39.3188 28.454 39.3037 28.4237 39.2886 28.3935C39.2735 28.3633 39.2585 28.3481 39.2434 28.3179C39.2283 28.2877 39.1981 28.2725 39.183 28.2423C39.1679 28.2121 39.1528 28.1969 39.1226 28.1818C39.1076 28.1516 39.0774 28.1365 39.0623 28.1062C39.0472 28.0911 39.0321 28.076 39.0321 28.0609L39.017 28.0457C38.9868 28.0155 38.9718 28.0004 38.9416 27.9701C38.9265 27.955 38.8963 27.9399 38.8812 27.9248C38.851 27.8945 38.8209 27.8794 38.7907 27.8643C38.7756 27.8492 38.7454 27.8341 38.7303 27.8189C38.7001 27.8038 38.67 27.7736 38.6247 27.7585C38.6096 27.7433 38.5794 27.7282 38.5643 27.7282C38.5341 27.7131 38.504 27.698 38.4587 27.6829C38.4285 27.6677 38.4134 27.6677 38.3832 27.6526C38.3531 27.6375 38.3229 27.6224 38.2927 27.6224C38.2625 27.6073 38.2323 27.6073 38.2173 27.5921C38.1871 27.577 38.1569 27.577 38.1267 27.5619C38.0965 27.5619 38.0664 27.5468 38.0362 27.5468C38.0211 27.5468 38.006 27.5468 37.9909 27.5317L29.4802 26.2011V16.2221C29.4802 15.9499 29.4198 15.6777 29.3142 15.4358C29.0727 14.9218 28.7559 14.453 28.3484 14.0448C27.8957 13.5912 27.3525 13.2283 26.764 12.9864C26.5376 12.8957 26.2962 12.8503 26.0548 12.8503H22.7199C22.2974 12.8503 21.905 12.9864 21.573 13.2435L14.8278 18.4447C14.36 18.8075 14.0884 19.3519 14.0884 19.9415C14.0884 20.5312 14.36 21.0755 14.8278 21.4384L20.2904 25.6417L21.4523 27.577L18.2683 36.286L9.28981 38.8413C8.29388 39.1286 7.70537 40.1718 7.99208 41.1697C8.23352 42.0013 8.98802 42.5456 9.80287 42.5456C9.96886 42.5456 10.1499 42.5154 10.3159 42.47L20.2149 39.6578C20.2602 39.6426 20.3055 39.6275 20.3507 39.6124C20.3658 39.6124 20.3809 39.5973 20.396 39.5973C20.4564 39.567 20.5318 39.5368 20.5922 39.5066C20.6073 39.4914 20.6375 39.4763 20.6525 39.4763C20.6978 39.4461 20.7431 39.431 20.7733 39.4007C20.8034 39.3856 20.8185 39.3705 20.8487 39.3554C20.8789 39.3251 20.9242 39.2949 20.9543 39.2646C20.9694 39.2495 20.9996 39.2193 21.0147 39.2042C21.0449 39.1739 21.0902 39.1286 21.1203 39.0983C21.1354 39.0832 21.1505 39.0681 21.1656 39.053C21.2109 38.9925 21.2561 38.932 21.3014 38.8715L25.9944 31.4175L35.8029 31.3419V40.6708C35.8029 41.714 36.6479 42.5608 37.6891 42.5608C38.7303 42.5608 39.5753 41.714 39.5753 40.6708V29.4368C39.5603 29.4065 39.5603 29.3914 39.5603 29.3763ZM19.0832 19.9415L21.7088 17.9155V21.9676L19.0832 19.9415Z" fill="black"/>
</svg>
